<svg width="275" height="182" viewBox="0 0 275 182" fill="none" xmlns="http://www.w3.org/2000/svg">
<g clip-path="url(#clip0_1929_1395)">
<path d="M98.6426 104.743C108.067 88.2329 126.044 75.5561 145.074 76.7773C131.037 91.979 122.851 111.635 121.966 132.269C121.654 140.227 122.138 149.111 116.832 155.071C113.53 158.779 108.484 160.575 103.522 160.951C98.5598 161.328 93.5989 160.435 88.703 159.546L87.5154 159.909C87.0633 140.924 89.2183 121.252 98.6426 104.743Z" fill="#F0F0F0"/>
<path d="M145.102 77.1749C131.03 83.9214 119.03 95.1888 111.664 108.93C110.072 111.901 108.716 115.053 108.124 118.385C107.533 121.719 107.946 124.893 109.089 128.059C110.135 130.954 111.541 133.794 111.861 136.892C112.199 140.157 110.993 143.209 108.821 145.632C106.165 148.597 102.597 150.434 99.0452 152.109C95.1016 153.97 90.9759 155.84 88.1828 159.312C87.8444 159.733 87.2086 159.185 87.5466 158.765C92.4061 152.724 100.725 151.588 106.493 146.722C109.185 144.451 111.205 141.359 111.078 137.736C110.966 134.567 109.519 131.637 108.435 128.715C107.297 125.647 106.729 122.562 107.138 119.291C107.555 115.945 108.79 112.734 110.299 109.735C113.703 102.973 118.361 96.7649 123.698 91.3984C129.83 85.2298 136.978 80.1513 144.83 76.3828C145.316 76.1498 145.585 76.9433 145.102 77.1749Z" fill="white"/>
<path d="M113.822 104.338C111.665 102.767 110.138 100.483 109.515 97.8951C108.893 95.3069 109.214 92.5825 110.422 90.2084C110.668 89.7289 111.428 90.0872 111.181 90.5673C110.052 92.776 109.753 95.3139 110.338 97.7228C110.923 100.132 112.354 102.253 114.371 103.704C114.809 104.02 114.258 104.652 113.822 104.338Z" fill="white"/>
<path d="M108.365 126.661C113.771 125.874 118.681 123.087 122.115 118.856C122.455 118.437 123.091 118.984 122.751 119.403C119.169 123.8 114.054 126.689 108.427 127.496C107.89 127.572 107.832 126.737 108.365 126.661Z" fill="white"/>
<path d="M130.246 86.2597C130.953 87.0407 131.844 87.6345 132.839 87.9878C133.834 88.341 134.902 88.4426 135.946 88.2835C136.481 88.2003 136.539 89.0356 136.008 89.1182C134.853 89.2887 133.674 89.1751 132.574 88.7872C131.474 88.3993 130.486 87.7491 129.696 86.8933C129.615 86.8188 129.566 86.7163 129.558 86.6067C129.549 86.4971 129.584 86.3885 129.653 86.303C129.726 86.2195 129.829 86.1681 129.94 86.1599C130.051 86.1518 130.161 86.1877 130.246 86.2597Z" fill="white"/>
<path d="M182.938 128.86C182.606 128.921 182.273 128.982 181.937 129.05C177.469 129.899 173.077 131.108 168.805 132.665C168.473 132.78 168.138 132.902 167.81 133.027C157.558 136.887 148.115 142.61 139.961 149.904C136.719 152.809 133.704 155.956 130.941 159.317C127.126 163.958 123.361 169.294 118.376 172.32C117.859 172.642 117.323 172.931 116.771 173.187L88.0523 161.324C88.0006 161.264 87.9459 161.211 87.8939 161.151L86.7255 160.73C86.8558 160.547 86.995 160.359 87.1253 160.176C87.2005 160.07 87.282 159.966 87.3571 159.859C87.4093 159.789 87.4617 159.719 87.5048 159.652C87.522 159.629 87.5396 159.606 87.5542 159.589C87.5972 159.522 87.6442 159.465 87.6845 159.405C88.4592 158.356 89.2427 157.311 90.0349 156.269C90.0376 156.263 90.0376 156.263 90.0468 156.259C96.1036 148.337 102.878 140.849 110.578 134.623C110.809 134.436 111.043 134.242 111.288 134.06C114.775 131.273 118.484 128.774 122.379 126.589C124.516 125.399 126.712 124.318 128.959 123.349C134.768 120.857 140.935 119.291 147.234 118.707C159.79 117.546 172.579 120.397 182.209 128.252C182.455 128.453 182.695 128.652 182.938 128.86Z" fill="#F0F0F0"/>
<path d="M182.723 129.196C167.408 126.145 151.015 127.947 136.826 134.502C133.758 135.919 130.77 137.623 128.283 139.929C125.795 142.236 124.207 145.018 123.205 148.232C122.29 151.17 121.695 154.281 120.078 156.946C118.374 159.755 115.565 161.469 112.367 162.102C108.454 162.876 104.494 162.203 100.645 161.412C96.3719 160.533 91.9471 159.552 87.6177 160.65C87.0931 160.783 86.9166 159.965 87.4403 159.832C94.9727 157.922 102.301 162.003 109.849 161.576C113.371 161.377 116.854 160.119 118.943 157.15C120.769 154.553 121.385 151.346 122.286 148.363C123.232 145.231 124.644 142.427 126.948 140.06C129.304 137.639 132.232 135.815 135.249 134.326C142.055 130.968 149.528 128.804 157.033 127.719C165.659 126.471 174.436 126.701 182.984 128.4C183.513 128.506 183.248 129.301 182.723 129.196Z" fill="white"/>
<path d="M141.325 132.129C140.552 129.581 140.714 126.843 141.782 124.403C142.849 121.963 144.753 119.98 147.153 118.809C147.639 118.573 148.029 119.315 147.542 119.551C145.305 120.637 143.532 122.484 142.543 124.758C141.553 127.033 141.413 129.584 142.147 131.952C142.305 132.467 141.483 132.641 141.325 132.129Z" fill="white"/>
<path d="M123.472 146.681C128.264 149.294 133.869 150.013 139.169 148.693C139.694 148.562 139.871 149.38 139.347 149.511C133.828 150.874 127.997 150.115 123.017 147.384C122.542 147.124 123 146.422 123.472 146.681Z" fill="white"/>
<path d="M165.368 127.542C165.461 128.59 165.813 129.598 166.394 130.477C166.975 131.355 167.766 132.076 168.696 132.575C169.173 132.83 168.715 133.532 168.24 133.279C167.215 132.723 166.343 131.925 165.699 130.956C165.055 129.987 164.659 128.875 164.546 127.718C164.527 127.61 164.549 127.499 164.609 127.406C164.669 127.314 164.761 127.248 164.869 127.221C164.977 127.198 165.091 127.219 165.184 127.279C165.278 127.339 165.344 127.434 165.368 127.542Z" fill="white"/>
<path d="M128.232 148.431C124.21 129.064 119.183 122.608 119.183 122.608L117.262 121.124L114.952 119.338L114.963 119.108L114.416 118.923L114.287 118.823L114.076 118.662L114.042 118.698L113.971 118.772L103.519 115.234L90.2595 110.749L84.1194 102.801C83.1195 101.507 81.832 100.46 80.3581 99.7444C78.8841 99.0284 77.2637 98.6622 75.6238 98.6742L56.0145 98.8187C53.3631 98.8383 50.815 99.8448 48.871 101.641L35.9822 113.546L15.8988 123.098L15.8649 123.065L15.654 123.215L12.551 124.692L12.679 125.356L10.7584 126.736C10.7584 126.736 5.73103 132.744 1.70909 150.764C0.685949 155.349 0.182323 165.185 0.000541363 177.305C-0.00858952 177.918 0.104766 178.527 0.334014 179.096C0.563263 179.665 0.903831 180.183 1.33592 180.62C1.768 181.057 2.28299 181.404 2.85092 181.641C3.41886 181.878 4.02842 182 4.64416 182H111.913L125.302 182C125.917 182 126.526 181.878 127.094 181.641C127.661 181.404 128.176 181.058 128.608 180.622C129.04 180.185 129.381 179.668 129.61 179.099C129.84 178.531 129.954 177.923 129.945 177.31C129.768 164.121 129.264 153.403 128.232 148.431Z" fill="black"/>
<path d="M141.995 16.8889C137.822 16.8889 133.819 18.5399 130.868 21.4787C127.917 24.4176 126.259 28.4034 126.259 32.5596C126.259 36.7157 127.917 40.7016 130.868 43.6404C133.819 46.5792 137.822 48.2302 141.995 48.2302H259.264C263.438 48.2302 267.44 46.5792 270.391 43.6404C273.342 40.7016 275 36.7157 275 32.5596C275 28.4034 273.342 24.4176 270.391 21.4787C267.44 18.5399 263.438 16.8889 259.264 16.8889H141.995Z" fill="#E5E5E5"/>
<path d="M141.995 20.0604C138.666 20.0604 135.474 21.3772 133.12 23.7213C130.766 26.0654 129.444 29.2446 129.444 32.5596C129.444 35.8746 130.766 39.0538 133.12 41.3979C135.474 43.7419 138.666 45.0588 141.995 45.0588H259.264C262.593 45.0588 265.785 43.7419 268.139 41.3979C270.493 39.0538 271.815 35.8746 271.815 32.5596C271.815 29.2446 270.493 26.0654 268.139 23.7213C265.785 21.3772 262.593 20.0604 259.264 20.0604H141.995Z" fill="white"/>
<path d="M68.8986 91.3379C83.0868 91.3379 94.5886 79.8837 94.5886 65.7543C94.5886 51.6248 83.0868 40.1706 68.8986 40.1706C54.7104 40.1706 43.2086 51.6248 43.2086 65.7543C43.2086 79.8837 54.7104 91.3379 68.8986 91.3379Z" fill="#FFD9DF"/>
<path d="M62.3266 90.0852C62.2168 89.8446 62.1074 89.6031 61.9982 89.3608C62.0403 89.3622 62.0819 89.3682 62.124 89.3693L62.3266 90.0852Z" fill="#2F2E41"/>
<path d="M42.4941 41.334C43.7935 40.3018 45.3121 39.352 46.9733 39.4054C48.6345 39.4587 50.3191 40.9529 49.975 42.5723C53.0263 37.192 57.8831 33.0539 63.6929 30.8844C69.5027 28.7149 75.8941 28.6526 81.7454 30.7085C85.8743 32.1592 89.9232 35.0613 90.8717 39.3179C91.1152 40.4106 91.1674 41.6087 91.8525 42.496C92.7163 43.6147 94.369 43.8678 95.7298 43.4743C95.7434 43.4703 95.757 43.4663 95.7706 43.4623C96.0005 43.3841 96.2486 43.3764 96.483 43.4402C96.7173 43.504 96.927 43.6364 97.085 43.8202C97.243 44.004 97.3419 44.2307 97.3691 44.4711C97.3962 44.7115 97.3503 44.9545 97.2373 45.1687L96.069 47.3384C97.5417 47.6653 99.0718 47.6329 100.529 47.244C100.771 47.1807 101.027 47.1936 101.262 47.2809C101.496 47.3682 101.698 47.5256 101.839 47.7315C101.98 47.9373 102.053 48.1816 102.05 48.4309C102.046 48.6801 101.964 48.922 101.817 49.1234C97.9649 54.3903 91.5292 57.7914 84.9617 57.7515C80.294 57.7231 75.5781 56.1211 71.0354 57.19C69.2779 57.6036 67.6358 58.4037 66.2294 59.5317C64.8229 60.6597 63.688 62.0869 62.9077 63.7087C62.1274 65.3306 61.7216 67.1057 61.7201 68.9041C61.7187 70.7024 62.1215 72.4783 62.899 74.1014C61.5035 72.5812 58.8057 72.9411 57.3781 74.4316C55.9507 75.9221 55.5811 78.1466 55.7249 80.2014C55.9449 83.344 57.1813 86.3053 58.4847 89.1874C47.5565 88.8448 37.2202 81.2105 33.7409 70.885C30.2471 60.5162 33.9088 48.1545 42.4941 41.334Z" fill="black"/>
<path opacity="0.2" d="M25.2856 142.584L32.4911 181.625L36.8146 182L25.2856 142.584Z" fill="black"/>
<path opacity="0.2" d="M104.655 139.639L97.4499 181.597L93.1265 182L104.655 139.639Z" fill="black"/>
<path d="M48.6398 28.1947C47.2583 28.7692 45.8167 28.1396 45.2121 26.6978C44.5983 25.2339 45.1716 23.7478 46.5753 23.1641C47.9791 22.5803 49.395 23.2115 50.0187 24.699C50.6331 26.1642 50.0661 27.6017 48.6398 28.1947ZM45.9934 20.2826L44.8949 20.7394C44.6205 20.8522 44.3136 20.8583 44.0348 20.7565C43.7561 20.6547 43.526 20.4524 43.3898 20.1897L43.3355 20.0839C42.1535 17.9611 42.0182 15.3811 42.9354 12.4197C43.785 9.76312 44.1379 7.89478 43.4282 6.20217C42.6077 4.24519 40.8555 3.63216 38.621 4.5202C37.7544 4.88057 37.4786 4.87483 36.7966 5.54858C36.6483 5.69691 36.4714 5.81398 36.2767 5.8928C36.0819 5.97162 35.8732 6.01057 35.663 6.00733C35.4598 6.00495 35.2591 5.96184 35.073 5.88057C34.8869 5.7993 34.7191 5.68154 34.5797 5.53431C34.3111 5.25057 34.1606 4.8759 34.1586 4.48595C34.1566 4.09599 34.3033 3.71982 34.5691 3.4334C35.7154 2.23839 37.098 1.29299 38.6297 0.656851C43.4305 -1.33954 45.8473 1.60784 46.9533 4.24547C48.0351 6.82537 47.4266 9.21909 46.4488 12.3192C45.6295 14.8952 45.6772 16.804 46.6079 18.7019C46.6751 18.8454 46.7125 19.0009 46.7178 19.1591C46.7232 19.3174 46.6963 19.475 46.6389 19.6227C46.5815 19.7703 46.4948 19.9049 46.3838 20.0183C46.2729 20.1317 46.1401 20.2216 45.9934 20.2826Z" fill="#CDAB35"/>
<path d="M167.898 40.0334H144.566C144.492 40.0339 144.418 40.0198 144.35 39.9919C144.281 39.964 144.219 39.9229 144.166 39.8708C144.114 39.8188 144.072 39.757 144.043 39.6888C144.015 39.6207 144 39.5476 144 39.4737C144 39.3999 144.015 39.3268 144.043 39.2587C144.072 39.1905 144.114 39.1287 144.166 39.0766C144.219 39.0246 144.281 38.9835 144.35 38.9556C144.418 38.9277 144.492 38.9136 144.566 38.9141H167.898C168.047 38.9151 168.189 38.9745 168.293 39.0793C168.398 39.1842 168.456 39.326 168.456 39.4737C168.456 39.6215 168.398 39.7633 168.293 39.8681C168.189 39.973 168.047 40.0324 167.898 40.0334Z" fill="#CDAB35"/>
<path d="M197.497 40.2199H174.164C174.09 40.2204 174.017 40.2063 173.948 40.1784C173.879 40.1505 173.817 40.1094 173.765 40.0574C173.712 40.0053 173.67 39.9435 173.642 39.8753C173.613 39.8072 173.599 39.7341 173.599 39.6603C173.599 39.5865 173.613 39.5134 173.642 39.4452C173.67 39.3771 173.712 39.3152 173.765 39.2632C173.817 39.2111 173.879 39.17 173.948 39.1421C174.017 39.1142 174.09 39.1001 174.164 39.1006H197.497C197.571 39.1001 197.644 39.1142 197.713 39.1421C197.781 39.17 197.844 39.2111 197.896 39.2632C197.949 39.3152 197.991 39.3771 198.019 39.4452C198.048 39.5134 198.062 39.5865 198.062 39.6603C198.062 39.7341 198.048 39.8072 198.019 39.8753C197.991 39.9435 197.949 40.0053 197.896 40.0574C197.844 40.1094 197.781 40.1505 197.713 40.1784C197.644 40.2063 197.571 40.2204 197.497 40.2199Z" fill="#CDAB35"/>
<path d="M227.095 40.4065H203.763C203.614 40.4055 203.472 40.3461 203.368 40.2413C203.263 40.1364 203.204 39.9946 203.204 39.8468C203.204 39.6991 203.263 39.5573 203.368 39.4524C203.472 39.3476 203.614 39.2882 203.763 39.2872H227.095C227.169 39.2867 227.242 39.3008 227.311 39.3287C227.38 39.3566 227.442 39.3977 227.495 39.4498C227.547 39.5018 227.589 39.5636 227.618 39.6318C227.646 39.6999 227.661 39.773 227.661 39.8468C227.661 39.9207 227.646 39.9938 227.618 40.0619C227.589 40.1301 227.547 40.1919 227.495 40.2439C227.442 40.296 227.38 40.3371 227.311 40.365C227.242 40.3929 227.169 40.407 227.095 40.4065Z" fill="#CDAB35"/>
<path d="M256.693 40.593H233.361C233.213 40.592 233.071 40.5326 232.966 40.4278C232.861 40.3229 232.803 40.1811 232.803 40.0334C232.803 39.8856 232.861 39.7438 232.966 39.639C233.071 39.5341 233.213 39.4747 233.361 39.4737H256.693C256.842 39.4747 256.984 39.5341 257.088 39.639C257.193 39.7438 257.251 39.8856 257.251 40.0334C257.251 40.1811 257.193 40.3229 257.088 40.4278C256.984 40.5326 256.842 40.592 256.693 40.593Z" fill="#CDAB35"/>
<path d="M156.181 34.8827C158.576 34.8827 160.517 32.9492 160.517 30.5642C160.517 28.1791 158.576 26.2457 156.181 26.2457C153.786 26.2457 151.844 28.1791 151.844 30.5642C151.844 32.9492 153.786 34.8827 156.181 34.8827Z" fill="#CDAB35"/>
<path d="M185.958 34.8827C188.353 34.8827 190.294 32.9492 190.294 30.5642C190.294 28.1791 188.353 26.2457 185.958 26.2457C183.563 26.2457 181.621 28.1791 181.621 30.5642C181.621 32.9492 183.563 34.8827 185.958 34.8827Z" fill="#CDAB35"/>
<path d="M215.735 34.8827C218.13 34.8827 220.071 32.9492 220.071 30.5642C220.071 28.1791 218.13 26.2457 215.735 26.2457C213.34 26.2457 211.398 28.1791 211.398 30.5642C211.398 32.9492 213.34 34.8827 215.735 34.8827Z" fill="#CDAB35"/>
<path d="M245.512 34.8827C247.907 34.8827 249.848 32.9492 249.848 30.5642C249.848 28.1791 247.907 26.2457 245.512 26.2457C243.117 26.2457 241.176 28.1791 241.176 30.5642C241.176 32.9492 243.117 34.8827 245.512 34.8827Z" fill="#CDAB35"/>
</g>
<defs>
<clipPath id="clip0_1929_1395">
<rect width="275" height="182" fill="white"/>
</clipPath>
</defs>
</svg>
