<svg width="291" height="203" viewBox="0 0 291 203" fill="none" xmlns="http://www.w3.org/2000/svg">
<g clip-path="url(#clip0_2064_4065)">
<path d="M57.9798 203C90.0012 203 115.96 201.023 115.96 198.585C115.96 196.146 90.0012 194.17 57.9798 194.17C25.9585 194.17 0 196.146 0 198.585C0 201.023 25.9585 203 57.9798 203Z" fill="#E6E6E6"/>
<path d="M44.3187 45.0422C54.4089 40.7391 66.9765 43.4655 79.25 45.3577C79.3643 43.0662 80.7487 40.2773 79.2985 38.6787C77.5366 36.7364 77.6988 34.6957 78.759 32.6432C81.4701 27.3946 77.5859 21.8099 73.664 17.1662C72.7801 16.1219 71.6629 15.3014 70.4033 14.7713C69.1437 14.2412 67.7771 14.0165 66.4146 14.1154L59.1497 14.6357C57.3818 14.7623 55.6947 15.4272 54.3141 16.5415C52.9334 17.6557 51.9251 19.1662 51.4241 20.8707C49.6894 23.2362 48.7609 25.5952 49.3455 27.9419C46.7471 29.7222 46.3106 31.8713 47.4782 34.294C48.4682 35.8194 48.4577 37.3043 47.4331 38.748C46.0876 40.5887 45.057 42.6411 44.3836 44.8212L44.3187 45.0422Z" fill="#2F2E41"/>
<path d="M284.104 175.49H78.453C76.6241 175.49 74.8702 174.762 73.577 173.465C72.2839 172.169 71.5574 170.41 71.5574 168.576C146.106 159.889 219.254 159.889 291 168.576C291 170.41 290.273 172.169 288.98 173.465C287.687 174.762 285.933 175.49 284.104 175.49Z" fill="#2F2E41"/>
<path d="M291 168.983L71.5574 168.576L96.99 125.67L97.1117 125.466V30.905C97.1116 29.7572 97.337 28.6207 97.775 27.5602C98.2131 26.4998 98.8551 25.5363 99.6646 24.7247C100.474 23.9131 101.435 23.2693 102.493 22.8301C103.55 22.3909 104.684 22.1649 105.829 22.165H255.512C256.657 22.1649 257.79 22.3909 258.848 22.8301C259.905 23.2693 260.866 23.9131 261.676 24.7247C262.485 25.5363 263.127 26.4998 263.565 27.5602C264.003 28.6207 264.229 29.7572 264.229 30.905V126.117L291 168.983Z" fill="#3F3D56"/>
<path d="M105.63 28.2655C104.877 28.2664 104.155 28.5666 103.623 29.1003C103.091 29.634 102.791 30.3576 102.79 31.1124V117.332C102.791 118.087 103.091 118.811 103.623 119.344C104.155 119.878 104.877 120.178 105.63 120.179H256.928C257.68 120.178 258.402 119.878 258.934 119.344C259.467 118.811 259.766 118.087 259.767 117.332V31.1124C259.766 30.3576 259.467 29.634 258.934 29.1003C258.402 28.5666 257.68 28.2664 256.928 28.2655H105.63Z" fill="white"/>
<path d="M106.264 131.567C106.031 131.567 105.804 131.634 105.608 131.76C105.412 131.886 105.256 132.065 105.158 132.277L97.3216 149.358C97.2363 149.544 97.199 149.749 97.2131 149.953C97.2273 150.157 97.2924 150.354 97.4024 150.526C97.5125 150.699 97.664 150.84 97.8431 150.939C98.0221 151.037 98.2229 151.088 98.427 151.088H263.226C263.434 151.088 263.638 151.035 263.819 150.934C264 150.833 264.152 150.687 264.261 150.51C264.37 150.333 264.432 150.131 264.442 149.923C264.451 149.715 264.407 149.509 264.314 149.323L255.796 132.241C255.696 132.038 255.541 131.867 255.348 131.748C255.156 131.629 254.934 131.566 254.708 131.567H106.264Z" fill="#2F2E41"/>
<path d="M180.67 26.8421C181.678 26.8421 182.496 26.0227 182.496 25.012C182.496 24.0012 181.678 23.1818 180.67 23.1818C179.662 23.1818 178.845 24.0012 178.845 25.012C178.845 26.0227 179.662 26.8421 180.67 26.8421Z" fill="white"/>
<path d="M164.472 154.342C164.204 154.342 163.944 154.431 163.732 154.594C163.52 154.757 163.367 154.986 163.297 155.245L161.331 162.565C161.283 162.746 161.276 162.936 161.312 163.119C161.349 163.303 161.427 163.476 161.54 163.625C161.654 163.773 161.8 163.894 161.968 163.977C162.135 164.06 162.319 164.103 162.506 164.103H199.89C200.084 164.103 200.275 164.056 200.447 163.967C200.62 163.878 200.769 163.749 200.881 163.59C200.994 163.432 201.067 163.249 201.094 163.056C201.122 162.864 201.103 162.667 201.039 162.483L198.512 155.163C198.429 154.923 198.274 154.715 198.068 154.568C197.862 154.421 197.615 154.342 197.362 154.342H164.472Z" fill="#2F2E41"/>
<path d="M264.229 124.043V125.67H96.99L97.1158 125.466V124.043H264.229Z" fill="#2F2E41"/>
<path d="M259.564 56.9377C275.246 56.9377 287.958 44.1918 287.958 28.4689C287.958 12.7459 275.246 0 259.564 0C243.883 0 231.17 12.7459 231.17 28.4689C231.17 44.1918 243.883 56.9377 259.564 56.9377Z" fill="#CDAB35"/>
<path d="M271.327 40.8732H247.801C247.371 40.8727 246.958 40.7012 246.654 40.3962C246.35 40.0912 246.179 39.6777 246.179 39.2464V25.0119C246.179 24.5806 246.35 24.1671 246.654 23.8621C246.958 23.5571 247.371 23.3856 247.801 23.3851H271.327C271.757 23.3856 272.17 23.5571 272.474 23.8621C272.778 24.1671 272.949 24.5806 272.95 25.0119V39.2464C272.949 39.6777 272.778 40.0912 272.474 40.3962C272.17 40.7012 271.757 40.8727 271.327 40.8732ZM247.801 25.0119V39.2464H271.328L271.327 25.0119L247.801 25.0119Z" fill="white"/>
<path d="M266.865 25.0119H252.263V18.5048C252.263 13.7916 255.334 10.3708 259.564 10.3708C263.795 10.3708 266.865 13.7916 266.865 18.5048L266.865 25.0119ZM253.885 23.3851H265.243V18.5048C265.243 14.6735 262.908 11.9976 259.564 11.9976C256.221 11.9976 253.885 14.6735 253.885 18.5048L253.885 23.3851Z" fill="white"/>
<path d="M259.564 33.3492C260.46 33.3492 261.187 32.6209 261.187 31.7224C261.187 30.824 260.46 30.0956 259.564 30.0956C258.668 30.0956 257.942 30.824 257.942 31.7224C257.942 32.6209 258.668 33.3492 259.564 33.3492Z" fill="white"/>
<path d="M239.743 90.9343H122.814C122.24 90.9337 121.69 90.7047 121.284 90.2977C120.878 89.8907 120.65 89.3389 120.649 88.7633V59.6815C120.65 59.1059 120.878 58.5541 121.284 58.1471C121.69 57.7401 122.24 57.5111 122.814 57.5104H239.743C240.317 57.5111 240.867 57.7401 241.273 58.1471C241.679 58.5541 241.908 59.1059 241.908 59.6815V88.7633C241.908 89.3389 241.679 89.8907 241.273 90.2977C240.867 90.7047 240.317 90.9337 239.743 90.9343ZM122.814 58.3789C122.47 58.3793 122.14 58.5166 121.896 58.7608C121.653 59.005 121.516 59.3362 121.515 59.6815V88.7633C121.516 89.1086 121.653 89.4397 121.896 89.684C122.14 89.9282 122.47 90.0655 122.814 90.0659H239.743C240.087 90.0655 240.418 89.9282 240.661 89.684C240.905 89.4397 241.042 89.1086 241.042 88.7633V59.6815C241.042 59.3361 240.905 59.005 240.661 58.7608C240.418 58.5166 240.087 58.3792 239.743 58.3789L122.814 58.3789Z" fill="#E6E6E6"/>
<path d="M140.983 81.9503C145.854 81.9503 149.803 77.9908 149.803 73.1066C149.803 68.2223 145.854 64.2628 140.983 64.2628C136.111 64.2628 132.162 68.2223 132.162 73.1066C132.162 77.9908 136.111 81.9503 140.983 81.9503Z" fill="#E6E6E6"/>
<path d="M161.354 67.2107C161.161 67.2104 160.969 67.2483 160.791 67.3222C160.612 67.3962 160.45 67.5047 160.313 67.6416C160.176 67.7785 160.068 67.9411 159.994 68.1201C159.92 68.299 159.881 68.4909 159.881 68.6847C159.881 68.8784 159.92 69.0703 159.994 69.2493C160.068 69.4282 160.176 69.5908 160.313 69.7277C160.45 69.8646 160.612 69.9732 160.791 70.0471C160.969 70.121 161.161 70.1589 161.354 70.1586H230.657C231.047 70.1586 231.421 70.0033 231.697 69.7269C231.972 69.4505 232.127 69.0756 232.127 68.6847C232.127 68.2937 231.972 67.9188 231.697 67.6424C231.421 67.366 231.047 67.2107 230.657 67.2107H161.354Z" fill="#E6E6E6"/>
<path d="M161.354 76.0544C160.964 76.0544 160.59 76.2097 160.314 76.4862C160.039 76.7626 159.884 77.1375 159.884 77.5284C159.884 77.9193 160.039 78.2942 160.314 78.5707C160.59 78.8471 160.964 79.0024 161.354 79.0024H191.175C191.565 79.0024 191.939 78.8471 192.215 78.5707C192.49 78.2942 192.645 77.9193 192.645 77.5284C192.645 77.1375 192.49 76.7626 192.215 76.4862C191.939 76.2097 191.565 76.0544 191.175 76.0544H161.354Z" fill="#E6E6E6"/>
<path d="M96.7023 76.6507L75.0871 88.1728L74.8135 78.5711C81.8686 77.3902 88.5807 75.3342 94.787 71.9871L97.0477 66.3871C97.294 65.7769 97.6944 65.2414 98.2094 64.8332C98.7245 64.425 99.3366 64.1581 99.9857 64.0588C100.635 63.9594 101.298 64.0309 101.911 64.2664C102.525 64.5019 103.066 64.8932 103.483 65.4018C104.093 66.1461 104.397 67.0949 104.335 68.056C104.274 69.0172 103.85 69.9188 103.149 70.5782L96.7023 76.6507Z" fill="#FFB8B8"/>
<path d="M43.8879 143.175C43.7302 142.595 43.6967 141.988 43.7896 141.394C43.8825 140.801 44.0998 140.233 44.427 139.73L49.1752 132.423C50.2983 130.695 52.0216 129.447 54.0107 128.921C55.9998 128.395 58.1129 128.628 59.94 129.576C57.9445 132.982 58.2227 135.969 60.6292 138.566C56.8934 140.394 53.4406 142.754 50.3778 145.573C49.8186 145.955 49.1765 146.198 48.5049 146.281C47.8333 146.364 47.1516 146.285 46.5166 146.05C45.8817 145.815 45.3118 145.432 44.8546 144.932C44.3973 144.432 44.0659 143.829 43.8879 143.175Z" fill="#2F2E41"/>
<path d="M97.6867 133.622C96.9682 134.822 95.954 135.818 94.7413 136.512C93.5287 137.207 92.1584 137.577 90.7619 137.588L59.2178 137.827L57.8498 129.871L71.8038 125.756L60.0386 116.703L72.8982 101.615L96.2553 123.442C97.6205 124.718 98.5075 126.425 98.768 128.278C99.0286 130.131 98.6469 132.017 97.6867 133.622Z" fill="#2F2E41"/>
<path d="M54.2928 188.03H46.9054C40.2725 142.444 33.5209 96.7307 53.472 79.6684L77.0024 83.5091L73.9927 103.535L60.8595 118.624L54.2928 188.03Z" fill="#2F2E41"/>
<path d="M60.7868 198.357C60.2085 198.515 59.6033 198.548 59.0111 198.455C58.4189 198.362 57.8531 198.144 57.3508 197.816L49.3296 196.735C47.606 195.609 46.361 193.882 45.8361 191.887C45.3112 189.893 45.5439 187.774 46.489 185.942C49.8859 187.943 52.8657 187.664 55.4551 185.251C57.2848 188.955 60.2993 188.729 63.1784 191.85C63.5596 192.41 63.8017 193.054 63.8845 193.727C63.9673 194.401 63.8884 195.084 63.6544 195.721C63.4205 196.357 63.0381 196.929 62.5393 197.387C62.0405 197.846 61.4396 198.178 60.7868 198.357Z" fill="#2F2E41"/>
<path d="M71.8038 49.2174L58.1234 45.9254C60.3955 41.2622 60.5826 36.0735 59.4914 30.5627L68.7941 30.2883C69.0856 37.1412 69.9675 43.5435 71.8038 49.2174Z" fill="#FFB8B8"/>
<path d="M75.5637 91.7691C65.6048 98.5733 58.5682 92.0019 53.1984 81.863C53.9446 75.659 52.7364 68.2346 50.4988 60.1674C49.5036 56.6092 49.8752 52.8062 51.54 49.5093C53.2049 46.2123 56.042 43.661 59.4914 42.359L71.2566 47.297C81.2466 55.4616 83.2129 64.3054 79.4649 73.6331L75.5637 91.7691Z" fill="#CDAB35"/>
<path d="M46.9054 56.0757L35.961 61.8367L55.3873 73.3587L58.0903 80.0438C58.2707 80.49 58.3586 80.9684 58.3486 81.4498C58.3386 81.9311 58.231 82.4054 58.0322 82.8437C57.8334 83.282 57.5477 83.6751 57.1924 83.999C56.8372 84.323 56.4199 84.571 55.9659 84.728C55.4498 84.9064 54.8996 84.9626 54.3583 84.8922C53.817 84.8218 53.2992 84.6267 52.8457 84.3222C52.3921 84.0177 52.015 83.6121 51.7438 83.1371C51.4727 82.6621 51.3149 82.1305 51.2829 81.5842L51.0095 76.925L26.319 68.7556C25.4871 68.4803 24.7286 68.0189 24.1009 67.4062C23.4733 66.7935 22.9929 66.0456 22.6961 65.2192C22.2636 64.0146 22.2416 62.7002 22.6335 61.4817C23.0255 60.2632 23.8092 59.2094 24.8622 58.4851L44.7165 44.828L46.9054 56.0757Z" fill="#FFB8B8"/>
<path d="M57.8498 57.1731C53.2853 55.1674 49.1347 57.3461 43.8957 59.0934L43.0749 44.5537C48.277 41.7737 53.2368 41.0242 57.8498 43.1821L57.8498 57.1731Z" fill="#CDAB35"/>
<path d="M63.3099 37.4904C68.1338 37.4904 72.0444 33.5695 72.0444 28.7328C72.0444 23.8961 68.1338 19.9752 63.3099 19.9752C58.486 19.9752 54.5755 23.8961 54.5755 28.7328C54.5755 33.5695 58.486 37.4904 63.3099 37.4904Z" fill="#FFB8B8"/>
<path d="M73.7591 27.6278C65.1113 28.477 58.5217 27.059 54.3102 23.0213V19.7696H73.0252L73.7591 27.6278Z" fill="#2F2E41"/>
</g>
<defs>
<clipPath id="clip0_2064_4065">
<rect width="291" height="203" fill="white"/>
</clipPath>
</defs>
</svg>
