<svg width="120" height="120" viewBox="0 0 120 120" fill="none" xmlns="http://www.w3.org/2000/svg">
<circle cx="60" cy="60" r="40" fill="#CDAB35" fill-opacity="0.22"/>
<circle cx="60" cy="60" r="59.75" stroke="#CDAB35" stroke-width="0.5" stroke-dasharray="5 5"/>
<circle cx="60" cy="60" r="25" fill="#CDAB35"/>
<g clip-path="url(#clip0_1732_4300)">
<path d="M69.4142 55.5219L58.8612 66.3959C58.6765 66.5873 58.4562 66.7393 58.2131 66.8431C57.97 66.9468 57.7091 67.0003 57.4455 67.0003C57.1819 67.0003 56.9209 66.9468 56.6778 66.8431C56.4348 66.7393 56.2144 66.5873 56.0297 66.3959L50.5867 60.7819C50.2107 60.3927 50 59.8687 50 59.3229C50 58.7771 50.2107 58.2531 50.5867 57.8639C50.7714 57.6727 50.9917 57.5208 51.2346 57.4171C51.4776 57.3134 51.7385 57.26 52.002 57.26C52.2654 57.26 52.5263 57.3134 52.7693 57.4171C53.0123 57.5208 53.2325 57.6727 53.4172 57.8639L57.4455 62.0199L66.5827 52.6039C66.7674 52.4127 66.9876 52.2608 67.2306 52.1571C67.4736 52.0534 67.7345 52 67.9979 52C68.2614 52 68.5223 52.0534 68.7653 52.1571C69.0082 52.2608 69.2285 52.4127 69.4132 52.6039C69.7891 52.9931 69.9998 53.5169 70 54.0627C70.0002 54.6084 69.7898 55.1324 69.4142 55.5219Z" fill="white"/>
</g>
<circle cx="60" cy="60" r="40" fill="#CDAB35" fill-opacity="0.22"/>
<defs>
<clipPath id="clip0_1732_4300">
<rect width="24" height="24" fill="white" transform="translate(48 48)"/>
</clipPath>
</defs>
</svg>
