<svg width="24" height="24" viewBox="0 0 24 24" fill="none" xmlns="http://www.w3.org/2000/svg">
<path fill-rule="evenodd" clip-rule="evenodd" d="M12.042 3.74998C11.252 3.74569 10.469 3.89767 9.73807 4.19718C9.00685 4.49679 8.34214 4.93811 7.78222 5.49571C7.22229 6.05331 6.77821 6.71618 6.47557 7.44614C6.17292 8.1761 6.01768 8.95873 6.01879 9.74894L6.01879 9.75L6.01879 10.5C6.01879 13.9617 5.29296 16.0466 4.59644 17.25H19.4037C18.7071 16.0466 17.9813 13.9617 17.9813 10.5V9.83437C17.9813 6.51112 15.3287 3.77528 12.042 3.74998ZM9.16934 2.80918C10.0836 2.43455 11.063 2.24451 12.0511 2.25001L12.0526 2.25002C16.1906 2.28137 19.4813 5.71412 19.4813 9.83437V10.5C19.4813 13.75 20.1614 15.565 20.7022 16.4992L20.7027 16.5C20.8341 16.7276 20.9034 16.9858 20.9036 17.2487C20.9039 17.5115 20.835 17.7698 20.704 17.9977C20.573 18.2256 20.3844 18.415 20.1571 18.5471C19.9298 18.6791 19.6718 18.7491 19.4089 18.75L19.4063 18.75H4.59379L4.59115 18.75C4.3283 18.7491 4.0703 18.6791 3.843 18.5471C3.61571 18.415 3.4271 18.2256 3.29608 17.9977C3.16505 17.7698 3.0962 17.5115 3.09644 17.2487C3.09667 16.9858 3.16597 16.7276 3.2974 16.5L3.29785 16.4992C3.83869 15.565 4.51879 13.75 4.51879 10.5V9.7505" fill="black"/>
<path fill-rule="evenodd" clip-rule="evenodd" d="M9 17.25C9.41421 17.25 9.75 17.5858 9.75 18V18.75C9.75 19.3467 9.98705 19.919 10.409 20.341C10.831 20.7629 11.4033 21 12 21C12.5967 21 13.169 20.7629 13.591 20.341C14.0129 19.919 14.25 19.3467 14.25 18.75V18C14.25 17.5858 14.5858 17.25 15 17.25C15.4142 17.25 15.75 17.5858 15.75 18V18.75C15.75 19.7446 15.3549 20.6984 14.6516 21.4016C13.9484 22.1049 12.9946 22.5 12 22.5C11.0054 22.5 10.0516 22.1049 9.34835 21.4016C8.64509 20.6984 8.25 19.7446 8.25 18.75V18C8.25 17.5858 8.58579 17.25 9 17.25Z" fill="black"/>
</svg>
