<svg width="20" height="20" viewBox="0 0 20 20" fill="none" xmlns="http://www.w3.org/2000/svg">
<path d="M0.244453 18.6065L3.68184 15.2458V15.2458L3.76241 15.1233C3.91221 14.9742 4.11704 14.8902 4.33083 14.8902C4.54463 14.8902 4.74945 14.9742 4.89926 15.1233V15.1233C7.82052 17.8033 12.3219 17.949 15.418 15.4637C18.5141 12.9784 19.2443 8.63337 17.1243 5.31017C15.0043 1.98697 10.6919 0.716847 7.04715 2.34214C3.40237 3.96743 1.55619 7.98379 2.73298 11.7276C2.81773 11.9981 2.74846 12.2922 2.55126 12.4992C2.35406 12.7062 2.0589 12.7946 1.77695 12.7311C1.49501 12.6676 1.26911 12.4619 1.18436 12.1914V12.1914C-0.222394 7.74864 1.90226 2.96755 6.18388 0.941058C10.4655 -1.08544 15.6192 0.250824 18.3109 4.08542C21.0027 7.92001 20.4248 13.1021 16.9511 16.2795C13.4773 19.4569 8.15022 19.6759 4.41587 16.7949L1.37235 19.7705C1.05801 20.0765 0.549834 20.0765 0.2355 19.7705C-0.078501 19.4602 -0.078501 18.9606 0.2355 18.6503V18.6503L0.244453 18.6065Z" fill="#717171"/>
</svg>
