<svg width="20" height="20" viewBox="0 0 20 20" fill="none" xmlns="http://www.w3.org/2000/svg">
<path d="M19.9872 13.7773C19.9277 13.3692 19.6667 13.0201 19.2916 12.8589L14.4674 10.8134L12.4273 9.94863C13.3185 9.45003 14.0419 8.68 14.5156 7.75244C14.9104 6.97924 15.1147 6.13994 15.1148 5.29083C15.1148 4.79051 15.0255 4.31589 14.9009 3.85724C14.294 1.63622 12.3422 0 9.99968 0C7.91433 0 6.14271 1.30059 5.34986 3.15286C5.26667 3.34373 5.19486 3.53836 5.13471 3.73594C5.02328 4.10697 4.93786 4.48941 4.9019 4.88755C4.89002 5.02026 4.88359 5.15469 4.88359 5.29083C4.88359 5.40927 4.88745 5.52657 4.89515 5.64302C4.94526 6.42326 5.1697 7.18682 5.55538 7.88915C6.04444 8.7799 6.76921 9.51453 7.65133 9.98687L5.69763 10.7954L0.717062 12.8569C0.39241 12.9922 0.15157 13.2699 0.0510595 13.6047C0.0169908 13.7191 -0.00017286 13.837 1.31233e-06 13.9554V18.8196C1.31233e-06 19.4714 0.510903 20 1.14223 20H18.8578C19.4888 20 20 19.4714 20 18.8196V13.9554C20 13.8952 19.9958 13.8356 19.9872 13.7773Z" fill="black"/>
</svg>
