<svg width="269" height="250" viewBox="0 0 269 250" fill="none" xmlns="http://www.w3.org/2000/svg">
<path opacity="0.9" d="M23.1699 30.6832C42.4981 -12.0926 110.993 -5.99407 137.402 24.1167C163.812 54.2275 172.384 73.5257 196.238 62.3174C220.092 51.1091 250.498 54.1298 252.215 89.8337C253.932 125.538 225.933 167.73 181.598 180.18C137.263 192.63 137.218 236.834 78.5372 227.864C46.5438 222.978 45.8427 186.908 50.3873 157.083C54.9319 127.258 0.76107 80.2872 23.1699 30.6832Z" fill="#CDAB35" fill-opacity="0.12"/>
<path d="M133.967 249.14C207.955 249.204 267.937 245.608 267.941 241.107C267.945 236.607 207.969 232.907 133.981 232.843C59.9932 232.779 0.0108937 236.375 0.00699614 240.875C0.00309855 245.375 59.979 249.076 133.967 249.14Z" fill="#F5F5F5"/>
<path d="M183.852 51.4232L60.2352 51.3161C57.4419 51.3137 55.1755 53.6708 55.173 56.5807L55.0416 208.215C55.0391 211.125 57.3015 213.486 60.0948 213.488L183.712 213.595C186.505 213.598 188.771 211.241 188.774 208.331L188.905 56.6966C188.908 53.7866 186.645 51.4256 183.852 51.4232Z" fill="#CDAB35"/>
<path opacity="0.6" d="M183.852 51.4232L60.2352 51.3161C57.4419 51.3137 55.1755 53.6708 55.173 56.5807L55.0416 208.215C55.0391 211.125 57.3015 213.486 60.0948 213.488L183.712 213.595C186.505 213.598 188.771 211.241 188.774 208.331L188.905 56.6966C188.908 53.7866 186.645 51.4256 183.852 51.4232Z" fill="white"/>
<path d="M167.184 125.786L76.7811 125.708L76.7672 141.832L167.17 141.91L167.184 125.786Z" fill="white"/>
<path d="M167.165 147.812L76.7621 147.734L76.7481 163.858L167.151 163.936L167.165 147.812Z" fill="white"/>
<path opacity="0.2" d="M167.137 180.384L76.7338 180.305L76.7199 196.429L167.123 196.507L167.137 180.384Z" fill="black"/>
<path d="M167.138 179.397L76.7347 179.319L76.7207 195.443L167.124 195.521L167.138 179.397Z" fill="#CDAB35"/>
<path d="M167.203 103.753L76.8002 103.675L76.7862 119.798L167.189 119.877L167.203 103.753Z" fill="white"/>
<path d="M167.222 81.727L76.8193 81.6487L76.8053 97.7724L167.208 97.8507L167.222 81.727Z" fill="white"/>
<path d="M42.6854 218.627L42.029 218.626C42.0299 217.612 42.8589 193.83 46.8353 189.838C50.9224 185.703 55.7209 189.788 55.7623 189.846L55.3473 190.364C55.1678 190.213 50.9492 186.639 47.284 190.357C43.5013 194.104 42.6925 218.382 42.6854 218.627Z" fill="#CDAB35"/>
<path d="M42.3497 223.399L41.7002 223.334C41.7005 223.046 44.2956 194.458 34.3632 182.558L34.8541 182.112C44.9729 194.235 42.3776 223.111 42.3497 223.399Z" fill="#CDAB35"/>
<path d="M42.6701 220.347C42.5884 218.994 40.702 187.235 48.3502 179.899L48.7919 180.403C41.3719 187.494 43.2992 219.988 43.3196 220.298L42.6701 220.347Z" fill="#CDAB35"/>
<path d="M41.7028 220.325C41.703 220.109 41.4866 198.731 36.0516 195.508C35.5896 195.19 35.061 194.993 34.5103 194.932C33.9596 194.872 33.403 194.95 32.8874 195.16C29.701 196.532 28.0027 202.865 27.9819 202.93L27.3533 202.749C27.4226 202.476 29.1556 196.035 32.6392 194.534C33.2461 194.28 33.9026 194.183 34.5532 194.25C35.2038 194.317 35.8294 194.546 36.3769 194.918C42.1295 198.357 42.3531 219.397 42.3592 220.318L41.7028 220.325Z" fill="#CDAB35"/>
<path d="M43.9415 220.341C43.9007 219.621 43.0786 203.468 47.4851 197.476C48.6611 195.886 49.9607 195.132 51.3702 195.241C54.4999 195.467 56.8937 199.888 57.0248 200.076L56.4579 200.414C56.458 200.37 54.0986 196.093 51.3212 195.918C50.1536 195.823 49.0337 196.491 48.003 197.894C43.7418 203.649 44.5842 220.14 44.591 220.306L43.9415 220.341Z" fill="#CDAB35"/>
<path d="M43.062 222.579L42.4126 222.528C42.4129 222.14 45.2101 183.575 40.6554 177.136L41.1809 176.733C45.8874 183.374 43.1809 220.981 43.062 222.579Z" fill="#CDAB35"/>
<path d="M31.3716 198.369C31.3716 198.369 34.1897 199.459 33.3514 202.013C32.5132 204.568 23.5826 208.771 23.5826 208.771C23.5826 208.771 19.8476 205.205 23.2866 199.413C26.7257 193.622 31.2972 196.541 31.3716 198.369Z" fill="#CDAB35"/>
<path opacity="0.2" d="M31.3716 198.369C31.3716 198.369 34.1897 199.459 33.3514 202.013C32.5132 204.568 23.5826 208.771 23.5826 208.771C23.5826 208.771 19.8476 205.205 23.2866 199.413C26.7257 193.622 31.2972 196.541 31.3716 198.369Z" fill="black"/>
<path d="M43.6399 193.514C43.6399 193.514 40.6344 193.382 40.4593 196.074C40.2843 198.766 46.9454 206.243 46.9454 206.243C46.9454 206.243 51.7145 204.448 50.6977 197.716C49.6809 190.985 44.3876 191.852 43.6399 193.514Z" fill="#CDAB35"/>
<path opacity="0.2" d="M43.6399 193.514C43.6399 193.514 40.6344 193.382 40.4593 196.074C40.2843 198.766 46.9454 206.243 46.9454 206.243C46.9454 206.243 51.7145 204.448 50.6977 197.716C49.6809 190.985 44.3876 191.852 43.6399 193.514Z" fill="black"/>
<path d="M46.1939 180.603C46.1939 180.603 44.1903 180.378 44.3504 179.111C44.5104 177.844 52.1412 174.576 56.6347 179.842C56.6347 179.842 53.749 184.993 49.5895 185.061C45.4299 185.13 46.1939 180.603 46.1939 180.603Z" fill="#CDAB35"/>
<path opacity="0.2" d="M46.1939 180.603C46.1939 180.603 44.1903 180.378 44.3504 179.111C44.5104 177.844 52.1412 174.576 56.6347 179.842C56.6347 179.842 53.749 184.993 49.5895 185.061C45.4299 185.13 46.1939 180.603 46.1939 180.603Z" fill="black"/>
<path d="M42.4655 177.512C42.4655 177.512 44.2749 178.427 44.7873 177.262C45.2996 176.096 40.4897 169.117 33.9862 171.12C33.9862 171.12 33.8083 177.08 37.3024 179.436C40.7966 181.793 42.4655 177.512 42.4655 177.512Z" fill="#CDAB35"/>
<path opacity="0.2" d="M42.4655 177.512C42.4655 177.512 44.2749 178.427 44.7873 177.262C45.2996 176.096 40.4897 169.117 33.9862 171.12C33.9862 171.12 33.8083 177.08 37.3024 179.436C40.7966 181.793 42.4655 177.512 42.4655 177.512Z" fill="black"/>
<path d="M51.9279 197.365C51.9279 197.365 50.547 196.198 52.04 195.63C53.5329 195.063 60.8499 195.235 60.9193 202.786C60.9193 202.786 52.3918 204.254 51.3441 201.374C50.2963 198.494 51.9279 197.365 51.9279 197.365Z" fill="#CDAB35"/>
<path opacity="0.2" d="M51.9279 197.365C51.9279 197.365 50.547 196.198 52.04 195.63C53.5329 195.063 60.8499 195.235 60.9193 202.786C60.9193 202.786 52.3918 204.254 51.3441 201.374C50.2963 198.494 51.9279 197.365 51.9279 197.365Z" fill="black"/>
<path d="M34.5308 180.406C34.5308 180.406 35.9137 179.241 34.4218 178.678C32.9298 178.115 25.6126 178.26 25.5301 185.811C25.5301 185.811 34.055 187.301 35.1077 184.423C36.1605 181.544 34.5308 180.406 34.5308 180.406Z" fill="#CDAB35"/>
<path opacity="0.2" d="M34.5308 180.406C34.5308 180.406 35.9137 179.241 34.4218 178.678C32.9298 178.115 25.6126 178.26 25.5301 185.811C25.5301 185.811 34.055 187.301 35.1077 184.423C36.1605 181.544 34.5308 180.406 34.5308 180.406Z" fill="black"/>
<path d="M39.0582 186.492C39.0582 186.492 39.1838 185.052 38.0847 185.634C36.9856 186.217 33.1748 190.474 37.1235 194.545C37.1235 194.545 42.4542 190.439 41.4956 188.301C40.5371 186.162 39.0582 186.492 39.0582 186.492Z" fill="#CDAB35"/>
<path opacity="0.2" d="M39.0582 186.492C39.0582 186.492 39.1838 185.052 38.0847 185.634C36.9856 186.217 33.1748 190.474 37.1235 194.545C37.1235 194.545 42.4542 190.439 41.4956 188.301C40.5371 186.162 39.0582 186.492 39.0582 186.492Z" fill="black"/>
<path d="M53.1793 188.52C53.1793 188.52 52.3511 187.389 53.5673 187.253C54.7835 187.117 60.1992 188.626 58.9299 194.269C58.9299 194.269 52.3249 193.745 52.0229 191.383C51.721 189.022 53.1793 188.52 53.1793 188.52Z" fill="#CDAB35"/>
<path opacity="0.2" d="M53.1793 188.52C53.1793 188.52 52.3511 187.389 53.5673 187.253C54.7835 187.117 60.1992 188.626 58.9299 194.269C58.9299 194.269 52.3249 193.745 52.0229 191.383C51.721 189.022 53.1793 188.52 53.1793 188.52Z" fill="black"/>
<path d="M31.8249 241.248L53.182 241.267L56.0405 219.632L29.0039 219.609L31.8249 241.248Z" fill="#263238"/>
<path opacity="0.2" d="M31.8249 241.248L53.182 241.267L56.0405 219.632L29.0039 219.609L31.8249 241.248Z" fill="white"/>
<path d="M58.7229 217.878L58.7211 219.937C58.7205 220.597 58.4681 221.23 58.0194 221.697C57.5706 222.164 56.9623 222.426 56.3283 222.425L28.4487 222.401C27.8147 222.4 27.2068 222.137 26.7589 221.67C26.311 221.203 26.0596 220.569 26.0602 219.908L26.062 217.85L58.7229 217.878Z" fill="#263238"/>
<path d="M236.86 12.9523L217.009 12.9351C215.389 12.9337 213.835 13.6028 212.688 14.7951C211.542 15.9874 210.897 17.6053 210.895 19.2929L210.88 37.2881C210.878 38.1243 211.035 38.9526 211.341 39.7257C211.647 40.4988 212.096 41.2015 212.663 41.7936C213.229 42.3858 213.903 42.8557 214.644 43.1766C215.385 43.4974 216.18 43.6629 216.982 43.6636L222.779 43.6687L221.393 49.3467L226.925 43.6722L236.868 43.6809C238.489 43.6823 240.045 43.0125 241.193 41.8188C242.341 40.6251 242.987 39.0054 242.988 37.3159L243.004 19.3207C243.004 18.4815 242.846 17.6504 242.537 16.8753C242.228 16.1002 241.775 15.3964 241.204 14.8044C240.633 14.2125 239.955 13.7441 239.209 13.4263C238.464 13.1084 237.665 12.9473 236.86 12.9523Z" fill="#CDAB35"/>
<path opacity="0.7" d="M236.86 12.9523L217.009 12.9351C215.389 12.9337 213.835 13.6028 212.688 14.7951C211.542 15.9874 210.897 17.6053 210.895 19.2929L210.88 37.2881C210.878 38.1243 211.035 38.9526 211.341 39.7257C211.647 40.4988 212.096 41.2015 212.663 41.7936C213.229 42.3858 213.903 42.8557 214.644 43.1766C215.385 43.4974 216.18 43.6629 216.982 43.6636L222.779 43.6687L221.393 49.3467L226.925 43.6722L236.868 43.6809C238.489 43.6823 240.045 43.0125 241.193 41.8188C242.341 40.6251 242.987 39.0054 242.988 37.3159L243.004 19.3207C243.004 18.4815 242.846 17.6504 242.537 16.8753C242.228 16.1002 241.775 15.3964 241.204 14.8044C240.633 14.2125 239.955 13.7441 239.209 13.4263C238.464 13.1084 237.665 12.9473 236.86 12.9523Z" fill="white"/>
<path d="M226.918 36.2582C231.172 36.2619 234.625 32.6716 234.629 28.2391C234.632 23.8065 231.186 20.2102 226.931 20.2066C222.677 20.2029 219.224 23.7932 219.22 28.2257C219.217 32.6583 222.663 36.2545 226.918 36.2582Z" fill="white"/>
<path d="M226.933 17.968C224.985 17.9663 223.079 18.5666 221.458 19.6931C219.837 20.8196 218.572 22.4216 217.825 24.2965C217.078 26.1714 216.881 28.2351 217.259 30.2265C217.638 32.218 218.574 34.0477 219.951 35.4844C221.328 36.9211 223.083 37.9002 224.994 38.2979C226.904 38.6957 228.886 38.4941 230.687 37.7188C232.488 36.9434 234.028 35.6292 235.112 33.9421C236.196 32.2551 236.776 30.2711 236.777 28.2409C236.779 26.8927 236.526 25.5573 236.033 24.3111C235.539 23.065 234.814 21.9324 233.9 20.9783C232.986 20.0242 231.9 19.2672 230.704 18.7507C229.509 18.2341 228.228 17.9682 226.933 17.968ZM232.517 25.1709L226.575 32.4502C226.491 32.5554 226.385 32.6396 226.266 32.6968C226.146 32.754 226.016 32.7826 225.884 32.7807C225.753 32.7814 225.623 32.7521 225.503 32.6947C225.384 32.6374 225.278 32.5535 225.193 32.449L221.335 27.7021C221.254 27.6082 221.191 27.4982 221.151 27.3787C221.111 27.2591 221.095 27.1323 221.103 27.006C221.111 26.8797 221.144 26.7564 221.199 26.6435C221.254 26.5306 221.33 26.4303 221.423 26.3487C221.516 26.267 221.623 26.2057 221.74 26.1684C221.856 26.1311 221.978 26.1185 222.099 26.1314C222.22 26.1443 222.337 26.1824 222.443 26.2434C222.55 26.3045 222.643 26.3873 222.718 26.4868L225.886 30.3837L231.136 23.9532C231.294 23.7723 231.513 23.6622 231.747 23.6462C231.981 23.6301 232.212 23.7094 232.391 23.8673C232.57 24.0252 232.683 24.2494 232.707 24.4926C232.73 24.7358 232.662 24.9789 232.517 25.1709Z" fill="#CDAB35"/>
<path d="M233.323 123.979C233.323 123.979 221.295 122.385 203.063 127.552C203.063 127.552 200.163 93.618 200.513 88.954C200.862 84.29 228.658 85.6817 228.658 85.6817C228.658 85.6817 229.337 99.265 231.14 107.458C232.943 115.651 234.264 122.404 233.323 123.979Z" fill="#CDAB35"/>
<path opacity="0.2" d="M233.323 123.979C233.323 123.979 221.295 122.385 203.063 127.552C203.063 127.552 200.163 93.618 200.513 88.954C200.862 84.29 228.658 85.6817 228.658 85.6817C228.658 85.6817 229.337 99.265 231.14 107.458C232.943 115.651 234.264 122.404 233.323 123.979Z" fill="black"/>
<path d="M194.18 236.278L199.085 237.73L200.259 229.777L200.892 225.523L195.987 224.072L195.146 229.772L194.18 236.278Z" fill="#E4897B"/>
<path d="M222.384 236.72L227.441 237.423L227.496 229.8L227.535 225.064L222.471 224.369L222.432 229.796L222.384 236.72Z" fill="#E4897B"/>
<path opacity="0.2" d="M222.471 224.368L222.432 229.796L227.496 229.8L227.535 225.064L222.471 224.368Z" fill="black"/>
<path opacity="0.2" d="M195.146 229.772L200.259 229.777L200.892 225.523L195.987 224.072L195.146 229.772Z" fill="black"/>
<path d="M172.527 91.7153L167.657 90.2139L168.543 96.0091C168.543 96.0091 172.964 97.0711 173.381 94.6745L172.527 91.7153Z" fill="#E4897B"/>
<path d="M162.792 91.5558L165.178 96.2654L168.543 96.0091L167.657 90.2139L162.792 91.5558Z" fill="#E4897B"/>
<path d="M179.249 93.204L171.249 91.3328L170.52 95.3774L177.78 97.2264L179.249 93.204Z" fill="#E4897B"/>
<path d="M203.455 89.5683L202.985 90.1509C201.975 91.3809 199.527 94.3516 196.975 96.9119C194.9 98.9975 192.826 100.817 191.444 101.183C187.525 102.23 173.289 97.8487 173.289 97.8487L174.765 91.8324C174.765 91.8324 188.03 93.6794 189.06 93.6803C189.84 93.681 197.921 81.5089 199.877 80.51L203.455 89.5683Z" fill="#CDAB35"/>
<path opacity="0.2" d="M202.985 90.151C201.975 91.381 199.527 94.3516 196.975 96.9119C197.49 92.6943 198.979 88.823 200.936 86.3774C201.119 86.1413 201.328 85.9289 201.559 85.7445L202.985 90.151Z" fill="black"/>
<path d="M194.243 235.479L199.812 235.333C199.913 235.33 200.011 235.362 200.091 235.425C200.172 235.488 200.229 235.578 200.254 235.679L201.425 240.352C201.453 240.463 201.456 240.58 201.435 240.694C201.413 240.807 201.368 240.914 201.301 241.007C201.235 241.099 201.149 241.175 201.051 241.229C200.953 241.282 200.844 241.312 200.733 241.316C198.722 241.314 195.813 241.311 193.291 241.359C190.334 241.443 188.455 241.29 185 241.352C182.927 241.408 182.238 239.234 183.123 239.011C187.083 237.993 189.674 238.196 193.047 235.896C193.403 235.649 193.816 235.505 194.243 235.479Z" fill="#263238"/>
<path d="M193.759 236.228C192.943 236.414 191.492 236.665 190.912 236.168C190.828 236.095 190.761 236.002 190.718 235.896C190.675 235.791 190.656 235.677 190.664 235.563C190.664 235.494 190.681 235.427 190.714 235.367C190.747 235.308 190.794 235.259 190.851 235.225C191.466 234.844 193.545 235.875 193.787 235.99C193.808 236.002 193.825 236.02 193.838 236.041C193.85 236.063 193.856 236.087 193.856 236.113C193.854 236.14 193.844 236.167 193.827 236.188C193.809 236.209 193.785 236.223 193.759 236.228ZM190.996 235.426L190.954 235.426C190.931 235.44 190.912 235.46 190.899 235.484C190.885 235.508 190.878 235.535 190.878 235.563C190.872 235.637 190.884 235.712 190.911 235.781C190.939 235.85 190.982 235.911 191.037 235.959C191.361 236.24 192.204 236.269 193.324 236.04C192.516 235.687 191.39 235.275 191.01 235.426L190.996 235.426Z" fill="#CDAB35"/>
<path d="M193.759 236.228L193.676 236.228C193.047 235.953 191.791 234.844 191.86 234.247C191.861 234.103 191.971 233.923 192.303 233.88C192.425 233.863 192.549 233.872 192.667 233.906C192.786 233.939 192.897 233.996 192.994 234.075C193.684 234.615 193.842 236.033 193.856 236.091C193.858 236.113 193.854 236.135 193.846 236.155C193.837 236.175 193.824 236.193 193.807 236.206L193.759 236.228ZM192.213 234.16C192.109 234.196 192.102 234.254 192.102 234.276C192.061 234.635 192.917 235.514 193.559 235.889C193.485 235.284 193.229 234.72 192.828 234.276C192.76 234.216 192.68 234.173 192.594 234.148C192.508 234.123 192.418 234.117 192.33 234.132C192.29 234.135 192.251 234.145 192.213 234.16Z" fill="#CDAB35"/>
<path d="M222.586 235.504L228.155 235.358C228.256 235.354 228.356 235.386 228.437 235.449C228.519 235.512 228.577 235.602 228.604 235.704L229.767 240.376C229.797 240.488 229.801 240.606 229.78 240.72C229.759 240.834 229.714 240.941 229.647 241.034C229.581 241.127 229.494 241.203 229.395 241.256C229.296 241.309 229.187 241.338 229.075 241.34C227.065 241.338 224.156 241.336 221.627 241.384C218.677 241.468 216.79 241.315 213.336 241.377C211.263 241.433 210.574 239.258 211.458 239.036C215.418 238.017 218.002 238.221 221.376 235.92C221.736 235.671 222.154 235.527 222.586 235.504Z" fill="#263238"/>
<path d="M222.108 236.252C221.293 236.439 219.835 236.689 219.262 236.192C219.177 236.119 219.11 236.026 219.067 235.921C219.024 235.816 219.006 235.701 219.013 235.587C219.013 235.519 219.03 235.451 219.063 235.392C219.096 235.333 219.143 235.283 219.2 235.249C219.809 234.868 221.894 235.899 222.129 236.015C222.152 236.024 222.171 236.041 222.184 236.064C222.196 236.086 222.201 236.112 222.198 236.137C222.196 236.164 222.187 236.189 222.171 236.209C222.155 236.23 222.133 236.245 222.108 236.252ZM219.345 235.451L219.304 235.451C219.281 235.464 219.262 235.484 219.25 235.509C219.238 235.533 219.232 235.56 219.235 235.588C219.228 235.662 219.238 235.737 219.266 235.806C219.294 235.875 219.337 235.936 219.393 235.984C219.718 236.265 220.554 236.294 221.68 236.065C220.858 235.711 219.732 235.3 219.352 235.451L219.345 235.451Z" fill="#CDAB35"/>
<path d="M222.108 236.252L222.018 236.252C221.397 235.978 220.133 234.868 220.21 234.271C220.21 234.127 220.314 233.947 220.645 233.904C220.767 233.887 220.891 233.895 221.01 233.929C221.128 233.962 221.239 234.02 221.336 234.099C221.819 234.661 222.121 235.366 222.198 236.115C222.202 236.137 222.199 236.16 222.19 236.181C222.182 236.201 222.168 236.218 222.15 236.231L222.108 236.252ZM220.555 234.185C220.459 234.221 220.452 234.278 220.452 234.3C220.403 234.66 221.266 235.539 221.908 235.914C221.83 235.31 221.574 234.747 221.177 234.301C221.109 234.241 221.029 234.198 220.943 234.173C220.858 234.148 220.768 234.142 220.68 234.156L220.555 234.185Z" fill="#CDAB35"/>
<path d="M232.918 120.884C235.588 132.986 230.904 228.176 230.904 228.176L222.019 228.169L218.287 148.836L204.227 228.153L194.727 227.425C200.999 165.974 206.51 129.29 206.51 129.29L206.514 124.654L232.918 120.884Z" fill="#263238"/>
<path opacity="0.4" d="M194.727 227.425L204.227 228.153L215.294 165.712L218.287 148.836L222.019 228.169L230.904 228.176C230.904 228.176 235.588 132.986 232.918 120.884L206.5 124.654L206.496 129.29C206.496 129.29 200.992 165.974 194.727 227.425Z" fill="white"/>
<path d="M228.168 76.0645C227.891 81.8496 228.027 87.6482 228.575 93.4122C228.944 97.4435 229.452 101.252 229.995 104.686C231.267 112.741 232.712 118.782 232.918 120.891L206.5 124.661C196.892 96.5807 200.534 80.2731 200.534 80.2731C202.51 79.4252 204.534 78.7058 206.595 78.1189C207.031 77.9969 207.473 77.8821 207.929 77.7745C211.64 77.0172 215.389 76.4821 219.158 76.1719C219.849 76.1077 220.603 76.058 221.307 76.0226C224.914 75.8386 228.168 76.0645 228.168 76.0645Z" fill="#263238"/>
<path d="M214.043 63.4197C214.233 67.2708 214.62 74.498 217.693 76.3362C217.693 76.3362 215.776 80.1279 211.637 80.513C208.507 80.7982 208.717 77.5809 208.717 77.5809C210.529 76.1788 210.102 73.7959 208.723 71.1026L214.043 63.4197Z" fill="#E4897B"/>
<path opacity="0.2" d="M211.87 66.5561L208.743 71.1026C209.072 71.725 209.348 72.3754 209.571 73.0468C211.022 72.4434 212.689 70.1702 212.449 68.5217C212.374 67.835 212.178 67.1686 211.87 66.5561Z" fill="black"/>
<path d="M200.576 55.6558C199.973 57.6563 200.301 61.7595 202.976 60.4302C205.651 59.1009 201.615 52.2232 200.576 55.6558Z" fill="#263238"/>
<path d="M214.392 58.3742C214.685 63.5066 215.076 66.4942 212.925 69.4003C209.653 73.7667 203.325 72.1345 201.561 67.1807C199.976 62.7165 199.768 55.072 204.337 52.4846C205.35 51.9117 206.486 51.6158 207.639 51.6247C208.791 51.6335 209.922 51.9468 210.927 52.5352C211.932 53.1236 212.776 53.9679 213.383 54.9891C213.989 56.0103 214.336 57.175 214.392 58.3742Z" fill="#E4897B"/>
<path d="M210.94 55.5784L210.945 49.8199C210.945 49.8199 216.805 49.3715 216.539 52.4953C219.785 54.1752 218.247 59.4357 213.885 62.0088C211.496 60.0129 211.777 55.2192 211.777 55.2192C211.521 55.3557 211.23 55.4706 210.94 55.5784Z" fill="#263238"/>
<path d="M216.773 62.3783C216.659 63.006 216.426 63.6038 216.088 64.1363C215.749 64.6688 215.312 65.1253 214.801 65.479C213.418 66.4207 212.224 65.2608 212.177 63.6412C212.137 62.2015 212.795 59.9275 214.384 59.641C214.732 59.5848 215.088 59.6193 215.419 59.7414C215.751 59.8635 216.049 60.0694 216.285 60.3406C216.522 60.6118 216.69 60.9399 216.775 61.2955C216.86 61.6511 216.859 62.0231 216.773 62.3783Z" fill="#E4897B"/>
<path d="M207.115 60.6569C207.163 61.0744 206.99 61.4342 206.727 61.4627C206.465 61.4913 206.216 61.1816 206.168 60.7424C206.12 60.3033 206.293 59.9652 206.549 59.9366C206.805 59.908 207.067 60.2106 207.115 60.6569Z" fill="#263238"/>
<path d="M202.596 61.1784C202.644 61.596 202.471 61.9557 202.208 61.9843C201.945 62.0128 201.697 61.7031 201.649 61.264C201.601 60.8249 201.774 60.4867 202.037 60.4581C202.299 60.4296 202.534 60.7609 202.596 61.1784Z" fill="#263238"/>
<path d="M204.053 61.2158C203.703 62.5026 203.184 63.7327 202.509 64.871C202.807 65.0308 203.134 65.1232 203.469 65.1421C203.804 65.161 204.138 65.106 204.451 64.9807L204.053 61.2158Z" fill="#DE5753"/>
<path d="M206.778 66.3215C206.608 66.3666 206.435 66.4001 206.26 66.4218C206.229 66.4218 206.199 66.4089 206.177 66.3859C206.155 66.3629 206.143 66.3318 206.143 66.2993C206.143 66.2669 206.155 66.2358 206.177 66.2128C206.199 66.1899 206.229 66.177 206.26 66.1771C206.756 66.1306 207.235 65.9632 207.658 65.6885C208.081 65.4138 208.435 65.0394 208.694 64.5956C208.7 64.581 208.708 64.5679 208.719 64.5571C208.73 64.5462 208.743 64.5378 208.758 64.5324C208.772 64.527 208.787 64.5248 208.802 64.5257C208.817 64.5267 208.832 64.5309 208.846 64.5381C208.86 64.5451 208.873 64.5549 208.883 64.567C208.894 64.5792 208.902 64.5934 208.907 64.6088C208.912 64.6243 208.914 64.6406 208.913 64.6569C208.912 64.6732 208.908 64.6891 208.901 64.7037C208.675 65.1124 208.369 65.4673 208.003 65.7459C207.638 66.0245 207.221 66.2205 206.778 66.3215Z" fill="#263238"/>
<path d="M208.332 58.9808C208.291 58.9908 208.247 58.9895 208.206 58.9769C208.165 58.9642 208.127 58.9407 208.097 58.9086C207.898 58.68 207.649 58.503 207.372 58.3916C207.095 58.2801 206.797 58.2373 206.502 58.2666C206.471 58.2739 206.44 58.2745 206.409 58.2686C206.378 58.2626 206.349 58.2501 206.323 58.2318C206.297 58.2136 206.275 58.1899 206.259 58.1625C206.242 58.135 206.231 58.1042 206.226 58.072C206.22 58.0403 206.22 58.0077 206.226 57.976C206.232 57.9444 206.244 57.9143 206.262 57.8876C206.279 57.8608 206.301 57.8379 206.327 57.8202C206.353 57.8025 206.382 57.7902 206.413 57.7842C206.786 57.7383 207.164 57.7856 207.516 57.9224C207.868 58.0591 208.183 58.2813 208.436 58.5706C208.459 58.5928 208.477 58.6196 208.489 58.6493C208.501 58.679 208.508 58.711 208.508 58.7434C208.508 58.7757 208.501 58.8077 208.489 58.8374C208.477 58.8671 208.459 58.8939 208.436 58.9161C208.406 58.9453 208.371 58.9674 208.332 58.9808Z" fill="#263238"/>
<path d="M200.462 59.7873C200.417 59.805 200.368 59.805 200.324 59.7872C200.265 59.7659 200.217 59.7214 200.19 59.6634C200.163 59.6055 200.159 59.5387 200.179 59.4776C200.293 59.1072 200.492 58.7711 200.758 58.4981C201.024 58.2251 201.35 58.0232 201.707 57.9097C201.768 57.8935 201.832 57.9031 201.886 57.9362C201.939 57.9693 201.978 58.0233 201.994 58.0863C202.009 58.1493 202 58.2162 201.968 58.2722C201.937 58.3282 201.885 58.3687 201.824 58.3849C201.542 58.4754 201.285 58.6368 201.076 58.855C200.867 59.0732 200.713 59.3416 200.628 59.6363C200.615 59.6741 200.593 59.7077 200.564 59.7341C200.534 59.7605 200.5 59.7788 200.462 59.7873Z" fill="#263238"/>
<path d="M213.536 57.7112C213.536 57.7112 210.083 56.391 208.509 54.3022C208.509 54.3022 205.371 55.156 204.728 56.4583C204.435 56.1965 204.245 55.8309 204.196 55.432C204.147 55.0332 204.241 54.6294 204.46 54.2986C204.46 54.2986 202.111 54.8149 201.646 56.4556C201.265 56.2659 200.951 55.9537 200.753 55.5649C200.554 55.176 200.48 54.731 200.543 54.2953C200.543 54.2953 199.499 54.7046 199.159 56.4535C199.159 56.4535 196.573 50.8224 205.135 49.2174C204.487 48.9878 203.808 48.8682 203.124 48.863C203.124 48.863 209.103 46.356 213.834 48.6563C218.565 50.9566 217.739 55.4043 213.536 57.7112Z" fill="#263238"/>
<path d="M234.952 125.737L226.66 126.882C226.66 126.882 223.261 101.981 221.762 93.939L221.777 76.7789L226.11 75.5949L229.467 76.7855C230.385 80.2388 231.09 83.7496 231.579 87.2965C231.984 89.989 232.348 92.8685 232.67 95.784C233.116 99.7577 233.485 103.803 233.8 107.59C234.292 113.701 234.619 119.107 234.796 122.411C234.898 124.485 234.952 125.737 234.952 125.737Z" fill="#CDAB35"/>
<path d="M221.769 93.9246C221.769 93.9246 222.47 81.8109 226.117 75.5661C226.117 75.5661 226.028 73.7809 225.303 73.4923C224.578 73.2038 221.785 74.9289 221.785 74.9289C221.785 74.9289 220.052 73.6893 219.671 74.2649C219.291 74.8404 218.362 78.6689 221.769 93.9246Z" fill="#CDAB35"/>
<path opacity="0.7" d="M221.769 93.9246C221.769 93.9246 222.47 81.8109 226.117 75.5661C226.117 75.5661 226.028 73.7809 225.303 73.4923C224.578 73.2038 221.785 74.9289 221.785 74.9289C221.785 74.9289 220.052 73.6893 219.671 74.2649C219.291 74.8404 218.362 78.6689 221.769 93.9246Z" fill="white"/>
<path d="M202.889 129.028L203.835 129.748C203.835 129.748 202.46 121.721 203.044 101.423C203.045 100.444 203.108 99.5013 203.144 98.6015C203.849 81.4276 206.422 78.3058 206.616 78.1189L204.225 78.9662L199.891 80.5172C198.572 95.1641 202.889 129.028 202.889 129.028Z" fill="#CDAB35"/>
<path d="M203.291 95.6433C203.291 95.6433 200.911 83.8652 201.626 79.8061C202.341 75.7471 204.889 77.556 204.889 77.556C204.889 77.556 207.233 75.5857 207.929 77.7602C207.929 77.7602 204.707 80.1183 203.291 95.6433Z" fill="#CDAB35"/>
<path opacity="0.7" d="M203.291 95.6433C203.291 95.6433 200.911 83.8652 201.626 79.8061C202.341 75.7471 204.889 77.556 204.889 77.556C204.889 77.556 207.233 75.5857 207.929 77.7602C207.929 77.7602 204.707 80.1183 203.291 95.6433Z" fill="white"/>
<path opacity="0.2" d="M232.656 95.7552C229.12 93.6862 228.655 88.2945 228.655 88.2945C228.869 88.2083 230.183 87.7416 231.565 87.2677C231.97 89.9601 232.334 92.8397 232.656 95.7552Z" fill="black"/>
<path opacity="0.2" d="M215.294 165.712L218.287 148.836L217.721 139.902C217.721 139.902 213.624 155.389 215.294 165.712Z" fill="black"/>
<path opacity="0.2" d="M234.782 122.383C232.557 122.222 230.637 122.07 230.637 122.07L230.223 112.647C230.917 112.195 231.75 112.036 232.552 112.203C233.1 110.698 233.515 109.144 233.793 107.561C234.271 113.673 234.605 119.086 234.782 122.383Z" fill="black"/>
<path d="M235.555 107.555L231.216 114.8L234.642 116.854L238.717 110.329L235.555 107.555Z" fill="#E4897B"/>
<path d="M229.28 76.6701C232.196 77.0037 244.576 94.7361 245.117 100.078C245.658 105.419 237.822 114.633 237.822 114.633L232.601 111.425C232.601 111.425 237.915 102.929 238.193 100.633C238.472 98.337 228.496 89.0501 228.496 89.0501C227.743 86.912 227.329 84.6603 227.272 82.3836C227.137 78.4822 229.28 76.6701 229.28 76.6701Z" fill="#CDAB35"/>
<path d="M230.216 112.654C230.216 112.654 234.672 113.651 236.466 116.575C236.466 116.575 234.595 122.656 233.261 123.317C231.927 123.978 228.624 123.975 228.624 123.975C228.624 123.975 228.416 117.209 230.216 112.654Z" fill="#CDAB35"/>
<path d="M113.471 170.985L113.116 170.985L113.116 170.815C113.116 170.708 113.08 170.612 113.006 170.525C112.936 170.438 112.828 170.333 112.681 170.21C112.551 170.103 112.453 170.01 112.386 169.93C112.32 169.847 112.275 169.758 112.251 169.665C112.228 169.572 112.216 169.452 112.216 169.305C112.216 169.108 112.253 168.95 112.326 168.83C112.403 168.71 112.516 168.623 112.666 168.57C112.816 168.517 113.005 168.49 113.231 168.49C113.318 168.49 113.413 168.498 113.516 168.515C113.62 168.532 113.721 168.552 113.821 168.575C113.921 168.598 114.008 168.622 114.081 168.645L114.051 168.985C113.985 168.968 113.905 168.952 113.811 168.935C113.718 168.918 113.625 168.905 113.531 168.895C113.438 168.882 113.356 168.875 113.286 168.875C113.07 168.875 112.91 168.91 112.806 168.98C112.706 169.05 112.656 169.168 112.656 169.335C112.656 169.428 112.666 169.507 112.686 169.57C112.71 169.633 112.751 169.698 112.811 169.765C112.875 169.832 112.966 169.915 113.086 170.015C113.176 170.092 113.255 170.165 113.321 170.235C113.391 170.305 113.445 170.375 113.481 170.445C113.521 170.515 113.541 170.59 113.541 170.67C113.541 170.737 113.533 170.797 113.516 170.85C113.503 170.903 113.488 170.948 113.471 170.985ZM113.531 171.995L113.071 171.995L113.071 171.405L113.531 171.405L113.531 171.995ZM115.968 172C115.634 172 115.356 171.962 115.133 171.885C114.909 171.805 114.741 171.685 114.628 171.525C114.518 171.362 114.463 171.157 114.463 170.91C114.463 170.83 114.468 170.745 114.478 170.655C114.491 170.562 114.506 170.472 114.523 170.385C114.539 170.295 114.554 170.218 114.568 170.155C114.581 170.088 114.589 170.043 114.593 170.02L115.008 170.1C114.998 170.15 114.983 170.222 114.963 170.315C114.946 170.408 114.929 170.507 114.913 170.61C114.899 170.713 114.893 170.813 114.893 170.91C114.893 171.033 114.911 171.14 114.948 171.23C114.988 171.32 115.049 171.393 115.133 171.45C115.219 171.507 115.331 171.548 115.468 171.575C115.608 171.602 115.776 171.615 115.973 171.615L117.428 171.615L117.428 169.5L117.853 169.5L117.853 172L115.968 172ZM115.953 172.925L115.953 172.46L116.383 172.46L116.383 172.925L115.953 172.925ZM119.147 172L119.147 171.615L119.752 171.615L119.752 172L119.147 172ZM118.722 172L118.722 168.42L119.147 168.42L119.147 172L118.722 172ZM119.752 172L119.752 171.615C119.772 171.615 119.789 171.62 119.802 171.63C119.815 171.637 119.825 171.648 119.832 171.665C119.839 171.682 119.844 171.702 119.847 171.725C119.85 171.748 119.852 171.775 119.852 171.805C119.852 171.835 119.85 171.863 119.847 171.89C119.844 171.913 119.839 171.933 119.832 171.95C119.825 171.967 119.815 171.98 119.802 171.99C119.789 171.997 119.772 172 119.752 172ZM123.571 172L123.571 171.615L124.111 171.615L124.111 172L123.571 172ZM119.751 172C119.731 172 119.714 171.997 119.701 171.99C119.688 171.98 119.678 171.967 119.671 171.95C119.664 171.933 119.659 171.913 119.656 171.89C119.653 171.863 119.651 171.835 119.651 171.805C119.651 171.765 119.654 171.732 119.661 171.705C119.664 171.678 119.674 171.657 119.691 171.64C119.704 171.623 119.724 171.615 119.751 171.615L119.751 172ZM122.426 172C122.309 172 122.194 171.978 122.081 171.935C121.968 171.888 121.861 171.818 121.761 171.725L122.036 171.435C122.113 171.498 122.181 171.545 122.241 171.575C122.301 171.602 122.363 171.615 122.426 171.615L123.321 171.615L123.141 171.795L123.141 170.61C123.141 170.553 123.134 170.47 123.121 170.36C123.111 170.25 123.094 170.127 123.071 169.99C123.051 169.85 123.026 169.71 122.996 169.57L123.416 169.5C123.439 169.617 123.463 169.747 123.486 169.89C123.509 170.033 123.529 170.17 123.546 170.3C123.563 170.43 123.571 170.533 123.571 170.61L123.571 172L122.426 172ZM119.751 172L119.751 171.615L120.481 171.615L120.376 171.72L120.376 170L120.796 170L120.796 172L119.751 172ZM120.796 172L120.796 171.615L121.341 171.615C121.454 171.615 121.539 171.598 121.596 171.565C121.656 171.532 121.698 171.465 121.721 171.365C121.744 171.265 121.756 171.118 121.756 170.925L121.756 169.75L122.181 169.75L122.181 170.925C122.181 171.188 122.153 171.4 122.096 171.56C122.039 171.717 121.949 171.83 121.826 171.9C121.703 171.967 121.541 172 121.341 172L120.796 172ZM124.111 172L124.111 171.615C124.131 171.615 124.148 171.62 124.161 171.63C124.174 171.637 124.184 171.648 124.191 171.665C124.198 171.682 124.203 171.702 124.206 171.725C124.209 171.748 124.211 171.775 124.211 171.805C124.211 171.835 124.209 171.863 124.206 171.89C124.203 171.913 124.198 171.933 124.191 171.95C124.184 171.967 124.174 171.98 124.161 171.99C124.148 171.997 124.131 172 124.111 172ZM124.111 172L124.111 171.615L126.306 171.615L126.176 171.73L126.176 170.535C126.176 170.318 126.108 170.157 125.971 170.05C125.838 169.943 125.635 169.89 125.361 169.89C125.275 169.89 125.151 169.898 124.991 169.915C124.835 169.928 124.668 169.947 124.491 169.97L124.441 169.625C124.578 169.592 124.726 169.563 124.886 169.54C125.05 169.513 125.208 169.5 125.361 169.5C125.615 169.5 125.835 169.54 126.021 169.62C126.208 169.7 126.351 169.817 126.451 169.97C126.551 170.123 126.601 170.312 126.601 170.535L126.601 172L124.111 172ZM124.111 172C124.091 172 124.075 171.997 124.061 171.99C124.048 171.98 124.038 171.967 124.031 171.95C124.025 171.933 124.02 171.913 124.016 171.89C124.013 171.863 124.011 171.835 124.011 171.805C124.011 171.765 124.015 171.732 124.021 171.705C124.025 171.678 124.035 171.657 124.051 171.64C124.065 171.623 124.085 171.615 124.111 171.615L124.111 172ZM131.588 172L131.588 171.615L132.128 171.615L132.128 172L131.588 172ZM129.703 172C129.37 172 129.091 171.962 128.868 171.885C128.645 171.805 128.476 171.685 128.363 171.525C128.253 171.362 128.198 171.157 128.198 170.91C128.198 170.83 128.203 170.745 128.213 170.655C128.226 170.562 128.241 170.472 128.258 170.385C128.275 170.295 128.29 170.218 128.303 170.155C128.316 170.088 128.325 170.043 128.328 170.02L128.743 170.1C128.733 170.15 128.718 170.222 128.698 170.315C128.681 170.408 128.665 170.507 128.648 170.61C128.635 170.713 128.628 170.813 128.628 170.91C128.628 171.033 128.646 171.14 128.683 171.23C128.723 171.32 128.785 171.393 128.868 171.45C128.955 171.507 129.066 171.548 129.203 171.575C129.343 171.602 129.511 171.615 129.708 171.615L131.368 171.615L131.163 171.785L131.163 168.42L131.588 168.42L131.588 172L129.703 172ZM132.128 172L132.128 171.615C132.148 171.615 132.165 171.62 132.178 171.63C132.191 171.637 132.201 171.648 132.208 171.665C132.215 171.682 132.22 171.702 132.223 171.725C132.226 171.748 132.228 171.775 132.228 171.805C132.228 171.835 132.226 171.863 132.223 171.89C132.22 171.913 132.215 171.933 132.208 171.95C132.201 171.967 132.191 171.98 132.178 171.99C132.165 171.997 132.148 172 132.128 172ZM129.653 170.25C129.6 170.183 129.558 170.118 129.528 170.055C129.498 169.988 129.483 169.92 129.483 169.85C129.483 169.75 129.508 169.662 129.558 169.585C129.608 169.505 129.675 169.443 129.758 169.4C129.841 169.353 129.931 169.33 130.028 169.33C130.081 169.33 130.135 169.338 130.188 169.355C130.245 169.368 130.293 169.388 130.333 169.415L130.198 169.655C130.171 169.638 130.145 169.628 130.118 169.625C130.095 169.618 130.07 169.615 130.043 169.615C129.966 169.615 129.905 169.637 129.858 169.68C129.815 169.723 129.793 169.78 129.793 169.85C129.793 169.89 129.801 169.93 129.818 169.97C129.838 170.01 129.866 170.053 129.903 170.1L129.653 170.25ZM129.388 170.255L129.388 169.975L130.403 169.975L130.403 170.255L129.388 170.255ZM132.129 172L132.129 171.615L132.914 171.615L132.704 171.785L132.704 169.5L133.134 169.5L133.134 172L132.129 172ZM132.129 172C132.109 172 132.092 171.997 132.079 171.99C132.066 171.98 132.056 171.967 132.049 171.95C132.042 171.933 132.037 171.913 132.034 171.89C132.031 171.863 132.029 171.835 132.029 171.805C132.029 171.765 132.032 171.732 132.039 171.705C132.042 171.678 132.052 171.657 132.069 171.64C132.082 171.623 132.102 171.615 132.129 171.615L132.129 172ZM132.329 172.925L132.329 172.46L132.754 172.46L132.754 172.925L132.329 172.925ZM133.044 172.925L133.044 172.46L133.469 172.46L133.469 172.925L133.044 172.925ZM135.685 172L135.685 171.615L136.22 171.615L136.22 172L135.685 172ZM133.735 172L133.735 171.615L135.595 171.615L135.255 171.915L135.255 170.86C135.255 170.613 135.227 170.42 135.17 170.28C135.117 170.137 135.027 170.035 134.9 169.975C134.773 169.915 134.603 169.885 134.39 169.885L133.985 169.885L133.985 169.5L134.39 169.5C134.663 169.5 134.897 169.543 135.09 169.63C135.283 169.713 135.43 169.855 135.53 170.055C135.633 170.252 135.685 170.52 135.685 170.86L135.685 172L133.735 172ZM136.22 172L136.22 171.615C136.24 171.615 136.257 171.62 136.27 171.63C136.283 171.637 136.293 171.648 136.3 171.665C136.307 171.682 136.312 171.702 136.315 171.725C136.318 171.748 136.32 171.775 136.32 171.805C136.32 171.835 136.318 171.863 136.315 171.89C136.312 171.913 136.307 171.933 136.3 171.95C136.293 171.967 136.283 171.98 136.27 171.99C136.257 171.997 136.24 172 136.22 172ZM136.821 172L136.821 168.42L137.251 168.42L137.251 172L136.821 172ZM136.221 172L136.221 171.615L136.821 171.615L136.821 172L136.221 172ZM136.221 172C136.201 172 136.184 171.997 136.171 171.99C136.157 171.98 136.147 171.967 136.141 171.95C136.134 171.933 136.129 171.913 136.126 171.89C136.122 171.863 136.121 171.835 136.121 171.805C136.121 171.765 136.124 171.732 136.131 171.705C136.134 171.678 136.144 171.657 136.161 171.64C136.174 171.623 136.194 171.615 136.221 171.615L136.221 172ZM144.476 172L144.476 171.615L145.016 171.615L145.016 172L144.476 172ZM140.346 173.24C140.079 173.24 139.837 173.19 139.621 173.09C139.407 172.993 139.237 172.857 139.111 172.68C138.987 172.507 138.926 172.308 138.926 172.085C138.926 172.015 138.931 171.923 138.941 171.81C138.954 171.693 138.969 171.565 138.986 171.425C139.006 171.285 139.027 171.143 139.051 171C139.074 170.853 139.096 170.715 139.116 170.585L139.536 170.65C139.499 170.877 139.467 171.088 139.441 171.285C139.414 171.478 139.392 171.643 139.376 171.78C139.362 171.917 139.356 172.018 139.356 172.085C139.356 172.235 139.396 172.367 139.476 172.48C139.559 172.597 139.676 172.688 139.826 172.755C139.976 172.822 140.149 172.855 140.346 172.855C140.542 172.855 140.711 172.823 140.851 172.76C140.991 172.7 141.097 172.613 141.171 172.5C141.244 172.39 141.281 172.262 141.281 172.115L141.281 170L141.706 170L141.706 172.115C141.706 172.348 141.644 172.548 141.521 172.715C141.401 172.885 141.237 173.015 141.031 173.105C140.827 173.195 140.599 173.24 140.346 173.24ZM141.706 172L141.706 171.615L142.246 171.615C142.359 171.615 142.446 171.598 142.506 171.565C142.566 171.532 142.607 171.465 142.631 171.365C142.654 171.265 142.666 171.118 142.666 170.925L142.666 169.75L143.091 169.75L143.091 170.925C143.091 171.188 143.061 171.4 143.001 171.56C142.944 171.717 142.854 171.83 142.731 171.9C142.607 171.967 142.446 172 142.246 172L141.706 172ZM143.331 172C143.214 172 143.099 171.978 142.986 171.935C142.876 171.888 142.769 171.818 142.666 171.725L142.941 171.435C143.017 171.498 143.086 171.545 143.146 171.575C143.209 171.602 143.271 171.615 143.331 171.615L144.231 171.615L144.051 171.795L144.051 170.61C144.051 170.553 144.044 170.47 144.031 170.36C144.017 170.25 143.999 170.127 143.976 169.99C143.956 169.85 143.932 169.71 143.906 169.57L144.326 169.5C144.349 169.617 144.372 169.747 144.396 169.89C144.419 170.033 144.437 170.17 144.451 170.3C144.467 170.43 144.476 170.533 144.476 170.61L144.476 172L143.331 172ZM145.016 172L145.016 171.615C145.036 171.615 145.052 171.62 145.066 171.63C145.079 171.637 145.089 171.648 145.096 171.665C145.102 171.682 145.107 171.702 145.111 171.725C145.114 171.748 145.116 171.775 145.116 171.805C145.116 171.835 145.114 171.863 145.111 171.89C145.107 171.913 145.102 171.933 145.096 171.95C145.089 171.967 145.079 171.98 145.066 171.99C145.052 171.997 145.036 172 145.016 172ZM146.02 172L146.02 171.615L146.57 171.615L146.57 172L146.02 172ZM146.57 172L146.57 171.615C146.59 171.615 146.606 171.62 146.62 171.63C146.633 171.637 146.643 171.648 146.65 171.665C146.656 171.682 146.661 171.702 146.665 171.725C146.668 171.748 146.67 171.775 146.67 171.805C146.67 171.835 146.668 171.863 146.665 171.89C146.661 171.913 146.656 171.933 146.65 171.95C146.643 171.967 146.633 171.98 146.62 171.99C146.606 171.997 146.59 172 146.57 172ZM145.015 172C144.995 172 144.978 171.997 144.965 171.99C144.951 171.98 144.941 171.967 144.935 171.95C144.928 171.933 144.923 171.913 144.92 171.89C144.916 171.863 144.915 171.835 144.915 171.805C144.915 171.765 144.918 171.732 144.925 171.705C144.928 171.678 144.938 171.657 144.955 171.64C144.968 171.623 144.988 171.615 145.015 171.615L145.015 172ZM145.015 172L145.015 171.615L145.8 171.615L145.59 171.785L145.59 169.5L146.02 169.5L146.02 172L145.015 172ZM145.215 172.925L145.215 172.46L145.64 172.46L145.64 172.925L145.215 172.925ZM145.93 172.925L145.93 172.46L146.355 172.46L146.355 172.925L145.93 172.925ZM147.167 172L147.167 168.42L147.597 168.42L147.597 172L147.167 172ZM146.567 172L146.567 171.615L147.167 171.615L147.167 172L146.567 172ZM146.567 172C146.547 172 146.531 171.997 146.517 171.99C146.504 171.98 146.494 171.967 146.487 171.95C146.481 171.933 146.476 171.913 146.472 171.89C146.469 171.863 146.467 171.835 146.467 171.805C146.467 171.765 146.471 171.732 146.477 171.705C146.481 171.678 146.491 171.657 146.507 171.64C146.521 171.623 146.541 171.615 146.567 171.615L146.567 172Z" fill="#263238" fill-opacity="0.8"/>
<path d="M146.406 158L146.406 157.615L146.946 157.615L146.946 158L146.406 158ZM146.946 158L146.946 157.615C146.966 157.615 146.983 157.62 146.996 157.63C147.009 157.637 147.019 157.648 147.026 157.665C147.033 157.682 147.038 157.702 147.041 157.725C147.044 157.748 147.046 157.775 147.046 157.805C147.046 157.835 147.044 157.863 147.041 157.89C147.038 157.913 147.033 157.933 147.026 157.95C147.019 157.967 147.009 157.98 146.996 157.99C146.983 157.997 146.966 158 146.946 158ZM141.211 159.125C141.168 159.125 141.123 159.122 141.076 159.115C141.026 159.112 140.978 159.108 140.931 159.105L140.971 158.72C141.018 158.723 141.063 158.727 141.106 158.73C141.146 158.737 141.181 158.74 141.211 158.74C141.364 158.74 141.488 158.682 141.581 158.565C141.674 158.448 141.721 158.287 141.721 158.08L141.721 155.5L142.151 155.5L142.151 158.08C142.151 158.287 142.111 158.468 142.031 158.625C141.951 158.785 141.839 158.908 141.696 158.995C141.556 159.082 141.394 159.125 141.211 159.125ZM145.281 158C145.164 158 145.049 157.978 144.936 157.935C144.826 157.888 144.718 157.818 144.611 157.725L144.891 157.435C144.964 157.498 145.031 157.545 145.091 157.575C145.154 157.602 145.218 157.615 145.281 157.615L146.176 157.615L146.001 157.795L146.001 156.61C146.001 156.553 145.994 156.47 145.981 156.36C145.971 156.25 145.954 156.127 145.931 155.99C145.911 155.85 145.886 155.71 145.856 155.57L146.271 155.5C146.294 155.617 146.318 155.747 146.341 155.89C146.364 156.033 146.383 156.17 146.396 156.3C146.413 156.43 146.421 156.533 146.421 156.61L146.421 158L145.281 158ZM142.151 156.38L142.151 155.99L143.226 155.99L143.226 156.38L142.151 156.38ZM143.226 158L143.226 155.5L143.656 155.5L143.656 158L143.226 158ZM143.656 158L143.656 157.615L144.191 157.615C144.304 157.615 144.391 157.598 144.451 157.565C144.511 157.532 144.553 157.465 144.576 157.365C144.599 157.265 144.611 157.118 144.611 156.925L144.611 155.75L145.041 155.75L145.041 156.925C145.041 157.188 145.011 157.4 144.951 157.56C144.894 157.717 144.804 157.83 144.681 157.9C144.558 157.967 144.394 158 144.191 158L143.656 158ZM147.547 158L147.547 154.42L147.977 154.42L147.977 158L147.547 158ZM146.947 158L146.947 157.615L147.547 157.615L147.547 158L146.947 158ZM146.947 158C146.927 158 146.91 157.997 146.897 157.99C146.883 157.98 146.873 157.967 146.867 157.95C146.86 157.933 146.855 157.913 146.852 157.89C146.848 157.863 146.847 157.835 146.847 157.805C146.847 157.765 146.85 157.732 146.857 157.705C146.86 157.678 146.87 157.657 146.887 157.64C146.9 157.623 146.92 157.615 146.947 157.615L146.947 158ZM148.828 158L148.828 154.42L149.253 154.42L149.253 158L148.828 158ZM152.159 158C151.872 158 151.645 157.957 151.479 157.87C151.315 157.78 151.199 157.643 151.129 157.46C151.062 157.273 151.029 157.037 151.029 156.75C151.029 156.467 151.062 156.232 151.129 156.045C151.199 155.858 151.315 155.722 151.479 155.635C151.645 155.545 151.872 155.5 152.159 155.5L153.209 155.5L153.209 157.785L152.779 157.785L152.779 155.72L152.974 155.885L152.159 155.885C151.975 155.885 151.832 155.908 151.729 155.955C151.629 155.998 151.559 156.082 151.519 156.205C151.479 156.328 151.459 156.51 151.459 156.75C151.459 156.99 151.477 157.172 151.514 157.295C151.554 157.418 151.625 157.503 151.729 157.55C151.832 157.593 151.975 157.615 152.159 157.615L153.749 157.615L153.749 158L152.159 158ZM153.749 158L153.749 157.615C153.769 157.615 153.785 157.62 153.799 157.63C153.812 157.637 153.822 157.648 153.829 157.665C153.835 157.682 153.84 157.702 153.844 157.725C153.847 157.748 153.849 157.775 153.849 157.805C153.849 157.835 153.847 157.863 153.844 157.89C153.84 157.913 153.835 157.933 153.829 157.95C153.822 157.967 153.812 157.98 153.799 157.99C153.785 157.997 153.769 158 153.749 158ZM151.644 155.05L151.644 154.585L152.069 154.585L152.069 155.05L151.644 155.05ZM152.359 155.05L152.359 154.585L152.784 154.585L152.784 155.05L152.359 155.05ZM156.598 158L156.598 157.615L157.138 157.615L157.138 158L156.598 158ZM153.748 158C153.728 158 153.712 157.997 153.698 157.99C153.685 157.98 153.675 157.967 153.668 157.95C153.662 157.933 153.657 157.913 153.653 157.89C153.65 157.863 153.648 157.835 153.648 157.805C153.648 157.765 153.652 157.732 153.658 157.705C153.662 157.678 153.672 157.657 153.688 157.64C153.702 157.623 153.722 157.615 153.748 157.615L153.748 158ZM153.748 158L153.748 157.615L156.463 157.615L156.173 157.825L156.173 156.775C156.173 156.548 156.147 156.37 156.093 156.24C156.043 156.11 155.955 156.018 155.828 155.965C155.705 155.912 155.537 155.885 155.323 155.885C155.183 155.885 155.045 155.895 154.908 155.915C154.772 155.932 154.665 155.957 154.588 155.99L154.848 155.73C154.828 155.81 154.808 155.912 154.788 156.035C154.768 156.155 154.752 156.285 154.738 156.425C154.725 156.562 154.718 156.698 154.718 156.835C154.718 156.975 154.725 157.113 154.738 157.25C154.752 157.387 154.767 157.505 154.783 157.605C154.8 157.702 154.813 157.77 154.823 157.81L154.418 157.925C154.405 157.882 154.388 157.807 154.368 157.7C154.348 157.593 154.33 157.465 154.313 157.315C154.3 157.165 154.293 157.005 154.293 156.835C154.293 156.672 154.302 156.513 154.318 156.36C154.335 156.203 154.353 156.062 154.373 155.935C154.397 155.808 154.418 155.707 154.438 155.63C154.512 155.6 154.628 155.57 154.788 155.54C154.952 155.51 155.13 155.495 155.323 155.495C155.607 155.495 155.843 155.537 156.033 155.62C156.223 155.703 156.365 155.838 156.458 156.025C156.552 156.212 156.598 156.462 156.598 156.775L156.598 158L153.748 158ZM157.138 158L157.138 157.615C157.158 157.615 157.175 157.62 157.188 157.63C157.202 157.637 157.212 157.648 157.218 157.665C157.225 157.682 157.23 157.702 157.233 157.725C157.237 157.748 157.238 157.775 157.238 157.805C157.238 157.835 157.237 157.863 157.233 157.89C157.23 157.913 157.225 157.933 157.218 157.95C157.212 157.967 157.202 157.98 157.188 157.99C157.175 157.997 157.158 158 157.138 158ZM158.167 158L158.167 157.615L158.702 157.615L158.702 158L158.167 158ZM157.137 158C157.117 158 157.1 157.997 157.087 157.99C157.074 157.98 157.064 157.967 157.057 157.95C157.05 157.933 157.045 157.913 157.042 157.89C157.039 157.863 157.037 157.835 157.037 157.805C157.037 157.765 157.04 157.732 157.047 157.705C157.05 157.678 157.06 157.657 157.077 157.64C157.09 157.623 157.11 157.615 157.137 157.615L157.137 158ZM157.737 158L157.737 154.42L158.167 154.42L158.167 158L157.737 158ZM157.137 158L157.137 157.615L157.737 157.615L157.737 158L157.137 158ZM158.702 158L158.702 157.615C158.722 157.615 158.739 157.62 158.752 157.63C158.765 157.637 158.775 157.648 158.782 157.665C158.789 157.682 158.794 157.702 158.797 157.725C158.8 157.748 158.802 157.775 158.802 157.805C158.802 157.835 158.8 157.863 158.797 157.89C158.794 157.913 158.789 157.933 158.782 157.95C158.775 157.967 158.765 157.98 158.752 157.99C158.739 157.997 158.722 158 158.702 158ZM158.705 158L158.705 157.615L161.205 157.615L161.055 157.745L161.055 156.885C161.055 156.705 161.031 156.558 160.985 156.445C160.938 156.328 160.868 156.242 160.775 156.185C160.685 156.128 160.57 156.1 160.43 156.1L159.34 156.1L159.035 155.645L159.255 155.22C159.295 155.15 159.335 155.078 159.375 155.005C159.418 154.928 159.471 154.84 159.535 154.74C159.598 154.64 159.678 154.518 159.775 154.375L160.13 154.59C160.036 154.733 159.96 154.853 159.9 154.95C159.84 155.043 159.79 155.125 159.75 155.195C159.71 155.262 159.671 155.33 159.635 155.4L159.39 155.865L159.29 155.71L160.43 155.71C160.64 155.71 160.813 155.747 160.95 155.82C161.086 155.89 161.193 155.985 161.27 156.105C161.35 156.222 161.405 156.348 161.435 156.485C161.468 156.622 161.485 156.755 161.485 156.885L161.485 158L158.705 158ZM158.705 158C158.685 158 158.668 157.997 158.655 157.99C158.641 157.98 158.631 157.967 158.625 157.95C158.618 157.933 158.613 157.913 158.61 157.89C158.606 157.863 158.605 157.835 158.605 157.805C158.605 157.765 158.608 157.732 158.615 157.705C158.618 157.678 158.628 157.657 158.645 157.64C158.658 157.623 158.678 157.615 158.705 157.615L158.705 158Z" fill="#263238" fill-opacity="0.8"/>
<path d="M149.231 135L149.231 134.615L149.771 134.615L149.771 135L149.231 135ZM147.871 136.24C147.605 136.24 147.363 136.19 147.146 136.09C146.933 135.993 146.763 135.857 146.636 135.68C146.513 135.507 146.451 135.308 146.451 135.085C146.451 135.015 146.456 134.923 146.466 134.81C146.48 134.693 146.495 134.565 146.511 134.425C146.531 134.285 146.553 134.143 146.576 134C146.6 133.853 146.621 133.715 146.641 133.585L147.061 133.65C147.025 133.877 146.993 134.088 146.966 134.285C146.94 134.478 146.918 134.643 146.901 134.78C146.888 134.917 146.881 135.018 146.881 135.085C146.881 135.235 146.921 135.367 147.001 135.48C147.085 135.597 147.201 135.688 147.351 135.755C147.501 135.822 147.675 135.855 147.871 135.855C148.068 135.855 148.236 135.823 148.376 135.76C148.516 135.7 148.623 135.613 148.696 135.5C148.77 135.39 148.806 135.262 148.806 135.115L148.806 131.42L149.231 131.42L149.231 135.115C149.231 135.348 149.17 135.548 149.046 135.715C148.926 135.885 148.763 136.015 148.556 136.105C148.353 136.195 148.125 136.24 147.871 136.24ZM149.771 135L149.771 134.615C149.791 134.615 149.808 134.62 149.821 134.63C149.835 134.637 149.845 134.648 149.851 134.665C149.858 134.682 149.863 134.702 149.866 134.725C149.87 134.748 149.871 134.775 149.871 134.805C149.871 134.835 149.87 134.863 149.866 134.89C149.863 134.913 149.858 134.933 149.851 134.95C149.845 134.967 149.835 134.98 149.821 134.99C149.808 134.997 149.791 135 149.771 135ZM150.777 135L150.777 134.615L151.327 134.615L151.327 135L150.777 135ZM151.327 135L151.327 134.615C151.347 134.615 151.364 134.62 151.377 134.63C151.39 134.637 151.4 134.648 151.407 134.665C151.414 134.682 151.419 134.702 151.422 134.725C151.425 134.748 151.427 134.775 151.427 134.805C151.427 134.835 151.425 134.863 151.422 134.89C151.419 134.913 151.414 134.933 151.407 134.95C151.4 134.967 151.39 134.98 151.377 134.99C151.364 134.997 151.347 135 151.327 135ZM149.772 135C149.752 135 149.735 134.997 149.722 134.99C149.709 134.98 149.699 134.967 149.692 134.95C149.685 134.933 149.68 134.913 149.677 134.89C149.674 134.863 149.672 134.835 149.672 134.805C149.672 134.765 149.675 134.732 149.682 134.705C149.685 134.678 149.695 134.657 149.712 134.64C149.725 134.623 149.745 134.615 149.772 134.615L149.772 135ZM149.772 135L149.772 134.615L150.557 134.615L150.347 134.785L150.347 132.5L150.777 132.5L150.777 135L149.772 135ZM149.972 135.925L149.972 135.46L150.397 135.46L150.397 135.925L149.972 135.925ZM150.687 135.925L150.687 135.46L151.112 135.46L151.112 135.925L150.687 135.925ZM154.175 135L154.175 134.615L154.715 134.615L154.715 135L154.175 135ZM151.325 135C151.305 135 151.288 134.997 151.275 134.99C151.261 134.98 151.251 134.967 151.245 134.95C151.238 134.933 151.233 134.913 151.23 134.89C151.226 134.863 151.225 134.835 151.225 134.805C151.225 134.765 151.228 134.732 151.235 134.705C151.238 134.678 151.248 134.657 151.265 134.64C151.278 134.623 151.298 134.615 151.325 134.615L151.325 135ZM151.325 135L151.325 134.615L154.04 134.615L153.75 134.825L153.75 133.775C153.75 133.548 153.723 133.37 153.67 133.24C153.62 133.11 153.531 133.018 153.405 132.965C153.281 132.912 153.113 132.885 152.9 132.885C152.76 132.885 152.621 132.895 152.485 132.915C152.348 132.932 152.241 132.957 152.165 132.99L152.425 132.73C152.405 132.81 152.385 132.912 152.365 133.035C152.345 133.155 152.328 133.285 152.315 133.425C152.301 133.562 152.295 133.698 152.295 133.835C152.295 133.975 152.301 134.113 152.315 134.25C152.328 134.387 152.343 134.505 152.36 134.605C152.376 134.702 152.39 134.77 152.4 134.81L151.995 134.925C151.981 134.882 151.965 134.807 151.945 134.7C151.925 134.593 151.906 134.465 151.89 134.315C151.876 134.165 151.87 134.005 151.87 133.835C151.87 133.672 151.878 133.513 151.895 133.36C151.911 133.203 151.93 133.062 151.95 132.935C151.973 132.808 151.995 132.707 152.015 132.63C152.088 132.6 152.205 132.57 152.365 132.54C152.528 132.51 152.706 132.495 152.9 132.495C153.183 132.495 153.42 132.537 153.61 132.62C153.8 132.703 153.941 132.838 154.035 133.025C154.128 133.212 154.175 133.462 154.175 133.775L154.175 135L151.325 135ZM154.715 135L154.715 134.615C154.735 134.615 154.751 134.62 154.765 134.63C154.778 134.637 154.788 134.648 154.795 134.665C154.801 134.682 154.806 134.702 154.81 134.725C154.813 134.748 154.815 134.775 154.815 134.805C154.815 134.835 154.813 134.863 154.81 134.89C154.806 134.913 154.801 134.933 154.795 134.95C154.788 134.967 154.778 134.98 154.765 134.99C154.751 134.997 154.735 135 154.715 135ZM154.713 135L154.713 134.615L155.498 134.615L155.288 134.785L155.288 132.5L155.718 132.5L155.718 135L154.713 135ZM154.713 135C154.693 135 154.677 134.997 154.663 134.99C154.65 134.98 154.64 134.967 154.633 134.95C154.627 134.933 154.622 134.913 154.618 134.89C154.615 134.863 154.613 134.835 154.613 134.805C154.613 134.765 154.617 134.732 154.623 134.705C154.627 134.678 154.637 134.657 154.653 134.64C154.667 134.623 154.687 134.615 154.713 134.615L154.713 135ZM154.913 135.925L154.913 135.46L155.338 135.46L155.338 135.925L154.913 135.925ZM155.628 135.925L155.628 135.46L156.053 135.46L156.053 135.925L155.628 135.925ZM156.32 135L156.32 134.615L158.78 134.615L158.545 134.855L158.545 131.42L158.975 131.42L158.975 135L156.32 135ZM157.105 134.615L157.105 132.13L157.53 132.13L157.53 134.615L157.105 134.615ZM159.847 135L159.847 131.42L160.272 131.42L160.272 135L159.847 135Z" fill="#263238" fill-opacity="0.8"/>
<path d="M138.665 113C138.378 113 138.152 112.957 137.985 112.87C137.822 112.78 137.705 112.643 137.635 112.46C137.568 112.273 137.535 112.037 137.535 111.75C137.535 111.467 137.568 111.232 137.635 111.045C137.705 110.858 137.822 110.722 137.985 110.635C138.152 110.545 138.378 110.5 138.665 110.5L139.715 110.5L139.715 112.785L139.285 112.785L139.285 110.72L139.48 110.885L138.665 110.885C138.482 110.885 138.338 110.908 138.235 110.955C138.135 110.998 138.065 111.082 138.025 111.205C137.985 111.328 137.965 111.51 137.965 111.75C137.965 111.99 137.983 112.172 138.02 112.295C138.06 112.418 138.132 112.503 138.235 112.55C138.338 112.593 138.482 112.615 138.665 112.615L140.255 112.615L140.255 113L138.665 113ZM140.255 113L140.255 112.615C140.275 112.615 140.292 112.62 140.305 112.63C140.318 112.637 140.328 112.648 140.335 112.665C140.342 112.682 140.347 112.702 140.35 112.725C140.353 112.748 140.355 112.775 140.355 112.805C140.355 112.835 140.353 112.863 140.35 112.89C140.347 112.913 140.342 112.933 140.335 112.95C140.328 112.967 140.318 112.98 140.305 112.99C140.292 112.997 140.275 113 140.255 113ZM138.15 110.05L138.15 109.585L138.575 109.585L138.575 110.05L138.15 110.05ZM138.865 110.05L138.865 109.585L139.29 109.585L139.29 110.05L138.865 110.05ZM141.285 113L141.285 112.615L141.82 112.615L141.82 113L141.285 113ZM140.255 113C140.235 113 140.218 112.997 140.205 112.99C140.192 112.98 140.182 112.967 140.175 112.95C140.168 112.933 140.163 112.913 140.16 112.89C140.157 112.863 140.155 112.835 140.155 112.805C140.155 112.765 140.158 112.732 140.165 112.705C140.168 112.678 140.178 112.657 140.195 112.64C140.208 112.623 140.228 112.615 140.255 112.615L140.255 113ZM140.855 113L140.855 109.42L141.285 109.42L141.285 113L140.855 113ZM140.255 113L140.255 112.615L140.855 112.615L140.855 113L140.255 113ZM141.82 113L141.82 112.615C141.84 112.615 141.857 112.62 141.87 112.63C141.883 112.637 141.893 112.648 141.9 112.665C141.907 112.682 141.912 112.702 141.915 112.725C141.918 112.748 141.92 112.775 141.92 112.805C141.92 112.835 141.918 112.863 141.915 112.89C141.912 112.913 141.907 112.933 141.9 112.95C141.893 112.967 141.883 112.98 141.87 112.99C141.857 112.997 141.84 113 141.82 113ZM141.822 113L141.822 112.615L142.567 112.615L142.362 112.785L142.362 110.5L142.787 110.5L142.787 113L141.822 113ZM141.822 113C141.802 113 141.786 112.997 141.772 112.99C141.759 112.98 141.749 112.967 141.742 112.95C141.736 112.933 141.731 112.913 141.727 112.89C141.724 112.863 141.722 112.835 141.722 112.805C141.722 112.765 141.726 112.732 141.732 112.705C141.736 112.678 141.746 112.657 141.762 112.64C141.776 112.623 141.796 112.615 141.822 112.615L141.822 113ZM142.327 110.04C142.274 109.973 142.232 109.908 142.202 109.845C142.172 109.778 142.157 109.71 142.157 109.64C142.157 109.54 142.182 109.452 142.232 109.375C142.282 109.295 142.349 109.233 142.432 109.19C142.516 109.143 142.606 109.12 142.702 109.12C142.756 109.12 142.809 109.128 142.862 109.145C142.919 109.158 142.967 109.178 143.007 109.205L142.872 109.445C142.846 109.428 142.819 109.418 142.792 109.415C142.769 109.408 142.744 109.405 142.717 109.405C142.641 109.405 142.579 109.427 142.532 109.47C142.489 109.513 142.467 109.57 142.467 109.64C142.467 109.68 142.476 109.72 142.492 109.76C142.512 109.8 142.541 109.843 142.577 109.89L142.327 110.04ZM142.062 110.045L142.062 109.765L143.077 109.765L143.077 110.045L142.062 110.045ZM144.089 113L144.089 112.615L144.694 112.615L144.694 113L144.089 113ZM143.664 113L143.664 109.42L144.089 109.42L144.089 113L143.664 113ZM144.694 113L144.694 112.615C144.714 112.615 144.731 112.62 144.744 112.63C144.758 112.637 144.768 112.648 144.774 112.665C144.781 112.682 144.786 112.702 144.789 112.725C144.793 112.748 144.794 112.775 144.794 112.805C144.794 112.835 144.793 112.863 144.789 112.89C144.786 112.913 144.781 112.933 144.774 112.95C144.768 112.967 144.758 112.98 144.744 112.99C144.731 112.997 144.714 113 144.694 113ZM144.693 113L144.693 112.615L145.418 112.615C145.608 112.615 145.792 112.583 145.968 112.52C146.145 112.457 146.307 112.372 146.453 112.265C146.603 112.158 146.733 112.042 146.843 111.915C146.953 111.785 147.038 111.653 147.098 111.52C147.158 111.383 147.188 111.257 147.188 111.14L147.188 110.835L147.413 111.18C147.223 111.083 147.035 111.01 146.848 110.96C146.665 110.91 146.485 110.885 146.308 110.885C146.135 110.885 145.955 110.91 145.768 110.96C145.582 111.01 145.395 111.083 145.208 111.18L145.433 110.835L145.433 111.14C145.433 111.257 145.463 111.383 145.523 111.52C145.587 111.653 145.672 111.785 145.778 111.915C145.888 112.042 146.017 112.158 146.163 112.265C146.31 112.372 146.472 112.457 146.648 112.52C146.825 112.583 147.01 112.615 147.203 112.615L147.893 112.615L147.893 113L147.228 113C146.968 113 146.725 112.958 146.498 112.875C146.272 112.792 146.067 112.682 145.883 112.545C145.7 112.405 145.542 112.253 145.408 112.09C145.278 111.923 145.178 111.758 145.108 111.595C145.038 111.428 145.003 111.277 145.003 111.14L145.003 110.84C145.147 110.763 145.293 110.7 145.443 110.65C145.593 110.6 145.742 110.563 145.888 110.54C146.035 110.513 146.175 110.5 146.308 110.5C146.445 110.5 146.587 110.513 146.733 110.54C146.88 110.563 147.027 110.6 147.173 110.65C147.323 110.7 147.47 110.763 147.613 110.84L147.613 111.14C147.613 111.277 147.578 111.428 147.508 111.595C147.438 111.758 147.337 111.923 147.203 112.09C147.073 112.253 146.917 112.405 146.733 112.545C146.55 112.682 146.345 112.792 146.118 112.875C145.892 112.958 145.648 113 145.388 113L144.693 113ZM144.693 113C144.673 113 144.657 112.997 144.643 112.99C144.63 112.98 144.62 112.967 144.613 112.95C144.607 112.933 144.602 112.913 144.598 112.89C144.595 112.863 144.593 112.835 144.593 112.805C144.593 112.765 144.597 112.732 144.603 112.705C144.607 112.678 144.617 112.657 144.633 112.64C144.647 112.623 144.667 112.615 144.693 112.615L144.693 113ZM147.893 113L147.893 112.615C147.913 112.615 147.93 112.62 147.943 112.63C147.957 112.637 147.967 112.648 147.973 112.665C147.98 112.682 147.985 112.702 147.988 112.725C147.992 112.748 147.993 112.775 147.993 112.805C147.993 112.835 147.992 112.863 147.988 112.89C147.985 112.913 147.98 112.933 147.973 112.95C147.967 112.967 147.957 112.98 147.943 112.99C147.93 112.997 147.913 113 147.893 113ZM148.492 113L148.492 109.42L148.922 109.42L148.922 113L148.492 113ZM147.892 113L147.892 112.615L148.492 112.615L148.492 113L147.892 113ZM147.892 113C147.872 113 147.855 112.997 147.842 112.99C147.828 112.98 147.818 112.967 147.812 112.95C147.805 112.933 147.8 112.913 147.797 112.89C147.793 112.863 147.792 112.835 147.792 112.805C147.792 112.765 147.795 112.732 147.802 112.705C147.805 112.678 147.815 112.657 147.832 112.64C147.845 112.623 147.865 112.615 147.892 112.615L147.892 113ZM149.773 113L149.773 109.42L150.198 109.42L150.198 113L149.773 113ZM154.558 113L154.558 112.615L155.098 112.615L155.098 113L154.558 113ZM152.098 114.66C152.065 114.47 152.035 114.29 152.008 114.12C151.985 113.95 151.973 113.805 151.973 113.685C151.973 113.462 152.012 113.27 152.088 113.11C152.168 112.95 152.282 112.828 152.428 112.745C152.578 112.658 152.755 112.615 152.958 112.615C153.012 112.615 153.092 112.615 153.198 112.615C153.305 112.615 153.427 112.615 153.563 112.615C153.7 112.615 153.842 112.615 153.988 112.615C154.138 112.615 154.283 112.615 154.423 112.615L154.128 112.875L154.128 111.775C154.128 111.548 154.103 111.372 154.053 111.245C154.003 111.115 153.915 111.023 153.788 110.97C153.665 110.913 153.497 110.885 153.283 110.885C153.143 110.885 153.005 110.895 152.868 110.915C152.732 110.935 152.625 110.962 152.548 110.995L152.808 110.735C152.788 110.815 152.768 110.915 152.748 111.035C152.728 111.155 152.712 111.285 152.698 111.425C152.688 111.562 152.683 111.698 152.683 111.835C152.683 111.975 152.688 112.113 152.698 112.25C152.712 112.387 152.727 112.505 152.743 112.605C152.76 112.702 152.773 112.77 152.783 112.81L152.373 112.925C152.36 112.882 152.343 112.807 152.323 112.7C152.307 112.593 152.29 112.465 152.273 112.315C152.26 112.165 152.253 112.007 152.253 111.84C152.253 111.677 152.26 111.518 152.273 111.365C152.29 111.208 152.308 111.067 152.328 110.94C152.352 110.813 152.373 110.712 152.393 110.635C152.47 110.605 152.588 110.575 152.748 110.545C152.912 110.515 153.09 110.5 153.283 110.5C153.457 110.5 153.612 110.515 153.748 110.545C153.888 110.575 154.008 110.623 154.108 110.69C154.212 110.753 154.297 110.835 154.363 110.935C154.43 111.032 154.478 111.15 154.508 111.29C154.542 111.43 154.558 111.592 154.558 111.775L154.558 113C154.418 113 154.267 113 154.103 113C153.943 113 153.787 113 153.633 113C153.48 113 153.342 113 153.218 113C153.098 113 153.012 113 152.958 113C152.905 113 152.847 113.007 152.783 113.02C152.72 113.037 152.658 113.067 152.598 113.11C152.542 113.157 152.495 113.225 152.458 113.315C152.422 113.408 152.403 113.532 152.403 113.685C152.403 113.812 152.415 113.955 152.438 114.115C152.462 114.278 152.488 114.46 152.518 114.66L152.098 114.66ZM155.098 113L155.098 112.615C155.118 112.615 155.135 112.62 155.148 112.63C155.162 112.637 155.172 112.648 155.178 112.665C155.185 112.682 155.19 112.702 155.193 112.725C155.197 112.748 155.198 112.775 155.198 112.805C155.198 112.835 155.197 112.863 155.193 112.89C155.19 112.913 155.185 112.933 155.178 112.95C155.172 112.967 155.162 112.98 155.148 112.99C155.135 112.997 155.118 113 155.098 113ZM157.774 113C157.657 113 157.542 112.978 157.429 112.935C157.315 112.888 157.209 112.818 157.109 112.725L157.384 112.435C157.46 112.498 157.529 112.545 157.589 112.575C157.649 112.602 157.71 112.615 157.774 112.615L158.669 112.615L158.489 112.795L158.489 111.61C158.489 111.553 158.482 111.47 158.469 111.36C158.459 111.25 158.442 111.127 158.419 110.99C158.399 110.85 158.374 110.71 158.344 110.57L158.764 110.5C158.787 110.617 158.81 110.747 158.834 110.89C158.857 111.033 158.877 111.17 158.894 111.3C158.91 111.43 158.919 111.533 158.919 111.61L158.919 113L157.774 113ZM155.099 113L155.099 112.615L155.829 112.615L155.724 112.72L155.724 111L156.144 111L156.144 113L155.099 113ZM156.144 113L156.144 112.615L156.689 112.615C156.802 112.615 156.887 112.598 156.944 112.565C157.004 112.532 157.045 112.465 157.069 112.365C157.092 112.265 157.104 112.118 157.104 111.925L157.104 110.75L157.529 110.75L157.529 111.925C157.529 112.188 157.5 112.4 157.444 112.56C157.387 112.717 157.297 112.83 157.174 112.9C157.05 112.967 156.889 113 156.689 113L156.144 113ZM155.099 113C155.079 113 155.062 112.997 155.049 112.99C155.035 112.98 155.025 112.967 155.019 112.95C155.012 112.933 155.007 112.913 155.004 112.89C155 112.863 154.999 112.835 154.999 112.805C154.999 112.765 155.002 112.732 155.009 112.705C155.012 112.678 155.022 112.657 155.039 112.64C155.052 112.623 155.072 112.615 155.099 112.615L155.099 113ZM159.763 113L159.763 109.42L160.188 109.42L160.188 113L159.763 113Z" fill="#263238" fill-opacity="0.8"/>
<path d="M151.213 92.0001L151.213 91.6151L151.753 91.6151L151.753 92.0001L151.213 92.0001ZM148.753 93.6601C148.72 93.4701 148.69 93.2901 148.663 93.1201C148.64 92.9501 148.628 92.8051 148.628 92.6851C148.628 92.4618 148.667 92.2701 148.743 92.1101C148.823 91.9501 148.937 91.8284 149.083 91.7451C149.233 91.6584 149.41 91.6151 149.613 91.6151C149.667 91.6151 149.747 91.6151 149.853 91.6151C149.96 91.6151 150.082 91.6151 150.218 91.6151C150.355 91.6151 150.497 91.6151 150.643 91.6151C150.793 91.6151 150.938 91.6151 151.078 91.6151L150.783 91.8751L150.783 90.7751C150.783 90.5484 150.758 90.3718 150.708 90.2451C150.658 90.1151 150.57 90.0234 150.443 89.9701C150.32 89.9134 150.152 89.8851 149.938 89.8851C149.798 89.8851 149.66 89.8951 149.523 89.9151C149.387 89.9351 149.28 89.9618 149.203 89.9951L149.463 89.7351C149.443 89.8151 149.423 89.9151 149.403 90.0351C149.383 90.1551 149.367 90.2851 149.353 90.4251C149.343 90.5618 149.338 90.6984 149.338 90.8351C149.338 90.9751 149.343 91.1134 149.353 91.2501C149.367 91.3868 149.382 91.5051 149.398 91.6051C149.415 91.7018 149.428 91.7701 149.438 91.8101L149.028 91.9251C149.015 91.8818 148.998 91.8068 148.978 91.7001C148.962 91.5934 148.945 91.4651 148.928 91.3151C148.915 91.1651 148.908 91.0068 148.908 90.8401C148.908 90.6768 148.915 90.5184 148.928 90.3651C148.945 90.2084 148.963 90.0668 148.983 89.9401C149.007 89.8134 149.028 89.7118 149.048 89.6351C149.125 89.6051 149.243 89.5751 149.403 89.5451C149.567 89.5151 149.745 89.5001 149.938 89.5001C150.112 89.5001 150.267 89.5151 150.403 89.5451C150.543 89.5751 150.663 89.6234 150.763 89.6901C150.867 89.7534 150.952 89.8351 151.018 89.9351C151.085 90.0318 151.133 90.1501 151.163 90.2901C151.197 90.4301 151.213 90.5918 151.213 90.7751L151.213 92.0001C151.073 92.0001 150.922 92.0001 150.758 92.0001C150.598 92.0001 150.442 92.0001 150.288 92.0001C150.135 92.0001 149.997 92.0001 149.873 92.0001C149.753 92.0001 149.667 92.0001 149.613 92.0001C149.56 92.0001 149.502 92.0068 149.438 92.0201C149.375 92.0368 149.313 92.0668 149.253 92.1101C149.197 92.1568 149.15 92.2251 149.113 92.3151C149.077 92.4084 149.058 92.5318 149.058 92.6851C149.058 92.8118 149.07 92.9551 149.093 93.1151C149.117 93.2784 149.143 93.4601 149.173 93.6601L148.753 93.6601ZM151.753 92.0001L151.753 91.6151C151.773 91.6151 151.79 91.6201 151.803 91.6301C151.817 91.6368 151.827 91.6484 151.833 91.6651C151.84 91.6818 151.845 91.7018 151.848 91.7251C151.852 91.7484 151.853 91.7751 151.853 91.8051C151.853 91.8351 151.852 91.8634 151.848 91.8901C151.845 91.9134 151.84 91.9334 151.833 91.9501C151.827 91.9668 151.817 91.9801 151.803 91.9901C151.79 91.9968 151.773 92.0001 151.753 92.0001ZM154.428 92.0001C154.312 92.0001 154.197 91.9784 154.083 91.9351C153.97 91.8884 153.863 91.8184 153.763 91.7251L154.038 91.4351C154.115 91.4984 154.183 91.5451 154.243 91.5751C154.303 91.6018 154.365 91.6151 154.428 91.6151L155.323 91.6151L155.143 91.7951L155.143 90.6101C155.143 90.5534 155.137 90.4701 155.123 90.3601C155.113 90.2501 155.097 90.1268 155.073 89.9901C155.053 89.8501 155.028 89.7101 154.998 89.5701L155.418 89.5001C155.442 89.6168 155.465 89.7468 155.488 89.8901C155.512 90.0334 155.532 90.1701 155.548 90.3001C155.565 90.4301 155.573 90.5334 155.573 90.6101L155.573 92.0001L154.428 92.0001ZM151.753 92.0001L151.753 91.6151L152.483 91.6151L152.378 91.7201L152.378 90.0001L152.798 90.0001L152.798 92.0001L151.753 92.0001ZM152.798 92.0001L152.798 91.6151L153.343 91.6151C153.457 91.6151 153.542 91.5984 153.598 91.5651C153.658 91.5318 153.7 91.4651 153.723 91.3651C153.747 91.2651 153.758 91.1184 153.758 90.9251L153.758 89.7501L154.183 89.7501L154.183 90.9251C154.183 91.1884 154.155 91.4001 154.098 91.5601C154.042 91.7168 153.952 91.8301 153.828 91.9001C153.705 91.9668 153.543 92.0001 153.343 92.0001L152.798 92.0001ZM151.753 92.0001C151.733 92.0001 151.717 91.9968 151.703 91.9901C151.69 91.9801 151.68 91.9668 151.673 91.9501C151.667 91.9334 151.662 91.9134 151.658 91.8901C151.655 91.8634 151.653 91.8351 151.653 91.8051C151.653 91.7651 151.657 91.7318 151.663 91.7051C151.667 91.6784 151.677 91.6568 151.693 91.6401C151.707 91.6234 151.727 91.6151 151.753 91.6151L151.753 92.0001ZM156.143 92.0001L156.143 91.6151L158.603 91.6151L158.368 91.8551L158.368 88.4201L158.798 88.4201L158.798 92.0001L156.143 92.0001ZM156.928 91.6151L156.928 89.1301L157.353 89.1301L157.353 91.6151L156.928 91.6151ZM159.67 92.0001L159.67 88.4201L160.095 88.4201L160.095 92.0001L159.67 92.0001Z" fill="#263238" fill-opacity="0.8"/>
<path d="M97.9086 172C97.5753 172 97.2969 171.962 97.0736 171.885C96.8503 171.805 96.6819 171.685 96.5686 171.525C96.4586 171.362 96.4036 171.157 96.4036 170.91C96.4036 170.83 96.4086 170.745 96.4186 170.655C96.4319 170.562 96.4469 170.472 96.4636 170.385C96.4803 170.295 96.4953 170.218 96.5086 170.155C96.5219 170.088 96.5303 170.043 96.5336 170.02L96.9486 170.1C96.9386 170.15 96.9236 170.222 96.9036 170.315C96.8869 170.408 96.8703 170.507 96.8536 170.61C96.8403 170.713 96.8336 170.813 96.8336 170.91C96.8336 171.033 96.8519 171.14 96.8886 171.23C96.9286 171.32 96.9903 171.393 97.0736 171.45C97.1603 171.507 97.2719 171.548 97.4086 171.575C97.5486 171.602 97.7169 171.615 97.9136 171.615L99.5736 171.615L99.3686 171.785L99.3686 168.42L99.7936 168.42L99.7936 172L97.9086 172ZM97.8586 170.25C97.8053 170.183 97.7636 170.118 97.7336 170.055C97.7036 169.988 97.6886 169.92 97.6886 169.85C97.6886 169.75 97.7136 169.662 97.7636 169.585C97.8136 169.505 97.8803 169.443 97.9636 169.4C98.0469 169.353 98.1369 169.33 98.2336 169.33C98.2869 169.33 98.3403 169.338 98.3936 169.355C98.4503 169.368 98.4986 169.388 98.5386 169.415L98.4036 169.655C98.3769 169.638 98.3503 169.628 98.3236 169.625C98.3003 169.618 98.2753 169.615 98.2486 169.615C98.1719 169.615 98.1103 169.637 98.0636 169.68C98.0203 169.723 97.9986 169.78 97.9986 169.85C97.9986 169.89 98.0069 169.93 98.0236 169.97C98.0436 170.01 98.0719 170.053 98.1086 170.1L97.8586 170.25ZM97.5936 170.255L97.5936 169.975L98.6086 169.975L98.6086 170.255L97.5936 170.255ZM102.248 172L102.248 169.5L102.678 169.5L102.678 171.785L102.468 171.615L103.228 171.615L103.228 172L102.248 172ZM101.173 170.38L101.173 169.99L102.248 169.99L102.248 170.38L101.173 170.38ZM100.233 173.125C100.19 173.125 100.145 173.122 100.098 173.115C100.048 173.112 100 173.108 99.9534 173.105L99.9934 172.72C100.04 172.723 100.085 172.727 100.128 172.73C100.168 172.737 100.203 172.74 100.233 172.74C100.387 172.74 100.51 172.682 100.603 172.565C100.697 172.448 100.743 172.287 100.743 172.08L100.743 169.5L101.173 169.5L101.173 172.08C101.173 172.287 101.133 172.468 101.053 172.625C100.973 172.785 100.862 172.908 100.718 172.995C100.578 173.082 100.417 173.125 100.233 173.125ZM103.228 172L103.228 171.615C103.248 171.615 103.265 171.62 103.278 171.63C103.292 171.637 103.302 171.648 103.308 171.665C103.315 171.682 103.32 171.702 103.323 171.725C103.327 171.748 103.328 171.775 103.328 171.805C103.328 171.835 103.327 171.863 103.323 171.89C103.32 171.913 103.315 171.933 103.308 171.95C103.302 171.967 103.292 171.98 103.278 171.99C103.265 171.997 103.248 172 103.228 172ZM101.898 169.05L101.898 168.585L102.323 168.585L102.323 169.05L101.898 169.05ZM102.613 169.05L102.613 168.585L103.038 168.585L103.038 169.05L102.613 169.05ZM105.905 172C105.788 172 105.673 171.978 105.56 171.935C105.447 171.888 105.34 171.818 105.24 171.725L105.515 171.435C105.592 171.498 105.66 171.545 105.72 171.575C105.78 171.602 105.842 171.615 105.905 171.615L106.8 171.615L106.62 171.795L106.62 170.61C106.62 170.553 106.613 170.47 106.6 170.36C106.59 170.25 106.573 170.127 106.55 169.99C106.53 169.85 106.505 169.71 106.475 169.57L106.895 169.5C106.918 169.617 106.942 169.747 106.965 169.89C106.988 170.033 107.008 170.17 107.025 170.3C107.042 170.43 107.05 170.533 107.05 170.61L107.05 172L105.905 172ZM103.23 172L103.23 171.615L103.96 171.615L103.855 171.72L103.855 170L104.275 170L104.275 172L103.23 172ZM104.275 172L104.275 171.615L104.82 171.615C104.933 171.615 105.018 171.598 105.075 171.565C105.135 171.532 105.177 171.465 105.2 171.365C105.223 171.265 105.235 171.118 105.235 170.925L105.235 169.75L105.66 169.75L105.66 170.925C105.66 171.188 105.632 171.4 105.575 171.56C105.518 171.717 105.428 171.83 105.305 171.9C105.182 171.967 105.02 172 104.82 172L104.275 172ZM103.23 172C103.21 172 103.193 171.997 103.18 171.99C103.167 171.98 103.157 171.967 103.15 171.95C103.143 171.933 103.138 171.913 103.135 171.89C103.132 171.863 103.13 171.835 103.13 171.805C103.13 171.765 103.133 171.732 103.14 171.705C103.143 171.678 103.153 171.657 103.17 171.64C103.183 171.623 103.203 171.615 103.23 171.615L103.23 172ZM105.25 168.375L105.25 167.94L105.64 167.94L105.64 168.375L105.25 168.375ZM104.875 169.05L104.875 168.585L105.3 168.585L105.3 169.05L104.875 169.05ZM105.59 169.05L105.59 168.585L106.015 168.585L106.015 169.05L105.59 169.05ZM107.894 172L107.894 168.42L108.319 168.42L108.319 172L107.894 172ZM107.864 173.365C107.811 173.298 107.769 173.232 107.739 173.165C107.709 173.102 107.694 173.035 107.694 172.965C107.694 172.865 107.719 172.775 107.769 172.695C107.819 172.618 107.886 172.557 107.969 172.51C108.053 172.467 108.143 172.445 108.239 172.445C108.293 172.445 108.346 172.452 108.399 172.465C108.456 172.482 108.504 172.503 108.544 172.53L108.409 172.77C108.383 172.753 108.356 172.742 108.329 172.735C108.306 172.732 108.281 172.73 108.254 172.73C108.178 172.73 108.116 172.752 108.069 172.795C108.026 172.838 108.004 172.895 108.004 172.965C108.004 173.005 108.013 173.045 108.029 173.085C108.049 173.125 108.078 173.168 108.114 173.215L107.864 173.365ZM107.599 173.37L107.599 173.09L108.614 173.09L108.614 173.37L107.599 173.37Z" fill="#CEAD3B"/>
</svg>
