<svg width="236" height="243" viewBox="0 0 236 243" fill="none" xmlns="http://www.w3.org/2000/svg">
<path opacity="0.9" d="M6.16928 31.2789C25.4974 -11.6552 93.9926 -5.53392 120.402 24.6885C146.812 54.9109 155.384 74.2807 179.238 63.0309C203.092 51.7811 233.498 54.8132 235.215 90.6493C236.933 126.485 208.934 168.834 164.599 181.33C120.264 193.827 120.219 238.194 61.5374 229.191C29.5439 224.286 28.8426 188.083 33.3871 158.147C37.9317 128.212 -16.2395 81.0667 6.16928 31.2789Z" fill="#CDAB35"/>
<path d="M166.852 52.0964L43.2348 51.9885C40.4414 51.9861 38.175 54.3519 38.1725 57.2726L38.0416 209.469C38.0391 212.39 40.3015 214.759 43.0948 214.762L166.712 214.87C169.505 214.872 171.772 212.506 171.774 209.586L171.905 57.3893C171.908 54.4686 169.645 52.0988 166.852 52.0964Z" fill="white"/>
<path opacity="0.6" d="M166.852 52.0964L43.2348 51.9885C40.4414 51.9861 38.175 54.3519 38.1725 57.2726L38.0416 209.469C38.0391 212.39 40.3015 214.759 43.0948 214.762L166.712 214.87C169.505 214.872 171.772 212.506 171.774 209.586L171.905 57.3893C171.908 54.4686 169.645 52.0988 166.852 52.0964Z" fill="white"/>
<path d="M61.781 126.808L148.184 126.883C149.206 126.884 150.033 127.713 150.033 128.735L150.022 140.918C150.021 141.94 149.192 142.767 148.17 142.766L61.7673 142.691C60.7456 142.69 59.918 141.861 59.9189 140.839L59.9294 128.656C59.9303 127.635 60.7592 126.807 61.781 126.808Z" fill="white" stroke="#CDAB35" stroke-width="0.3"/>
<path d="M61.7619 148.916L148.165 148.991C149.187 148.992 150.014 149.821 150.013 150.843L150.003 163.026C150.002 164.048 149.173 164.875 148.151 164.874L61.7482 164.799C60.7265 164.798 59.899 163.969 59.8998 162.947L59.9103 150.764C59.9112 149.742 60.7402 148.915 61.7619 148.916Z" fill="white" stroke="#CDAB35" stroke-width="0.3"/>
<path d="M148.138 180.543L61.7346 180.468C60.6301 180.467 59.7339 181.362 59.7329 182.466L59.7225 194.649C59.7215 195.754 60.6162 196.65 61.7207 196.651L148.124 196.726C149.228 196.727 150.125 195.833 150.126 194.728L150.136 182.545C150.137 181.44 149.242 180.544 148.138 180.543Z" fill="#CDAB35"/>
<path d="M61.8 104.693L148.203 104.768C149.225 104.769 150.052 105.598 150.052 106.62L150.041 118.803C150.04 119.825 149.211 120.652 148.19 120.652L61.7864 120.576C60.7647 120.575 59.9371 119.746 59.938 118.725L59.9485 106.541C59.9493 105.52 60.7783 104.692 61.8 104.693Z" fill="white" stroke="#CDAB35" stroke-width="0.3"/>
<path d="M61.8191 82.5853L148.222 82.6607C149.244 82.6616 150.071 83.4906 150.071 84.5123L150.06 96.6955C150.059 97.7172 149.23 98.5447 148.209 98.5438L61.8054 98.4685C60.7837 98.4676 59.9561 97.6386 59.957 96.6168L59.9675 84.4337C59.9684 83.412 60.7974 82.5844 61.8191 82.5853Z" fill="white" stroke="#CDAB35" stroke-width="0.3"/>
<path d="M25.6854 219.92L25.029 219.919C25.0299 218.901 25.8588 195.031 29.8352 191.024C33.9223 186.874 38.7209 190.974 38.7623 191.032L38.3473 191.552C38.1678 191.4 33.9492 187.813 30.2839 191.545C26.5012 195.306 25.6926 219.674 25.6854 219.92Z" fill="#CDAB35"/>
<path d="M25.3498 224.71L24.7004 224.644C24.7006 224.355 27.2957 195.661 17.3631 183.717L17.854 183.269C27.973 195.437 25.3777 224.421 25.3498 224.71Z" fill="#CDAB35"/>
<path d="M25.6701 221.647C25.5884 220.288 23.7018 188.411 31.3501 181.048L31.7919 181.555C24.3718 188.672 26.2992 221.286 26.3197 221.597L25.6701 221.647Z" fill="#CDAB35"/>
<path d="M24.7029 221.624C24.7031 221.407 24.4866 199.95 19.0516 196.716C18.5896 196.396 18.061 196.198 17.5103 196.137C16.9596 196.076 16.403 196.155 15.8874 196.366C12.7009 197.743 11.0026 204.099 10.9818 204.164L10.3532 203.983C10.4226 203.709 12.1555 197.244 15.6392 195.737C16.2461 195.483 16.9026 195.385 17.5532 195.452C18.2038 195.52 18.8294 195.75 19.3769 196.123C25.1295 199.575 25.3532 220.693 25.3593 221.617L24.7029 221.624Z" fill="#CDAB35"/>
<path d="M26.9415 221.64C26.9007 220.918 26.0785 204.705 30.4851 198.691C31.661 197.095 32.9607 196.337 34.3701 196.447C37.4999 196.674 39.8937 201.112 40.0248 201.3L39.4579 201.639C39.458 201.595 37.0986 197.302 34.3212 197.126C33.1536 197.031 32.0336 197.702 31.0029 199.11C26.7417 204.886 27.5843 221.439 27.591 221.605L26.9415 221.64Z" fill="#CDAB35"/>
<path d="M26.0621 223.887L25.4127 223.835C25.413 223.445 28.2102 184.738 23.6553 178.275L24.1808 177.871C28.8875 184.536 26.181 222.283 26.0621 223.887Z" fill="#CDAB35"/>
<path d="M14.3716 199.587C14.3716 199.587 17.1897 200.68 16.3515 203.244C15.5132 205.808 6.58257 210.027 6.58257 210.027C6.58257 210.027 2.84763 206.448 6.28663 200.635C9.72563 194.822 14.2972 197.752 14.3716 199.587Z" fill="#455A64"/>
<path opacity="0.2" d="M14.3716 199.587C14.3716 199.587 17.1897 200.68 16.3515 203.244C15.5132 205.808 6.58257 210.027 6.58257 210.027C6.58257 210.027 2.84763 206.448 6.28663 200.635C9.72563 194.822 14.2972 197.752 14.3716 199.587Z" fill="#455A64"/>
<path d="M26.6399 194.714C26.6399 194.714 23.6344 194.581 23.4593 197.283C23.2843 199.985 29.9455 207.49 29.9455 207.49C29.9455 207.49 34.7145 205.688 33.6977 198.932C32.681 192.176 27.3876 193.045 26.6399 194.714Z" fill="#455A64"/>
<path opacity="0.2" d="M26.6399 194.714C26.6399 194.714 23.6344 194.581 23.4593 197.283C23.2843 199.985 29.9455 207.49 29.9455 207.49C29.9455 207.49 34.7145 205.688 33.6977 198.932C32.681 192.176 27.3876 193.045 26.6399 194.714Z" fill="#455A64"/>
<path d="M29.1939 181.755C29.1939 181.755 27.1904 181.529 27.3504 180.257C27.5104 178.986 35.1412 175.705 39.6347 180.991C39.6347 180.991 36.7491 186.161 32.5895 186.23C28.43 186.298 29.1939 181.755 29.1939 181.755Z" fill="#455A64"/>
<path opacity="0.2" d="M29.1939 181.755C29.1939 181.755 27.1904 181.529 27.3504 180.257C27.5104 178.986 35.1412 175.705 39.6347 180.991C39.6347 180.991 36.7491 186.161 32.5895 186.23C28.43 186.298 29.1939 181.755 29.1939 181.755Z" fill="#455A64"/>
<path d="M25.4655 178.652C25.4655 178.652 27.275 179.571 27.7873 178.401C28.2996 177.231 23.4898 170.226 16.9862 172.236C16.9862 172.236 16.8083 178.218 20.3025 180.584C23.7966 182.949 25.4655 178.652 25.4655 178.652Z" fill="#455A64"/>
<path opacity="0.2" d="M25.4655 178.652C25.4655 178.652 27.275 179.571 27.7873 178.401C28.2996 177.231 23.4898 170.226 16.9862 172.236C16.9862 172.236 16.8083 178.218 20.3025 180.584C23.7966 182.949 25.4655 178.652 25.4655 178.652Z" fill="#455A64"/>
<path d="M34.9279 198.579C34.9279 198.579 33.547 197.407 35.04 196.838C36.5329 196.268 43.8499 196.441 43.9194 204.02C43.9194 204.02 35.3918 205.493 34.3441 202.603C33.2963 199.712 34.9279 198.579 34.9279 198.579Z" fill="#455A64"/>
<path opacity="0.2" d="M34.9279 198.579C34.9279 198.579 33.547 197.407 35.04 196.838C36.5329 196.268 43.8499 196.441 43.9194 204.02C43.9194 204.02 35.3918 205.493 34.3441 202.603C33.2963 199.712 34.9279 198.579 34.9279 198.579Z" fill="#455A64"/>
<path d="M17.5309 181.557C17.5309 181.557 18.9137 180.387 17.4218 179.823C15.9298 179.258 8.61259 179.403 8.53008 186.982C8.53008 186.982 17.0551 188.478 18.1078 185.589C19.1605 182.7 17.5309 181.557 17.5309 181.557Z" fill="#455A64"/>
<path opacity="0.2" d="M17.5309 181.557C17.5309 181.557 18.9137 180.387 17.4218 179.823C15.9298 179.258 8.61259 179.403 8.53008 186.982C8.53008 186.982 17.0551 188.478 18.1078 185.589C19.1605 182.7 17.5309 181.557 17.5309 181.557Z" fill="#455A64"/>
<path d="M22.0582 187.666C22.0582 187.666 22.1838 186.221 21.0847 186.805C19.9856 187.389 16.1748 191.663 20.1235 195.748C20.1235 195.748 25.4542 191.628 24.4957 189.481C23.5371 187.334 22.0582 187.666 22.0582 187.666Z" fill="#455A64"/>
<path opacity="0.2" d="M22.0582 187.666C22.0582 187.666 22.1838 186.221 21.0847 186.805C19.9856 187.389 16.1748 191.663 20.1235 195.748C20.1235 195.748 25.4542 191.628 24.4957 189.481C23.5371 187.334 22.0582 187.666 22.0582 187.666Z" fill="#455A64"/>
<path d="M36.1793 189.701C36.1793 189.701 35.3511 188.566 36.5673 188.429C37.7835 188.293 43.1992 189.808 41.9299 195.471C41.9299 195.471 35.3249 194.945 35.0229 192.575C34.721 190.205 36.1793 189.701 36.1793 189.701Z" fill="#455A64"/>
<path opacity="0.2" d="M36.1793 189.701C36.1793 189.701 35.3511 188.566 36.5673 188.429C37.7835 188.293 43.1992 189.808 41.9299 195.471C41.9299 195.471 35.3249 194.945 35.0229 192.575C34.721 190.205 36.1793 189.701 36.1793 189.701Z" fill="#455A64"/>
<path d="M14.8249 242.625L36.1821 242.644L39.0405 220.929L12.0038 220.905L14.8249 242.625Z" fill="#263238"/>
<path opacity="0.2" d="M14.8249 242.625L36.1821 242.644L39.0405 220.929L12.0038 220.905L14.8249 242.625Z" fill="white"/>
<path d="M41.7229 219.168L41.7211 221.234C41.7206 221.897 41.4681 222.533 41.0194 223.001C40.5707 223.47 39.9624 223.732 39.3283 223.732L11.4487 223.708C10.8147 223.707 10.2068 223.443 9.7589 222.974C9.31096 222.505 9.05963 221.869 9.0602 221.206L9.06198 219.14L41.7229 219.168Z" fill="#263238"/>
<path d="M219.86 13.4824L200.009 13.4652C198.389 13.4638 196.835 14.1353 195.688 15.332C194.542 16.5288 193.897 18.1527 193.895 19.8465L193.88 37.9083C193.878 38.7477 194.035 39.5791 194.341 40.355C194.647 41.131 195.096 41.8363 195.663 42.4306C196.229 43.0249 196.903 43.4966 197.644 43.8187C198.385 44.1407 199.18 44.3068 199.982 44.3075L205.779 44.3126L204.393 50.0117L209.925 44.3162L219.868 44.3248C221.49 44.3262 223.045 43.654 224.193 42.4559C225.341 41.2578 225.987 39.632 225.988 37.9363L226.004 19.8744C226.004 19.0321 225.846 18.1979 225.537 17.4199C225.228 16.6419 224.775 15.9355 224.204 15.3414C223.633 14.7473 222.955 14.2772 222.21 13.9581C221.464 13.6391 220.665 13.4774 219.86 13.4824Z" fill="#CDAB35"/>
<path d="M209.918 36.8748C214.172 36.8785 217.625 33.2749 217.629 28.8259C217.632 24.3769 214.186 20.7673 209.931 20.7636C205.677 20.7599 202.224 24.3635 202.22 28.8125C202.217 33.2614 205.663 36.871 209.918 36.8748Z" fill="white"/>
<path d="M209.933 18.5167C207.985 18.515 206.079 19.1176 204.458 20.2482C202.837 21.3789 201.572 22.9868 200.825 24.8687C200.078 26.7505 199.881 28.8218 200.259 30.8207C200.638 32.8195 201.574 34.656 202.951 36.098C204.328 37.5401 206.083 38.5228 207.994 38.922C209.905 39.3212 211.886 39.1189 213.687 38.3407C215.488 37.5625 217.028 36.2433 218.112 34.5501C219.196 32.8568 219.776 30.8654 219.777 28.8278C219.779 27.4746 219.526 26.1342 219.033 24.8834C218.539 23.6326 217.814 22.4959 216.9 21.5382C215.986 20.5805 214.9 19.8208 213.704 19.3023C212.509 18.7838 211.228 18.5169 209.933 18.5167ZM215.517 25.7463L209.575 33.0526C209.491 33.1581 209.385 33.2427 209.266 33.3001C209.146 33.3575 209.016 33.3863 208.884 33.3843C208.753 33.385 208.623 33.3556 208.503 33.298C208.384 33.2405 208.278 33.1563 208.193 33.0514L204.335 28.2869C204.254 28.1927 204.191 28.0823 204.151 27.9622C204.111 27.8422 204.095 27.715 204.103 27.5882C204.111 27.4615 204.144 27.3377 204.199 27.2244C204.254 27.111 204.33 27.0104 204.423 26.9284C204.516 26.8465 204.623 26.785 204.739 26.7475C204.856 26.71 204.978 26.6974 205.099 26.7103C205.22 26.7233 205.337 26.7615 205.443 26.8228C205.55 26.8841 205.643 26.9672 205.718 27.0671L208.886 30.9785L214.136 24.5241C214.294 24.3425 214.513 24.232 214.747 24.2159C214.981 24.1999 215.212 24.2795 215.391 24.4379C215.57 24.5964 215.683 24.8214 215.707 25.0655C215.73 25.3096 215.662 25.5537 215.517 25.7463Z" fill="#CDAB35"/>
<path d="M216.323 124.921C216.323 124.921 204.295 123.321 186.063 128.507C186.063 128.507 183.163 94.4473 183.512 89.766C183.862 85.0846 211.658 86.4816 211.658 86.4816C211.658 86.4816 212.337 100.115 214.14 108.339C215.943 116.562 217.264 123.34 216.323 124.921Z" fill="#CDAB35"/>
<path opacity="0.2" d="M216.323 124.921C216.323 124.921 204.295 123.321 186.063 128.507C186.063 128.507 183.163 94.4473 183.512 89.766C183.862 85.0846 211.658 86.4816 211.658 86.4816C211.658 86.4816 212.337 100.115 214.14 108.339C215.943 116.562 217.264 123.34 216.323 124.921Z" fill="black"/>
<path d="M177.18 237.637L182.085 239.093L183.259 231.111L183.892 226.842L178.987 225.385L178.146 231.106L177.18 237.637Z" fill="#E4897B"/>
<path d="M205.384 238.08L210.441 238.785L210.496 231.135L210.535 226.381L205.471 225.683L205.432 231.13L205.384 238.08Z" fill="#E4897B"/>
<path opacity="0.2" d="M205.471 225.683L205.432 231.13L210.496 231.134L210.535 226.381L205.471 225.683Z" fill="black"/>
<path opacity="0.2" d="M178.146 231.106L183.259 231.111L183.892 226.842L178.987 225.385L178.146 231.106Z" fill="black"/>
<path d="M155.527 92.5375L150.657 91.0305L151.543 96.8472C151.543 96.8472 155.964 97.9131 156.381 95.5076L155.527 92.5375Z" fill="#E4897B"/>
<path d="M145.792 92.3773L148.178 97.1044L151.543 96.8472L150.657 91.0306L145.792 92.3773Z" fill="#E4897B"/>
<path d="M162.248 94.0317L154.249 92.1535L153.52 96.2132L160.78 98.0691L162.248 94.0317Z" fill="#E4897B"/>
<path d="M186.455 90.3825L185.985 90.9673C184.975 92.2019 182.527 95.1835 179.975 97.7533C177.9 99.8467 175.826 101.673 174.444 102.04C170.525 103.091 156.289 98.6935 156.289 98.6935L157.765 92.655C157.765 92.655 171.03 94.5088 172.06 94.5097C172.84 94.5104 180.921 82.2932 182.877 81.2907L186.455 90.3825Z" fill="#455A64"/>
<path opacity="0.2" d="M185.985 90.9673C184.975 92.2019 182.527 95.1836 179.975 97.7534C180.49 93.5201 181.979 89.6345 183.936 87.1798C184.119 86.9429 184.328 86.7296 184.559 86.5445L185.985 90.9673Z" fill="black"/>
<path d="M177.243 236.835L182.812 236.688C182.913 236.685 183.011 236.717 183.091 236.78C183.172 236.844 183.229 236.933 183.254 237.035L184.425 241.725C184.453 241.837 184.456 241.955 184.435 242.068C184.413 242.182 184.368 242.29 184.301 242.383C184.235 242.476 184.149 242.552 184.051 242.605C183.953 242.659 183.844 242.689 183.733 242.692C181.722 242.691 178.813 242.688 176.291 242.737C173.334 242.821 171.455 242.667 168 242.729C165.927 242.785 165.238 240.603 166.123 240.38C170.083 239.357 172.674 239.562 176.047 237.253C176.403 237.005 176.816 236.861 177.243 236.835Z" fill="#263238"/>
<path d="M176.759 237.586C175.943 237.773 174.492 238.024 173.912 237.525C173.828 237.452 173.761 237.359 173.718 237.253C173.675 237.148 173.656 237.033 173.664 236.918C173.664 236.85 173.681 236.782 173.714 236.722C173.747 236.663 173.794 236.613 173.851 236.579C174.466 236.197 176.545 237.231 176.787 237.347C176.808 237.359 176.825 237.377 176.838 237.399C176.85 237.42 176.856 237.445 176.856 237.47C176.854 237.498 176.844 237.525 176.827 237.546C176.809 237.567 176.785 237.581 176.759 237.586ZM173.996 236.781L173.954 236.781C173.931 236.795 173.912 236.815 173.899 236.839C173.885 236.863 173.878 236.891 173.878 236.919C173.872 236.993 173.884 237.068 173.911 237.137C173.939 237.207 173.982 237.268 174.037 237.316C174.361 237.598 175.204 237.628 176.324 237.397C175.516 237.043 174.39 236.63 174.01 236.781L173.996 236.781Z" fill="#CDAB35"/>
<path d="M176.759 237.586L176.676 237.586C176.047 237.31 174.791 236.197 174.86 235.597C174.861 235.453 174.971 235.272 175.303 235.229C175.425 235.213 175.548 235.221 175.667 235.255C175.786 235.289 175.897 235.346 175.994 235.425C176.684 235.967 176.842 237.391 176.856 237.448C176.858 237.47 176.854 237.493 176.846 237.513C176.837 237.533 176.824 237.551 176.807 237.564L176.759 237.586ZM175.213 235.511C175.109 235.547 175.102 235.605 175.102 235.626C175.061 235.988 175.917 236.87 176.559 237.246C176.485 236.639 176.229 236.072 175.828 235.627C175.76 235.567 175.68 235.523 175.594 235.498C175.508 235.473 175.418 235.468 175.33 235.482C175.29 235.486 175.251 235.495 175.213 235.511Z" fill="#CDAB35"/>
<path d="M205.586 236.859L211.155 236.713C211.256 236.709 211.356 236.741 211.437 236.804C211.519 236.867 211.577 236.957 211.604 237.06L212.767 241.75C212.797 241.862 212.801 241.98 212.78 242.094C212.759 242.209 212.714 242.317 212.647 242.41C212.581 242.503 212.494 242.579 212.395 242.633C212.296 242.686 212.187 242.715 212.075 242.717C210.065 242.715 207.156 242.713 204.627 242.761C201.677 242.845 199.79 242.692 196.336 242.754C194.263 242.81 193.574 240.627 194.458 240.404C198.418 239.382 201.002 239.586 204.376 237.277C204.736 237.027 205.154 236.883 205.586 236.859Z" fill="#263238"/>
<path d="M205.108 237.61C204.293 237.798 202.835 238.049 202.262 237.55C202.177 237.477 202.11 237.384 202.067 237.278C202.024 237.172 202.006 237.058 202.013 236.943C202.013 236.874 202.03 236.807 202.063 236.747C202.096 236.687 202.143 236.638 202.2 236.604C202.809 236.221 204.894 237.256 205.129 237.372C205.152 237.381 205.171 237.399 205.184 237.421C205.196 237.443 205.201 237.469 205.198 237.495C205.196 237.521 205.187 237.547 205.171 237.567C205.155 237.588 205.133 237.603 205.108 237.61ZM202.345 236.806L202.304 236.806C202.281 236.82 202.262 236.84 202.25 236.864C202.238 236.888 202.232 236.916 202.235 236.943C202.228 237.018 202.238 237.093 202.266 237.163C202.294 237.232 202.337 237.293 202.393 237.341C202.718 237.623 203.554 237.652 204.68 237.422C203.858 237.067 202.732 236.655 202.352 236.806L202.345 236.806Z" fill="#CDAB35"/>
<path d="M205.108 237.61L205.018 237.61C204.397 237.335 203.133 236.221 203.21 235.622C203.21 235.477 203.314 235.297 203.645 235.254C203.767 235.236 203.891 235.245 204.01 235.278C204.128 235.312 204.239 235.37 204.336 235.449C204.819 236.013 205.121 236.721 205.198 237.473C205.202 237.495 205.199 237.518 205.19 237.538C205.182 237.559 205.168 237.576 205.15 237.589L205.108 237.61ZM203.555 235.535C203.459 235.572 203.452 235.629 203.452 235.651C203.403 236.012 204.266 236.894 204.908 237.271C204.83 236.665 204.574 236.1 204.177 235.652C204.109 235.592 204.029 235.548 203.943 235.523C203.858 235.498 203.768 235.493 203.68 235.507L203.555 235.535Z" fill="#CDAB35"/>
<path d="M215.918 121.814C218.588 133.961 213.904 229.505 213.904 229.505L205.019 229.497L201.287 149.87L187.227 229.481L177.727 228.751C183.998 167.071 189.509 130.251 189.509 130.251L189.513 125.599L215.918 121.814Z" fill="#263238"/>
<path opacity="0.4" d="M177.727 228.751L187.227 229.481L198.294 166.809L201.287 149.87L205.019 229.497L213.904 229.505C213.904 229.505 218.588 133.961 215.918 121.814L189.5 125.599L189.496 130.251C189.496 130.251 183.992 167.071 177.727 228.751Z" fill="#263238"/>
<path d="M211.168 76.8288C210.891 82.6353 211.027 88.4553 211.575 94.2407C211.944 98.2869 212.452 102.109 212.995 105.556C214.267 113.642 215.712 119.704 215.918 121.821L189.5 125.606C179.892 97.4209 183.534 81.0528 183.534 81.0528C185.51 80.2018 187.534 79.4797 189.595 78.8907C190.031 78.7682 190.473 78.653 190.929 78.545C194.64 77.7849 198.389 77.2479 202.158 76.9365C202.849 76.8721 203.602 76.8222 204.307 76.7867C207.914 76.602 211.168 76.8288 211.168 76.8288Z" fill="#263238"/>
<path d="M197.043 64.137C197.233 68.0024 197.62 75.2563 200.693 77.1013C200.693 77.1013 198.776 80.9071 194.637 81.2936C191.507 81.5799 191.717 78.3506 191.717 78.3506C193.529 76.9434 193.102 74.5516 191.723 71.8484L197.043 64.137Z" fill="#E4897B"/>
<path opacity="0.2" d="M194.87 67.285L191.743 71.8483C192.072 72.4731 192.348 73.1259 192.571 73.7997C194.022 73.1941 195.689 70.9125 195.449 69.2579C195.374 68.5686 195.178 67.8998 194.87 67.285Z" fill="black"/>
<path d="M183.576 56.3443C182.973 58.3522 183.301 62.4706 185.976 61.1364C188.651 59.8021 184.615 52.899 183.576 56.3443Z" fill="#263238"/>
<path d="M197.392 59.0727C197.685 64.2242 198.076 67.2228 195.925 70.1398C192.653 74.5223 186.325 72.884 184.561 67.9119C182.976 63.4311 182.768 55.7583 187.337 53.1614C188.35 52.5863 189.486 52.2893 190.638 52.2982C191.791 52.3071 192.922 52.6215 193.927 53.2121C194.932 53.8027 195.776 54.6501 196.383 55.6751C196.989 56.7001 197.336 57.8691 197.392 59.0727Z" fill="#E4897B"/>
<path d="M193.94 56.2665L193.945 50.4867C193.945 50.4867 199.805 50.0367 199.539 53.172C202.785 54.8582 201.247 60.1381 196.885 62.7208C194.496 60.7174 194.776 55.906 194.776 55.906C194.521 56.0431 194.23 56.1584 193.94 56.2665Z" fill="#263238"/>
<path d="M199.773 63.0917C199.659 63.7218 199.426 64.3217 199.088 64.8562C198.749 65.3907 198.312 65.8489 197.801 66.2039C196.418 67.1491 195.224 65.9849 195.177 64.3593C195.137 62.9143 195.795 60.6318 197.384 60.3442C197.732 60.2879 198.088 60.3225 198.419 60.4451C198.751 60.5676 199.049 60.7742 199.285 61.0464C199.522 61.3186 199.69 61.6479 199.775 62.0049C199.86 62.3618 199.859 62.7352 199.773 63.0917Z" fill="#E4897B"/>
<path d="M190.115 61.3639C190.163 61.783 189.99 62.1441 189.727 62.1727C189.465 62.2014 189.216 61.8905 189.168 61.4498C189.12 61.009 189.293 60.6696 189.549 60.6409C189.805 60.6123 190.067 60.9159 190.115 61.3639Z" fill="#263238"/>
<path d="M185.596 61.8874C185.644 62.3064 185.471 62.6675 185.208 62.6962C184.945 62.7248 184.697 62.414 184.649 61.9732C184.601 61.5325 184.774 61.1931 185.037 61.1644C185.299 61.1357 185.534 61.4683 185.596 61.8874Z" fill="#263238"/>
<path d="M187.053 61.9248C186.703 63.2164 186.184 64.4511 185.509 65.5936C185.807 65.754 186.134 65.8468 186.469 65.8657C186.804 65.8847 187.138 65.8295 187.451 65.7037L187.053 61.9248Z" fill="#DE5753"/>
<path d="M189.778 67.0495C189.608 67.0948 189.435 67.1284 189.26 67.1502C189.229 67.1501 189.199 67.1372 189.177 67.1141C189.155 67.0911 189.143 67.0598 189.143 67.0273C189.143 66.9947 189.155 66.9634 189.177 66.9404C189.199 66.9174 189.229 66.9045 189.26 66.9045C189.756 66.8579 190.235 66.6899 190.658 66.4142C191.081 66.1385 191.435 65.7627 191.694 65.3172C191.7 65.3026 191.708 65.2894 191.719 65.2785C191.73 65.2676 191.743 65.2592 191.758 65.2538C191.772 65.2484 191.787 65.2461 191.802 65.2471C191.817 65.2481 191.832 65.2523 191.846 65.2595C191.86 65.2665 191.873 65.2764 191.883 65.2886C191.894 65.3007 191.902 65.315 191.907 65.3305C191.912 65.346 191.914 65.3624 191.913 65.3788C191.912 65.3951 191.908 65.4111 191.901 65.4258C191.675 65.8359 191.369 66.1922 191.003 66.4718C190.638 66.7514 190.221 66.9481 189.778 67.0495Z" fill="#263238"/>
<path d="M191.332 59.6815C191.291 59.6917 191.247 59.6903 191.206 59.6776C191.165 59.6649 191.127 59.6413 191.097 59.6091C190.898 59.3797 190.649 59.202 190.372 59.0902C190.095 58.9783 189.797 58.9354 189.502 58.9647C189.471 58.972 189.44 58.9727 189.409 58.9667C189.378 58.9607 189.349 58.9481 189.323 58.9298C189.297 58.9115 189.275 58.8878 189.259 58.8602C189.242 58.8326 189.231 58.8017 189.226 58.7694C189.22 58.7376 189.22 58.7049 189.226 58.6731C189.232 58.6413 189.244 58.6112 189.262 58.5843C189.279 58.5575 189.301 58.5345 189.327 58.5167C189.353 58.4989 189.382 58.4866 189.413 58.4806C189.786 58.4345 190.164 58.482 190.516 58.6193C190.868 58.7565 191.183 58.9795 191.436 59.2698C191.459 59.2921 191.477 59.319 191.489 59.3489C191.501 59.3787 191.508 59.4108 191.508 59.4433C191.508 59.4758 191.501 59.5079 191.489 59.5377C191.477 59.5675 191.459 59.5943 191.436 59.6166C191.406 59.646 191.371 59.6682 191.332 59.6815Z" fill="#263238"/>
<path d="M183.462 60.4911C183.417 60.5089 183.368 60.5088 183.324 60.491C183.265 60.4696 183.217 60.4249 183.19 60.3667C183.163 60.3085 183.159 60.2415 183.179 60.1802C183.293 59.8084 183.492 59.4711 183.758 59.1971C184.024 58.9231 184.35 58.7205 184.707 58.6065C184.768 58.5903 184.832 58.5999 184.886 58.6331C184.939 58.6663 184.978 58.7205 184.994 58.7838C185.009 58.847 185 58.9141 184.968 58.9703C184.937 59.0265 184.885 59.0672 184.824 59.0835C184.542 59.1743 184.285 59.3363 184.076 59.5553C183.867 59.7744 183.713 60.0437 183.628 60.3395C183.615 60.3774 183.593 60.4112 183.564 60.4377C183.534 60.4642 183.5 60.4826 183.462 60.4911Z" fill="#263238"/>
<path d="M196.536 58.4072C196.536 58.4072 193.083 57.0821 191.509 54.9855C191.509 54.9855 188.372 55.8425 187.728 57.1497C187.435 56.8868 187.245 56.5199 187.196 56.1196C187.147 55.7193 187.241 55.314 187.46 54.982C187.46 54.982 185.111 55.5001 184.646 57.147C184.265 56.9566 183.951 56.6432 183.753 56.2529C183.554 55.8626 183.48 55.416 183.543 54.9786C183.543 54.9786 182.499 55.3895 182.159 57.1448C182.159 57.1448 179.573 51.4928 188.135 49.882C187.487 49.6515 186.808 49.5314 186.124 49.5262C186.124 49.5262 192.103 47.01 196.834 49.3188C201.565 51.6276 200.739 56.0917 196.536 58.4072Z" fill="#263238"/>
<path d="M217.952 126.685L209.66 127.834C209.66 127.834 206.261 102.841 204.762 94.7694L204.776 77.5457L209.11 76.3574L212.467 77.5524C213.385 81.0184 214.09 84.5423 214.579 88.1023C214.984 90.8048 215.348 93.695 215.67 96.6213C216.116 100.61 216.485 104.67 216.8 108.471C217.292 114.605 217.619 120.031 217.796 123.347C217.898 125.428 217.952 126.685 217.952 126.685Z" fill="#455A64"/>
<path d="M204.769 94.7549C204.769 94.7549 205.47 82.5963 209.117 76.3284C209.117 76.3284 209.028 74.5366 208.303 74.247C207.578 73.9573 204.785 75.6888 204.785 75.6888C204.785 75.6888 203.052 74.4447 202.671 75.0223C202.291 75.6 201.362 79.4427 204.769 94.7549Z" fill="#CDAB35"/>
<path opacity="0.7" d="M204.769 94.7549C204.769 94.7549 205.47 82.5963 209.117 76.3284C209.117 76.3284 209.028 74.5366 208.303 74.247C207.578 73.9573 204.785 75.6888 204.785 75.6888C204.785 75.6888 203.052 74.4447 202.671 75.0223C202.291 75.6 201.362 79.4427 204.769 94.7549Z" fill="white"/>
<path d="M185.889 129.988L186.835 130.711C186.835 130.711 185.46 122.655 186.044 102.281C186.045 101.299 186.108 100.352 186.144 99.4492C186.849 82.2116 189.422 79.0783 189.616 78.8906L187.225 79.7411L182.891 81.2978C181.572 95.999 185.889 129.988 185.889 129.988Z" fill="#455A64"/>
<path d="M186.291 96.4801C186.291 96.4801 183.911 84.6583 184.626 80.5842C185.341 76.51 187.889 78.3257 187.889 78.3257C187.889 78.3257 190.233 76.3481 190.929 78.5306C190.929 78.5306 187.707 80.8975 186.291 96.4801Z" fill="#CDAB35"/>
<path opacity="0.7" d="M186.291 96.4801C186.291 96.4801 183.911 84.6583 184.626 80.5842C185.341 76.51 187.889 78.3257 187.889 78.3257C187.889 78.3257 190.233 76.3481 190.929 78.5306C190.929 78.5306 187.707 80.8975 186.291 96.4801Z" fill="white"/>
<path opacity="0.2" d="M215.656 96.5923C212.12 94.5157 211.655 89.104 211.655 89.104C211.869 89.0175 213.183 88.549 214.565 88.0734C214.97 90.7758 215.334 93.666 215.656 96.5923Z" fill="black"/>
<path opacity="0.2" d="M198.294 166.809L201.287 149.87L200.721 140.903C200.721 140.903 196.624 156.447 198.294 166.809Z" fill="black"/>
<path opacity="0.2" d="M217.782 123.319C215.557 123.158 213.637 123.004 213.637 123.004L213.223 113.547C213.917 113.093 214.75 112.934 215.552 113.101C216.1 111.59 216.515 110.031 216.793 108.442C217.271 114.576 217.605 120.009 217.782 123.319Z" fill="black"/>
<path d="M218.555 108.436L214.216 115.708L217.642 117.77L221.717 111.22L218.555 108.436Z" fill="#E4897B"/>
<path d="M212.28 77.4365C215.196 77.7714 227.576 95.5695 228.117 100.931C228.659 106.292 220.822 115.54 220.822 115.54L215.601 112.32C215.601 112.32 220.915 103.793 221.193 101.488C221.472 99.1838 211.496 89.8624 211.496 89.8624C210.743 87.7164 210.329 85.4564 210.271 83.1712C210.137 79.2553 212.28 77.4365 212.28 77.4365Z" fill="#455A64"/>
<path d="M213.216 113.554C213.216 113.554 217.672 114.555 219.466 117.49C219.466 117.49 217.595 123.593 216.261 124.256C214.927 124.92 211.624 124.917 211.624 124.917C211.624 124.917 211.416 118.126 213.216 113.554Z" fill="#455A64"/>
<path d="M96.4714 173.985L96.1164 173.985L96.1164 173.815C96.1164 173.708 96.0797 173.612 96.0064 173.525C95.9364 173.438 95.828 173.333 95.6814 173.21C95.5514 173.103 95.453 173.01 95.3864 172.93C95.3197 172.847 95.2747 172.758 95.2514 172.665C95.228 172.572 95.2164 172.452 95.2164 172.305C95.2164 172.108 95.253 171.95 95.3264 171.83C95.403 171.71 95.5164 171.623 95.6664 171.57C95.8164 171.517 96.0047 171.49 96.2314 171.49C96.318 171.49 96.413 171.498 96.5164 171.515C96.6197 171.532 96.7214 171.552 96.8214 171.575C96.9214 171.598 97.008 171.622 97.0814 171.645L97.0514 171.985C96.9847 171.968 96.9047 171.952 96.8114 171.935C96.718 171.918 96.6247 171.905 96.5314 171.895C96.438 171.882 96.3564 171.875 96.2864 171.875C96.0697 171.875 95.9097 171.91 95.8064 171.98C95.7064 172.05 95.6564 172.168 95.6564 172.335C95.6564 172.428 95.6664 172.507 95.6864 172.57C95.7097 172.633 95.7514 172.698 95.8114 172.765C95.8747 172.832 95.9664 172.915 96.0864 173.015C96.1764 173.092 96.2547 173.165 96.3214 173.235C96.3914 173.305 96.4447 173.375 96.4814 173.445C96.5214 173.515 96.5414 173.59 96.5414 173.67C96.5414 173.737 96.533 173.797 96.5164 173.85C96.503 173.903 96.488 173.948 96.4714 173.985ZM96.5314 174.995L96.0714 174.995L96.0714 174.405L96.5314 174.405L96.5314 174.995ZM98.9677 175C98.6344 175 98.356 174.962 98.1327 174.885C97.9094 174.805 97.741 174.685 97.6277 174.525C97.5177 174.362 97.4627 174.157 97.4627 173.91C97.4627 173.83 97.4677 173.745 97.4777 173.655C97.491 173.562 97.506 173.472 97.5227 173.385C97.5394 173.295 97.5544 173.218 97.5677 173.155C97.581 173.088 97.5894 173.043 97.5927 173.02L98.0077 173.1C97.9977 173.15 97.9827 173.222 97.9627 173.315C97.946 173.408 97.9294 173.507 97.9127 173.61C97.8994 173.713 97.8927 173.813 97.8927 173.91C97.8927 174.033 97.911 174.14 97.9477 174.23C97.9877 174.32 98.0494 174.393 98.1327 174.45C98.2194 174.507 98.331 174.548 98.4677 174.575C98.6077 174.602 98.776 174.615 98.9727 174.615L100.428 174.615L100.428 172.5L100.853 172.5L100.853 175L98.9677 175ZM98.9527 175.925L98.9527 175.46L99.3827 175.46L99.3827 175.925L98.9527 175.925ZM102.147 175L102.147 174.615L102.752 174.615L102.752 175L102.147 175ZM101.722 175L101.722 171.42L102.147 171.42L102.147 175L101.722 175ZM102.752 175L102.752 174.615C102.772 174.615 102.789 174.62 102.802 174.63C102.815 174.637 102.825 174.648 102.832 174.665C102.839 174.682 102.844 174.702 102.847 174.725C102.85 174.748 102.852 174.775 102.852 174.805C102.852 174.835 102.85 174.863 102.847 174.89C102.844 174.913 102.839 174.933 102.832 174.95C102.825 174.967 102.815 174.98 102.802 174.99C102.789 174.997 102.772 175 102.752 175ZM106.571 175L106.571 174.615L107.111 174.615L107.111 175L106.571 175ZM102.751 175C102.731 175 102.714 174.997 102.701 174.99C102.688 174.98 102.678 174.967 102.671 174.95C102.664 174.933 102.659 174.913 102.656 174.89C102.653 174.863 102.651 174.835 102.651 174.805C102.651 174.765 102.654 174.732 102.661 174.705C102.664 174.678 102.674 174.657 102.691 174.64C102.704 174.623 102.724 174.615 102.751 174.615L102.751 175ZM105.426 175C105.309 175 105.194 174.978 105.081 174.935C104.968 174.888 104.861 174.818 104.761 174.725L105.036 174.435C105.113 174.498 105.181 174.545 105.241 174.575C105.301 174.602 105.363 174.615 105.426 174.615L106.321 174.615L106.141 174.795L106.141 173.61C106.141 173.553 106.134 173.47 106.121 173.36C106.111 173.25 106.094 173.127 106.071 172.99C106.051 172.85 106.026 172.71 105.996 172.57L106.416 172.5C106.439 172.617 106.463 172.747 106.486 172.89C106.509 173.033 106.529 173.17 106.546 173.3C106.563 173.43 106.571 173.533 106.571 173.61L106.571 175L105.426 175ZM102.751 175L102.751 174.615L103.481 174.615L103.376 174.72L103.376 173L103.796 173L103.796 175L102.751 175ZM103.796 175L103.796 174.615L104.341 174.615C104.454 174.615 104.539 174.598 104.596 174.565C104.656 174.532 104.698 174.465 104.721 174.365C104.744 174.265 104.756 174.118 104.756 173.925L104.756 172.75L105.181 172.75L105.181 173.925C105.181 174.188 105.153 174.4 105.096 174.56C105.039 174.717 104.949 174.83 104.826 174.9C104.703 174.967 104.541 175 104.341 175L103.796 175ZM107.111 175L107.111 174.615C107.131 174.615 107.148 174.62 107.161 174.63C107.174 174.637 107.184 174.648 107.191 174.665C107.198 174.682 107.203 174.702 107.206 174.725C107.209 174.748 107.211 174.775 107.211 174.805C107.211 174.835 107.209 174.863 107.206 174.89C107.203 174.913 107.198 174.933 107.191 174.95C107.184 174.967 107.174 174.98 107.161 174.99C107.148 174.997 107.131 175 107.111 175ZM107.111 175L107.111 174.615L109.306 174.615L109.176 174.73L109.176 173.535C109.176 173.318 109.108 173.157 108.971 173.05C108.838 172.943 108.635 172.89 108.361 172.89C108.275 172.89 108.151 172.898 107.991 172.915C107.835 172.928 107.668 172.947 107.491 172.97L107.441 172.625C107.578 172.592 107.726 172.563 107.886 172.54C108.05 172.513 108.208 172.5 108.361 172.5C108.615 172.5 108.835 172.54 109.021 172.62C109.208 172.7 109.351 172.817 109.451 172.97C109.551 173.123 109.601 173.312 109.601 173.535L109.601 175L107.111 175ZM107.111 175C107.091 175 107.075 174.997 107.061 174.99C107.048 174.98 107.038 174.967 107.031 174.95C107.025 174.933 107.02 174.913 107.016 174.89C107.013 174.863 107.011 174.835 107.011 174.805C107.011 174.765 107.015 174.732 107.021 174.705C107.025 174.678 107.035 174.657 107.051 174.64C107.065 174.623 107.085 174.615 107.111 174.615L107.111 175ZM114.588 175L114.588 174.615L115.128 174.615L115.128 175L114.588 175ZM112.703 175C112.37 175 112.091 174.962 111.868 174.885C111.645 174.805 111.476 174.685 111.363 174.525C111.253 174.362 111.198 174.157 111.198 173.91C111.198 173.83 111.203 173.745 111.213 173.655C111.226 173.562 111.241 173.472 111.258 173.385C111.275 173.295 111.29 173.218 111.303 173.155C111.316 173.088 111.325 173.043 111.328 173.02L111.743 173.1C111.733 173.15 111.718 173.222 111.698 173.315C111.681 173.408 111.665 173.507 111.648 173.61C111.635 173.713 111.628 173.813 111.628 173.91C111.628 174.033 111.646 174.14 111.683 174.23C111.723 174.32 111.785 174.393 111.868 174.45C111.955 174.507 112.066 174.548 112.203 174.575C112.343 174.602 112.511 174.615 112.708 174.615L114.368 174.615L114.163 174.785L114.163 171.42L114.588 171.42L114.588 175L112.703 175ZM115.128 175L115.128 174.615C115.148 174.615 115.165 174.62 115.178 174.63C115.191 174.637 115.201 174.648 115.208 174.665C115.215 174.682 115.22 174.702 115.223 174.725C115.226 174.748 115.228 174.775 115.228 174.805C115.228 174.835 115.226 174.863 115.223 174.89C115.22 174.913 115.215 174.933 115.208 174.95C115.201 174.967 115.191 174.98 115.178 174.99C115.165 174.997 115.148 175 115.128 175ZM112.653 173.25C112.6 173.183 112.558 173.118 112.528 173.055C112.498 172.988 112.483 172.92 112.483 172.85C112.483 172.75 112.508 172.662 112.558 172.585C112.608 172.505 112.675 172.443 112.758 172.4C112.841 172.353 112.931 172.33 113.028 172.33C113.081 172.33 113.135 172.338 113.188 172.355C113.245 172.368 113.293 172.388 113.333 172.415L113.198 172.655C113.171 172.638 113.145 172.628 113.118 172.625C113.095 172.618 113.07 172.615 113.043 172.615C112.966 172.615 112.905 172.637 112.858 172.68C112.815 172.723 112.793 172.78 112.793 172.85C112.793 172.89 112.801 172.93 112.818 172.97C112.838 173.01 112.866 173.053 112.903 173.1L112.653 173.25ZM112.388 173.255L112.388 172.975L113.403 172.975L113.403 173.255L112.388 173.255ZM115.129 175L115.129 174.615L115.914 174.615L115.704 174.785L115.704 172.5L116.134 172.5L116.134 175L115.129 175ZM115.129 175C115.109 175 115.092 174.997 115.079 174.99C115.066 174.98 115.056 174.967 115.049 174.95C115.042 174.933 115.037 174.913 115.034 174.89C115.031 174.863 115.029 174.835 115.029 174.805C115.029 174.765 115.032 174.732 115.039 174.705C115.042 174.678 115.052 174.657 115.069 174.64C115.082 174.623 115.102 174.615 115.129 174.615L115.129 175ZM115.329 175.925L115.329 175.46L115.754 175.46L115.754 175.925L115.329 175.925ZM116.044 175.925L116.044 175.46L116.469 175.46L116.469 175.925L116.044 175.925ZM118.685 175L118.685 174.615L119.22 174.615L119.22 175L118.685 175ZM116.735 175L116.735 174.615L118.595 174.615L118.255 174.915L118.255 173.86C118.255 173.613 118.227 173.42 118.17 173.28C118.117 173.137 118.027 173.035 117.9 172.975C117.773 172.915 117.603 172.885 117.39 172.885L116.985 172.885L116.985 172.5L117.39 172.5C117.663 172.5 117.897 172.543 118.09 172.63C118.283 172.713 118.43 172.855 118.53 173.055C118.633 173.252 118.685 173.52 118.685 173.86L118.685 175L116.735 175ZM119.22 175L119.22 174.615C119.24 174.615 119.257 174.62 119.27 174.63C119.283 174.637 119.293 174.648 119.3 174.665C119.307 174.682 119.312 174.702 119.315 174.725C119.318 174.748 119.32 174.775 119.32 174.805C119.32 174.835 119.318 174.863 119.315 174.89C119.312 174.913 119.307 174.933 119.3 174.95C119.293 174.967 119.283 174.98 119.27 174.99C119.257 174.997 119.24 175 119.22 175ZM119.821 175L119.821 171.42L120.251 171.42L120.251 175L119.821 175ZM119.221 175L119.221 174.615L119.821 174.615L119.821 175L119.221 175ZM119.221 175C119.201 175 119.184 174.997 119.171 174.99C119.157 174.98 119.147 174.967 119.141 174.95C119.134 174.933 119.129 174.913 119.126 174.89C119.122 174.863 119.121 174.835 119.121 174.805C119.121 174.765 119.124 174.732 119.131 174.705C119.134 174.678 119.144 174.657 119.161 174.64C119.174 174.623 119.194 174.615 119.221 174.615L119.221 175ZM127.476 175L127.476 174.615L128.016 174.615L128.016 175L127.476 175ZM123.346 176.24C123.079 176.24 122.837 176.19 122.621 176.09C122.407 175.993 122.237 175.857 122.111 175.68C121.987 175.507 121.926 175.308 121.926 175.085C121.926 175.015 121.931 174.923 121.941 174.81C121.954 174.693 121.969 174.565 121.986 174.425C122.006 174.285 122.027 174.143 122.051 174C122.074 173.853 122.096 173.715 122.116 173.585L122.536 173.65C122.499 173.877 122.467 174.088 122.441 174.285C122.414 174.478 122.392 174.643 122.376 174.78C122.362 174.917 122.356 175.018 122.356 175.085C122.356 175.235 122.396 175.367 122.476 175.48C122.559 175.597 122.676 175.688 122.826 175.755C122.976 175.822 123.149 175.855 123.346 175.855C123.542 175.855 123.711 175.823 123.851 175.76C123.991 175.7 124.097 175.613 124.171 175.5C124.244 175.39 124.281 175.262 124.281 175.115L124.281 173L124.706 173L124.706 175.115C124.706 175.348 124.644 175.548 124.521 175.715C124.401 175.885 124.237 176.015 124.031 176.105C123.827 176.195 123.599 176.24 123.346 176.24ZM124.706 175L124.706 174.615L125.246 174.615C125.359 174.615 125.446 174.598 125.506 174.565C125.566 174.532 125.607 174.465 125.631 174.365C125.654 174.265 125.666 174.118 125.666 173.925L125.666 172.75L126.091 172.75L126.091 173.925C126.091 174.188 126.061 174.4 126.001 174.56C125.944 174.717 125.854 174.83 125.731 174.9C125.607 174.967 125.446 175 125.246 175L124.706 175ZM126.331 175C126.214 175 126.099 174.978 125.986 174.935C125.876 174.888 125.769 174.818 125.666 174.725L125.941 174.435C126.017 174.498 126.086 174.545 126.146 174.575C126.209 174.602 126.271 174.615 126.331 174.615L127.231 174.615L127.051 174.795L127.051 173.61C127.051 173.553 127.044 173.47 127.031 173.36C127.017 173.25 126.999 173.127 126.976 172.99C126.956 172.85 126.932 172.71 126.906 172.57L127.326 172.5C127.349 172.617 127.372 172.747 127.396 172.89C127.419 173.033 127.437 173.17 127.451 173.3C127.467 173.43 127.476 173.533 127.476 173.61L127.476 175L126.331 175ZM128.016 175L128.016 174.615C128.036 174.615 128.052 174.62 128.066 174.63C128.079 174.637 128.089 174.648 128.096 174.665C128.102 174.682 128.107 174.702 128.111 174.725C128.114 174.748 128.116 174.775 128.116 174.805C128.116 174.835 128.114 174.863 128.111 174.89C128.107 174.913 128.102 174.933 128.096 174.95C128.089 174.967 128.079 174.98 128.066 174.99C128.052 174.997 128.036 175 128.016 175ZM129.02 175L129.02 174.615L129.57 174.615L129.57 175L129.02 175ZM129.57 175L129.57 174.615C129.59 174.615 129.606 174.62 129.62 174.63C129.633 174.637 129.643 174.648 129.65 174.665C129.656 174.682 129.661 174.702 129.665 174.725C129.668 174.748 129.67 174.775 129.67 174.805C129.67 174.835 129.668 174.863 129.665 174.89C129.661 174.913 129.656 174.933 129.65 174.95C129.643 174.967 129.633 174.98 129.62 174.99C129.606 174.997 129.59 175 129.57 175ZM128.015 175C127.995 175 127.978 174.997 127.965 174.99C127.951 174.98 127.941 174.967 127.935 174.95C127.928 174.933 127.923 174.913 127.92 174.89C127.916 174.863 127.915 174.835 127.915 174.805C127.915 174.765 127.918 174.732 127.925 174.705C127.928 174.678 127.938 174.657 127.955 174.64C127.968 174.623 127.988 174.615 128.015 174.615L128.015 175ZM128.015 175L128.015 174.615L128.8 174.615L128.59 174.785L128.59 172.5L129.02 172.5L129.02 175L128.015 175ZM128.215 175.925L128.215 175.46L128.64 175.46L128.64 175.925L128.215 175.925ZM128.93 175.925L128.93 175.46L129.355 175.46L129.355 175.925L128.93 175.925ZM130.167 175L130.167 171.42L130.597 171.42L130.597 175L130.167 175ZM129.567 175L129.567 174.615L130.167 174.615L130.167 175L129.567 175ZM129.567 175C129.547 175 129.531 174.997 129.517 174.99C129.504 174.98 129.494 174.967 129.487 174.95C129.481 174.933 129.476 174.913 129.472 174.89C129.469 174.863 129.467 174.835 129.467 174.805C129.467 174.765 129.471 174.732 129.477 174.705C129.481 174.678 129.491 174.657 129.507 174.64C129.521 174.623 129.541 174.615 129.567 174.615L129.567 175Z" fill="#263238" fill-opacity="0.8"/>
<path d="M129.406 159L129.406 158.615L129.946 158.615L129.946 159L129.406 159ZM129.946 159L129.946 158.615C129.966 158.615 129.983 158.62 129.996 158.63C130.009 158.637 130.019 158.648 130.026 158.665C130.033 158.682 130.038 158.702 130.041 158.725C130.044 158.748 130.046 158.775 130.046 158.805C130.046 158.835 130.044 158.863 130.041 158.89C130.038 158.913 130.033 158.933 130.026 158.95C130.019 158.967 130.009 158.98 129.996 158.99C129.983 158.997 129.966 159 129.946 159ZM124.211 160.125C124.168 160.125 124.123 160.122 124.076 160.115C124.026 160.112 123.978 160.108 123.931 160.105L123.971 159.72C124.018 159.723 124.063 159.727 124.106 159.73C124.146 159.737 124.181 159.74 124.211 159.74C124.364 159.74 124.488 159.682 124.581 159.565C124.674 159.448 124.721 159.287 124.721 159.08L124.721 156.5L125.151 156.5L125.151 159.08C125.151 159.287 125.111 159.468 125.031 159.625C124.951 159.785 124.839 159.908 124.696 159.995C124.556 160.082 124.394 160.125 124.211 160.125ZM128.281 159C128.164 159 128.049 158.978 127.936 158.935C127.826 158.888 127.718 158.818 127.611 158.725L127.891 158.435C127.964 158.498 128.031 158.545 128.091 158.575C128.154 158.602 128.218 158.615 128.281 158.615L129.176 158.615L129.001 158.795L129.001 157.61C129.001 157.553 128.994 157.47 128.981 157.36C128.971 157.25 128.954 157.127 128.931 156.99C128.911 156.85 128.886 156.71 128.856 156.57L129.271 156.5C129.294 156.617 129.318 156.747 129.341 156.89C129.364 157.033 129.383 157.17 129.396 157.3C129.413 157.43 129.421 157.533 129.421 157.61L129.421 159L128.281 159ZM125.151 157.38L125.151 156.99L126.226 156.99L126.226 157.38L125.151 157.38ZM126.226 159L126.226 156.5L126.656 156.5L126.656 159L126.226 159ZM126.656 159L126.656 158.615L127.191 158.615C127.304 158.615 127.391 158.598 127.451 158.565C127.511 158.532 127.553 158.465 127.576 158.365C127.599 158.265 127.611 158.118 127.611 157.925L127.611 156.75L128.041 156.75L128.041 157.925C128.041 158.188 128.011 158.4 127.951 158.56C127.894 158.717 127.804 158.83 127.681 158.9C127.558 158.967 127.394 159 127.191 159L126.656 159ZM130.547 159L130.547 155.42L130.977 155.42L130.977 159L130.547 159ZM129.947 159L129.947 158.615L130.547 158.615L130.547 159L129.947 159ZM129.947 159C129.927 159 129.91 158.997 129.897 158.99C129.883 158.98 129.873 158.967 129.867 158.95C129.86 158.933 129.855 158.913 129.852 158.89C129.848 158.863 129.847 158.835 129.847 158.805C129.847 158.765 129.85 158.732 129.857 158.705C129.86 158.678 129.87 158.657 129.887 158.64C129.9 158.623 129.92 158.615 129.947 158.615L129.947 159ZM131.828 159L131.828 155.42L132.253 155.42L132.253 159L131.828 159ZM135.159 159C134.872 159 134.645 158.957 134.479 158.87C134.315 158.78 134.199 158.643 134.129 158.46C134.062 158.273 134.029 158.037 134.029 157.75C134.029 157.467 134.062 157.232 134.129 157.045C134.199 156.858 134.315 156.722 134.479 156.635C134.645 156.545 134.872 156.5 135.159 156.5L136.209 156.5L136.209 158.785L135.779 158.785L135.779 156.72L135.974 156.885L135.159 156.885C134.975 156.885 134.832 156.908 134.729 156.955C134.629 156.998 134.559 157.082 134.519 157.205C134.479 157.328 134.459 157.51 134.459 157.75C134.459 157.99 134.477 158.172 134.514 158.295C134.554 158.418 134.625 158.503 134.729 158.55C134.832 158.593 134.975 158.615 135.159 158.615L136.749 158.615L136.749 159L135.159 159ZM136.749 159L136.749 158.615C136.769 158.615 136.785 158.62 136.799 158.63C136.812 158.637 136.822 158.648 136.829 158.665C136.835 158.682 136.84 158.702 136.844 158.725C136.847 158.748 136.849 158.775 136.849 158.805C136.849 158.835 136.847 158.863 136.844 158.89C136.84 158.913 136.835 158.933 136.829 158.95C136.822 158.967 136.812 158.98 136.799 158.99C136.785 158.997 136.769 159 136.749 159ZM134.644 156.05L134.644 155.585L135.069 155.585L135.069 156.05L134.644 156.05ZM135.359 156.05L135.359 155.585L135.784 155.585L135.784 156.05L135.359 156.05ZM139.599 159L139.599 158.615L140.139 158.615L140.139 159L139.599 159ZM136.749 159C136.729 159 136.712 158.997 136.699 158.99C136.685 158.98 136.675 158.967 136.669 158.95C136.662 158.933 136.657 158.913 136.654 158.89C136.65 158.863 136.649 158.835 136.649 158.805C136.649 158.765 136.652 158.732 136.659 158.705C136.662 158.678 136.672 158.657 136.689 158.64C136.702 158.623 136.722 158.615 136.749 158.615L136.749 159ZM136.749 159L136.749 158.615L139.464 158.615L139.174 158.825L139.174 157.775C139.174 157.548 139.147 157.37 139.094 157.24C139.044 157.11 138.955 157.018 138.829 156.965C138.705 156.912 138.537 156.885 138.324 156.885C138.184 156.885 138.045 156.895 137.909 156.915C137.772 156.932 137.665 156.957 137.589 156.99L137.849 156.73C137.829 156.81 137.809 156.912 137.789 157.035C137.769 157.155 137.752 157.285 137.739 157.425C137.725 157.562 137.719 157.698 137.719 157.835C137.719 157.975 137.725 158.113 137.739 158.25C137.752 158.387 137.767 158.505 137.784 158.605C137.8 158.702 137.814 158.77 137.824 158.81L137.419 158.925C137.405 158.882 137.389 158.807 137.369 158.7C137.349 158.593 137.33 158.465 137.314 158.315C137.3 158.165 137.294 158.005 137.294 157.835C137.294 157.672 137.302 157.513 137.319 157.36C137.335 157.203 137.354 157.062 137.374 156.935C137.397 156.808 137.419 156.707 137.439 156.63C137.512 156.6 137.629 156.57 137.789 156.54C137.952 156.51 138.13 156.495 138.324 156.495C138.607 156.495 138.844 156.537 139.034 156.62C139.224 156.703 139.365 156.838 139.459 157.025C139.552 157.212 139.599 157.462 139.599 157.775L139.599 159L136.749 159ZM140.139 159L140.139 158.615C140.159 158.615 140.175 158.62 140.189 158.63C140.202 158.637 140.212 158.648 140.219 158.665C140.225 158.682 140.23 158.702 140.234 158.725C140.237 158.748 140.239 158.775 140.239 158.805C140.239 158.835 140.237 158.863 140.234 158.89C140.23 158.913 140.225 158.933 140.219 158.95C140.212 158.967 140.202 158.98 140.189 158.99C140.175 158.997 140.159 159 140.139 159ZM141.167 159L141.167 158.615L141.702 158.615L141.702 159L141.167 159ZM140.137 159C140.117 159 140.101 158.997 140.087 158.99C140.074 158.98 140.064 158.967 140.057 158.95C140.051 158.933 140.046 158.913 140.042 158.89C140.039 158.863 140.037 158.835 140.037 158.805C140.037 158.765 140.041 158.732 140.047 158.705C140.051 158.678 140.061 158.657 140.077 158.64C140.091 158.623 140.111 158.615 140.137 158.615L140.137 159ZM140.737 159L140.737 155.42L141.167 155.42L141.167 159L140.737 159ZM140.137 159L140.137 158.615L140.737 158.615L140.737 159L140.137 159ZM141.702 159L141.702 158.615C141.722 158.615 141.739 158.62 141.752 158.63C141.766 158.637 141.776 158.648 141.782 158.665C141.789 158.682 141.794 158.702 141.797 158.725C141.801 158.748 141.802 158.775 141.802 158.805C141.802 158.835 141.801 158.863 141.797 158.89C141.794 158.913 141.789 158.933 141.782 158.95C141.776 158.967 141.766 158.98 141.752 158.99C141.739 158.997 141.722 159 141.702 159ZM141.705 159L141.705 158.615L144.205 158.615L144.055 158.745L144.055 157.885C144.055 157.705 144.031 157.558 143.985 157.445C143.938 157.328 143.868 157.242 143.775 157.185C143.685 157.128 143.57 157.1 143.43 157.1L142.34 157.1L142.035 156.645L142.255 156.22C142.295 156.15 142.335 156.078 142.375 156.005C142.418 155.928 142.471 155.84 142.535 155.74C142.598 155.64 142.678 155.518 142.775 155.375L143.13 155.59C143.036 155.733 142.96 155.853 142.9 155.95C142.84 156.043 142.79 156.125 142.75 156.195C142.71 156.262 142.671 156.33 142.635 156.4L142.39 156.865L142.29 156.71L143.43 156.71C143.64 156.71 143.813 156.747 143.95 156.82C144.086 156.89 144.193 156.985 144.27 157.105C144.35 157.222 144.405 157.348 144.435 157.485C144.468 157.622 144.485 157.755 144.485 157.885L144.485 159L141.705 159ZM141.705 159C141.685 159 141.668 158.997 141.655 158.99C141.641 158.98 141.631 158.967 141.625 158.95C141.618 158.933 141.613 158.913 141.61 158.89C141.606 158.863 141.605 158.835 141.605 158.805C141.605 158.765 141.608 158.732 141.615 158.705C141.618 158.678 141.628 158.657 141.645 158.64C141.658 158.623 141.678 158.615 141.705 158.615L141.705 159Z" fill="#CDAB35" fill-opacity="0.5"/>
<path d="M132.231 136L132.231 135.615L132.771 135.615L132.771 136L132.231 136ZM130.871 137.24C130.605 137.24 130.363 137.19 130.146 137.09C129.933 136.993 129.763 136.857 129.636 136.68C129.513 136.507 129.451 136.308 129.451 136.085C129.451 136.015 129.456 135.923 129.466 135.81C129.48 135.693 129.495 135.565 129.511 135.425C129.531 135.285 129.553 135.143 129.576 135C129.6 134.853 129.621 134.715 129.641 134.585L130.061 134.65C130.025 134.877 129.993 135.088 129.966 135.285C129.94 135.478 129.918 135.643 129.901 135.78C129.888 135.917 129.881 136.018 129.881 136.085C129.881 136.235 129.921 136.367 130.001 136.48C130.085 136.597 130.201 136.688 130.351 136.755C130.501 136.822 130.675 136.855 130.871 136.855C131.068 136.855 131.236 136.823 131.376 136.76C131.516 136.7 131.623 136.613 131.696 136.5C131.77 136.39 131.806 136.262 131.806 136.115L131.806 132.42L132.231 132.42L132.231 136.115C132.231 136.348 132.17 136.548 132.046 136.715C131.926 136.885 131.763 137.015 131.556 137.105C131.353 137.195 131.125 137.24 130.871 137.24ZM132.771 136L132.771 135.615C132.791 135.615 132.808 135.62 132.821 135.63C132.835 135.637 132.845 135.648 132.851 135.665C132.858 135.682 132.863 135.702 132.866 135.725C132.87 135.748 132.871 135.775 132.871 135.805C132.871 135.835 132.87 135.863 132.866 135.89C132.863 135.913 132.858 135.933 132.851 135.95C132.845 135.967 132.835 135.98 132.821 135.99C132.808 135.997 132.791 136 132.771 136ZM133.777 136L133.777 135.615L134.327 135.615L134.327 136L133.777 136ZM134.327 136L134.327 135.615C134.347 135.615 134.364 135.62 134.377 135.63C134.39 135.637 134.4 135.648 134.407 135.665C134.414 135.682 134.419 135.702 134.422 135.725C134.425 135.748 134.427 135.775 134.427 135.805C134.427 135.835 134.425 135.863 134.422 135.89C134.419 135.913 134.414 135.933 134.407 135.95C134.4 135.967 134.39 135.98 134.377 135.99C134.364 135.997 134.347 136 134.327 136ZM132.772 136C132.752 136 132.735 135.997 132.722 135.99C132.709 135.98 132.699 135.967 132.692 135.95C132.685 135.933 132.68 135.913 132.677 135.89C132.674 135.863 132.672 135.835 132.672 135.805C132.672 135.765 132.675 135.732 132.682 135.705C132.685 135.678 132.695 135.657 132.712 135.64C132.725 135.623 132.745 135.615 132.772 135.615L132.772 136ZM132.772 136L132.772 135.615L133.557 135.615L133.347 135.785L133.347 133.5L133.777 133.5L133.777 136L132.772 136ZM132.972 136.925L132.972 136.46L133.397 136.46L133.397 136.925L132.972 136.925ZM133.687 136.925L133.687 136.46L134.112 136.46L134.112 136.925L133.687 136.925ZM137.175 136L137.175 135.615L137.715 135.615L137.715 136L137.175 136ZM134.325 136C134.305 136 134.288 135.997 134.275 135.99C134.261 135.98 134.251 135.967 134.245 135.95C134.238 135.933 134.233 135.913 134.23 135.89C134.226 135.863 134.225 135.835 134.225 135.805C134.225 135.765 134.228 135.732 134.235 135.705C134.238 135.678 134.248 135.657 134.265 135.64C134.278 135.623 134.298 135.615 134.325 135.615L134.325 136ZM134.325 136L134.325 135.615L137.04 135.615L136.75 135.825L136.75 134.775C136.75 134.548 136.723 134.37 136.67 134.24C136.62 134.11 136.531 134.018 136.405 133.965C136.281 133.912 136.113 133.885 135.9 133.885C135.76 133.885 135.621 133.895 135.485 133.915C135.348 133.932 135.241 133.957 135.165 133.99L135.425 133.73C135.405 133.81 135.385 133.912 135.365 134.035C135.345 134.155 135.328 134.285 135.315 134.425C135.301 134.562 135.295 134.698 135.295 134.835C135.295 134.975 135.301 135.113 135.315 135.25C135.328 135.387 135.343 135.505 135.36 135.605C135.376 135.702 135.39 135.77 135.4 135.81L134.995 135.925C134.981 135.882 134.965 135.807 134.945 135.7C134.925 135.593 134.906 135.465 134.89 135.315C134.876 135.165 134.87 135.005 134.87 134.835C134.87 134.672 134.878 134.513 134.895 134.36C134.911 134.203 134.93 134.062 134.95 133.935C134.973 133.808 134.995 133.707 135.015 133.63C135.088 133.6 135.205 133.57 135.365 133.54C135.528 133.51 135.706 133.495 135.9 133.495C136.183 133.495 136.42 133.537 136.61 133.62C136.8 133.703 136.941 133.838 137.035 134.025C137.128 134.212 137.175 134.462 137.175 134.775L137.175 136L134.325 136ZM137.715 136L137.715 135.615C137.735 135.615 137.751 135.62 137.765 135.63C137.778 135.637 137.788 135.648 137.795 135.665C137.801 135.682 137.806 135.702 137.81 135.725C137.813 135.748 137.815 135.775 137.815 135.805C137.815 135.835 137.813 135.863 137.81 135.89C137.806 135.913 137.801 135.933 137.795 135.95C137.788 135.967 137.778 135.98 137.765 135.99C137.751 135.997 137.735 136 137.715 136ZM137.713 136L137.713 135.615L138.498 135.615L138.288 135.785L138.288 133.5L138.718 133.5L138.718 136L137.713 136ZM137.713 136C137.693 136 137.677 135.997 137.663 135.99C137.65 135.98 137.64 135.967 137.633 135.95C137.627 135.933 137.622 135.913 137.618 135.89C137.615 135.863 137.613 135.835 137.613 135.805C137.613 135.765 137.617 135.732 137.623 135.705C137.627 135.678 137.637 135.657 137.653 135.64C137.667 135.623 137.687 135.615 137.713 135.615L137.713 136ZM137.913 136.925L137.913 136.46L138.338 136.46L138.338 136.925L137.913 136.925ZM138.628 136.925L138.628 136.46L139.053 136.46L139.053 136.925L138.628 136.925ZM139.32 136L139.32 135.615L141.78 135.615L141.545 135.855L141.545 132.42L141.975 132.42L141.975 136L139.32 136ZM140.105 135.615L140.105 133.13L140.53 133.13L140.53 135.615L140.105 135.615ZM140.075 137.365C140.021 137.298 139.98 137.232 139.95 137.165C139.92 137.102 139.905 137.035 139.905 136.965C139.905 136.865 139.93 136.775 139.98 136.695C140.03 136.618 140.096 136.557 140.18 136.51C140.263 136.467 140.353 136.445 140.45 136.445C140.503 136.445 140.556 136.452 140.61 136.465C140.666 136.482 140.715 136.503 140.755 136.53L140.62 136.77C140.593 136.753 140.566 136.742 140.54 136.735C140.516 136.732 140.491 136.73 140.465 136.73C140.388 136.73 140.326 136.752 140.28 136.795C140.236 136.838 140.215 136.895 140.215 136.965C140.215 137.005 140.223 137.045 140.24 137.085C140.26 137.125 140.288 137.168 140.325 137.215L140.075 137.365ZM139.81 137.37L139.81 137.09L140.825 137.09L140.825 137.37L139.81 137.37ZM142.847 136L142.847 132.42L143.272 132.42L143.272 136L142.847 136Z" fill="#CDAB35" fill-opacity="0.5"/>
<path d="M121.665 114C121.378 114 121.152 113.957 120.985 113.87C120.822 113.78 120.705 113.643 120.635 113.46C120.568 113.273 120.535 113.037 120.535 112.75C120.535 112.467 120.568 112.232 120.635 112.045C120.705 111.858 120.822 111.722 120.985 111.635C121.152 111.545 121.378 111.5 121.665 111.5L122.715 111.5L122.715 113.785L122.285 113.785L122.285 111.72L122.48 111.885L121.665 111.885C121.482 111.885 121.338 111.908 121.235 111.955C121.135 111.998 121.065 112.082 121.025 112.205C120.985 112.328 120.965 112.51 120.965 112.75C120.965 112.99 120.983 113.172 121.02 113.295C121.06 113.418 121.132 113.503 121.235 113.55C121.338 113.593 121.482 113.615 121.665 113.615L123.255 113.615L123.255 114L121.665 114ZM123.255 114L123.255 113.615C123.275 113.615 123.292 113.62 123.305 113.63C123.318 113.637 123.328 113.648 123.335 113.665C123.342 113.682 123.347 113.702 123.35 113.725C123.353 113.748 123.355 113.775 123.355 113.805C123.355 113.835 123.353 113.863 123.35 113.89C123.347 113.913 123.342 113.933 123.335 113.95C123.328 113.967 123.318 113.98 123.305 113.99C123.292 113.997 123.275 114 123.255 114ZM121.15 111.05L121.15 110.585L121.575 110.585L121.575 111.05L121.15 111.05ZM121.865 111.05L121.865 110.585L122.29 110.585L122.29 111.05L121.865 111.05ZM124.285 114L124.285 113.615L124.82 113.615L124.82 114L124.285 114ZM123.255 114C123.235 114 123.218 113.997 123.205 113.99C123.192 113.98 123.182 113.967 123.175 113.95C123.168 113.933 123.163 113.913 123.16 113.89C123.157 113.863 123.155 113.835 123.155 113.805C123.155 113.765 123.158 113.732 123.165 113.705C123.168 113.678 123.178 113.657 123.195 113.64C123.208 113.623 123.228 113.615 123.255 113.615L123.255 114ZM123.855 114L123.855 110.42L124.285 110.42L124.285 114L123.855 114ZM123.255 114L123.255 113.615L123.855 113.615L123.855 114L123.255 114ZM124.82 114L124.82 113.615C124.84 113.615 124.857 113.62 124.87 113.63C124.883 113.637 124.893 113.648 124.9 113.665C124.907 113.682 124.912 113.702 124.915 113.725C124.918 113.748 124.92 113.775 124.92 113.805C124.92 113.835 124.918 113.863 124.915 113.89C124.912 113.913 124.907 113.933 124.9 113.95C124.893 113.967 124.883 113.98 124.87 113.99C124.857 113.997 124.84 114 124.82 114ZM124.822 114L124.822 113.615L125.567 113.615L125.362 113.785L125.362 111.5L125.787 111.5L125.787 114L124.822 114ZM124.822 114C124.802 114 124.786 113.997 124.772 113.99C124.759 113.98 124.749 113.967 124.742 113.95C124.736 113.933 124.731 113.913 124.727 113.89C124.724 113.863 124.722 113.835 124.722 113.805C124.722 113.765 124.726 113.732 124.732 113.705C124.736 113.678 124.746 113.657 124.762 113.64C124.776 113.623 124.796 113.615 124.822 113.615L124.822 114ZM125.327 111.04C125.274 110.973 125.232 110.908 125.202 110.845C125.172 110.778 125.157 110.71 125.157 110.64C125.157 110.54 125.182 110.452 125.232 110.375C125.282 110.295 125.349 110.233 125.432 110.19C125.516 110.143 125.606 110.12 125.702 110.12C125.756 110.12 125.809 110.128 125.862 110.145C125.919 110.158 125.967 110.178 126.007 110.205L125.872 110.445C125.846 110.428 125.819 110.418 125.792 110.415C125.769 110.408 125.744 110.405 125.717 110.405C125.641 110.405 125.579 110.427 125.532 110.47C125.489 110.513 125.467 110.57 125.467 110.64C125.467 110.68 125.476 110.72 125.492 110.76C125.512 110.8 125.541 110.843 125.577 110.89L125.327 111.04ZM125.062 111.045L125.062 110.765L126.077 110.765L126.077 111.045L125.062 111.045ZM127.089 114L127.089 113.615L127.694 113.615L127.694 114L127.089 114ZM126.664 114L126.664 110.42L127.089 110.42L127.089 114L126.664 114ZM127.694 114L127.694 113.615C127.714 113.615 127.731 113.62 127.744 113.63C127.758 113.637 127.768 113.648 127.774 113.665C127.781 113.682 127.786 113.702 127.789 113.725C127.793 113.748 127.794 113.775 127.794 113.805C127.794 113.835 127.793 113.863 127.789 113.89C127.786 113.913 127.781 113.933 127.774 113.95C127.768 113.967 127.758 113.98 127.744 113.99C127.731 113.997 127.714 114 127.694 114ZM127.693 114L127.693 113.615L128.418 113.615C128.608 113.615 128.792 113.583 128.968 113.52C129.145 113.457 129.307 113.372 129.453 113.265C129.603 113.158 129.733 113.042 129.843 112.915C129.953 112.785 130.038 112.653 130.098 112.52C130.158 112.383 130.188 112.257 130.188 112.14L130.188 111.835L130.413 112.18C130.223 112.083 130.035 112.01 129.848 111.96C129.665 111.91 129.485 111.885 129.308 111.885C129.135 111.885 128.955 111.91 128.768 111.96C128.582 112.01 128.395 112.083 128.208 112.18L128.433 111.835L128.433 112.14C128.433 112.257 128.463 112.383 128.523 112.52C128.587 112.653 128.672 112.785 128.778 112.915C128.888 113.042 129.017 113.158 129.163 113.265C129.31 113.372 129.472 113.457 129.648 113.52C129.825 113.583 130.01 113.615 130.203 113.615L130.893 113.615L130.893 114L130.228 114C129.968 114 129.725 113.958 129.498 113.875C129.272 113.792 129.067 113.682 128.883 113.545C128.7 113.405 128.542 113.253 128.408 113.09C128.278 112.923 128.178 112.758 128.108 112.595C128.038 112.428 128.003 112.277 128.003 112.14L128.003 111.84C128.147 111.763 128.293 111.7 128.443 111.65C128.593 111.6 128.742 111.563 128.888 111.54C129.035 111.513 129.175 111.5 129.308 111.5C129.445 111.5 129.587 111.513 129.733 111.54C129.88 111.563 130.027 111.6 130.173 111.65C130.323 111.7 130.47 111.763 130.613 111.84L130.613 112.14C130.613 112.277 130.578 112.428 130.508 112.595C130.438 112.758 130.337 112.923 130.203 113.09C130.073 113.253 129.917 113.405 129.733 113.545C129.55 113.682 129.345 113.792 129.118 113.875C128.892 113.958 128.648 114 128.388 114L127.693 114ZM127.693 114C127.673 114 127.657 113.997 127.643 113.99C127.63 113.98 127.62 113.967 127.613 113.95C127.607 113.933 127.602 113.913 127.598 113.89C127.595 113.863 127.593 113.835 127.593 113.805C127.593 113.765 127.597 113.732 127.603 113.705C127.607 113.678 127.617 113.657 127.633 113.64C127.647 113.623 127.667 113.615 127.693 113.615L127.693 114ZM130.893 114L130.893 113.615C130.913 113.615 130.93 113.62 130.943 113.63C130.957 113.637 130.967 113.648 130.973 113.665C130.98 113.682 130.985 113.702 130.988 113.725C130.992 113.748 130.993 113.775 130.993 113.805C130.993 113.835 130.992 113.863 130.988 113.89C130.985 113.913 130.98 113.933 130.973 113.95C130.967 113.967 130.957 113.98 130.943 113.99C130.93 113.997 130.913 114 130.893 114ZM131.492 114L131.492 110.42L131.922 110.42L131.922 114L131.492 114ZM130.892 114L130.892 113.615L131.492 113.615L131.492 114L130.892 114ZM130.892 114C130.872 114 130.855 113.997 130.842 113.99C130.828 113.98 130.818 113.967 130.812 113.95C130.805 113.933 130.8 113.913 130.797 113.89C130.793 113.863 130.792 113.835 130.792 113.805C130.792 113.765 130.795 113.732 130.802 113.705C130.805 113.678 130.815 113.657 130.832 113.64C130.845 113.623 130.865 113.615 130.892 113.615L130.892 114ZM132.773 114L132.773 110.42L133.198 110.42L133.198 114L132.773 114ZM137.558 114L137.558 113.615L138.098 113.615L138.098 114L137.558 114ZM135.098 115.66C135.065 115.47 135.035 115.29 135.008 115.12C134.985 114.95 134.973 114.805 134.973 114.685C134.973 114.462 135.012 114.27 135.088 114.11C135.168 113.95 135.282 113.828 135.428 113.745C135.578 113.658 135.755 113.615 135.958 113.615C136.012 113.615 136.092 113.615 136.198 113.615C136.305 113.615 136.427 113.615 136.563 113.615C136.7 113.615 136.842 113.615 136.988 113.615C137.138 113.615 137.283 113.615 137.423 113.615L137.128 113.875L137.128 112.775C137.128 112.548 137.103 112.372 137.053 112.245C137.003 112.115 136.915 112.023 136.788 111.97C136.665 111.913 136.497 111.885 136.283 111.885C136.143 111.885 136.005 111.895 135.868 111.915C135.732 111.935 135.625 111.962 135.548 111.995L135.808 111.735C135.788 111.815 135.768 111.915 135.748 112.035C135.728 112.155 135.712 112.285 135.698 112.425C135.688 112.562 135.683 112.698 135.683 112.835C135.683 112.975 135.688 113.113 135.698 113.25C135.712 113.387 135.727 113.505 135.743 113.605C135.76 113.702 135.773 113.77 135.783 113.81L135.373 113.925C135.36 113.882 135.343 113.807 135.323 113.7C135.307 113.593 135.29 113.465 135.273 113.315C135.26 113.165 135.253 113.007 135.253 112.84C135.253 112.677 135.26 112.518 135.273 112.365C135.29 112.208 135.308 112.067 135.328 111.94C135.352 111.813 135.373 111.712 135.393 111.635C135.47 111.605 135.588 111.575 135.748 111.545C135.912 111.515 136.09 111.5 136.283 111.5C136.457 111.5 136.612 111.515 136.748 111.545C136.888 111.575 137.008 111.623 137.108 111.69C137.212 111.753 137.297 111.835 137.363 111.935C137.43 112.032 137.478 112.15 137.508 112.29C137.542 112.43 137.558 112.592 137.558 112.775L137.558 114C137.418 114 137.267 114 137.103 114C136.943 114 136.787 114 136.633 114C136.48 114 136.342 114 136.218 114C136.098 114 136.012 114 135.958 114C135.905 114 135.847 114.007 135.783 114.02C135.72 114.037 135.658 114.067 135.598 114.11C135.542 114.157 135.495 114.225 135.458 114.315C135.422 114.408 135.403 114.532 135.403 114.685C135.403 114.812 135.415 114.955 135.438 115.115C135.462 115.278 135.488 115.46 135.518 115.66L135.098 115.66ZM138.098 114L138.098 113.615C138.118 113.615 138.135 113.62 138.148 113.63C138.162 113.637 138.172 113.648 138.178 113.665C138.185 113.682 138.19 113.702 138.193 113.725C138.197 113.748 138.198 113.775 138.198 113.805C138.198 113.835 138.197 113.863 138.193 113.89C138.19 113.913 138.185 113.933 138.178 113.95C138.172 113.967 138.162 113.98 138.148 113.99C138.135 113.997 138.118 114 138.098 114ZM140.774 114C140.657 114 140.542 113.978 140.429 113.935C140.315 113.888 140.209 113.818 140.109 113.725L140.384 113.435C140.46 113.498 140.529 113.545 140.589 113.575C140.649 113.602 140.71 113.615 140.774 113.615L141.669 113.615L141.489 113.795L141.489 112.61C141.489 112.553 141.482 112.47 141.469 112.36C141.459 112.25 141.442 112.127 141.419 111.99C141.399 111.85 141.374 111.71 141.344 111.57L141.764 111.5C141.787 111.617 141.81 111.747 141.834 111.89C141.857 112.033 141.877 112.17 141.894 112.3C141.91 112.43 141.919 112.533 141.919 112.61L141.919 114L140.774 114ZM138.099 114L138.099 113.615L138.829 113.615L138.724 113.72L138.724 112L139.144 112L139.144 114L138.099 114ZM139.144 114L139.144 113.615L139.689 113.615C139.802 113.615 139.887 113.598 139.944 113.565C140.004 113.532 140.045 113.465 140.069 113.365C140.092 113.265 140.104 113.118 140.104 112.925L140.104 111.75L140.529 111.75L140.529 112.925C140.529 113.188 140.5 113.4 140.444 113.56C140.387 113.717 140.297 113.83 140.174 113.9C140.05 113.967 139.889 114 139.689 114L139.144 114ZM138.099 114C138.079 114 138.062 113.997 138.049 113.99C138.035 113.98 138.025 113.967 138.019 113.95C138.012 113.933 138.007 113.913 138.004 113.89C138 113.863 137.999 113.835 137.999 113.805C137.999 113.765 138.002 113.732 138.009 113.705C138.012 113.678 138.022 113.657 138.039 113.64C138.052 113.623 138.072 113.615 138.099 113.615L138.099 114ZM142.763 114L142.763 110.42L143.188 110.42L143.188 114L142.763 114Z" fill="#CDAB35" fill-opacity="0.5"/>
<path d="M134.213 92.0001L134.213 91.6151L134.753 91.6151L134.753 92.0001L134.213 92.0001ZM131.753 93.6601C131.72 93.4701 131.69 93.2901 131.663 93.1201C131.64 92.9501 131.628 92.8051 131.628 92.6851C131.628 92.4618 131.667 92.2701 131.743 92.1101C131.823 91.9501 131.937 91.8284 132.083 91.7451C132.233 91.6584 132.41 91.6151 132.613 91.6151C132.667 91.6151 132.747 91.6151 132.853 91.6151C132.96 91.6151 133.082 91.6151 133.218 91.6151C133.355 91.6151 133.497 91.6151 133.643 91.6151C133.793 91.6151 133.938 91.6151 134.078 91.6151L133.783 91.8751L133.783 90.7751C133.783 90.5484 133.758 90.3718 133.708 90.2451C133.658 90.1151 133.57 90.0234 133.443 89.9701C133.32 89.9134 133.152 89.8851 132.938 89.8851C132.798 89.8851 132.66 89.8951 132.523 89.9151C132.387 89.9351 132.28 89.9618 132.203 89.9951L132.463 89.7351C132.443 89.8151 132.423 89.9151 132.403 90.0351C132.383 90.1551 132.367 90.2851 132.353 90.4251C132.343 90.5618 132.338 90.6984 132.338 90.8351C132.338 90.9751 132.343 91.1134 132.353 91.2501C132.367 91.3868 132.382 91.5051 132.398 91.6051C132.415 91.7018 132.428 91.7701 132.438 91.8101L132.028 91.9251C132.015 91.8818 131.998 91.8068 131.978 91.7001C131.962 91.5934 131.945 91.4651 131.928 91.3151C131.915 91.1651 131.908 91.0068 131.908 90.8401C131.908 90.6768 131.915 90.5184 131.928 90.3651C131.945 90.2084 131.963 90.0668 131.983 89.9401C132.007 89.8134 132.028 89.7118 132.048 89.6351C132.125 89.6051 132.243 89.5751 132.403 89.5451C132.567 89.5151 132.745 89.5001 132.938 89.5001C133.112 89.5001 133.267 89.5151 133.403 89.5451C133.543 89.5751 133.663 89.6234 133.763 89.6901C133.867 89.7534 133.952 89.8351 134.018 89.9351C134.085 90.0318 134.133 90.1501 134.163 90.2901C134.197 90.4301 134.213 90.5918 134.213 90.7751L134.213 92.0001C134.073 92.0001 133.922 92.0001 133.758 92.0001C133.598 92.0001 133.442 92.0001 133.288 92.0001C133.135 92.0001 132.997 92.0001 132.873 92.0001C132.753 92.0001 132.667 92.0001 132.613 92.0001C132.56 92.0001 132.502 92.0068 132.438 92.0201C132.375 92.0368 132.313 92.0668 132.253 92.1101C132.197 92.1568 132.15 92.2251 132.113 92.3151C132.077 92.4084 132.058 92.5318 132.058 92.6851C132.058 92.8118 132.07 92.9551 132.093 93.1151C132.117 93.2784 132.143 93.4601 132.173 93.6601L131.753 93.6601ZM134.753 92.0001L134.753 91.6151C134.773 91.6151 134.79 91.6201 134.803 91.6301C134.817 91.6368 134.827 91.6484 134.833 91.6651C134.84 91.6818 134.845 91.7018 134.848 91.7251C134.852 91.7484 134.853 91.7751 134.853 91.8051C134.853 91.8351 134.852 91.8634 134.848 91.8901C134.845 91.9134 134.84 91.9334 134.833 91.9501C134.827 91.9668 134.817 91.9801 134.803 91.9901C134.79 91.9968 134.773 92.0001 134.753 92.0001ZM137.428 92.0001C137.312 92.0001 137.197 91.9784 137.083 91.9351C136.97 91.8884 136.863 91.8184 136.763 91.7251L137.038 91.4351C137.115 91.4984 137.183 91.5451 137.243 91.5751C137.303 91.6018 137.365 91.6151 137.428 91.6151L138.323 91.6151L138.143 91.7951L138.143 90.6101C138.143 90.5534 138.137 90.4701 138.123 90.3601C138.113 90.2501 138.097 90.1268 138.073 89.9901C138.053 89.8501 138.028 89.7101 137.998 89.5701L138.418 89.5001C138.442 89.6168 138.465 89.7468 138.488 89.8901C138.512 90.0334 138.532 90.1701 138.548 90.3001C138.565 90.4301 138.573 90.5334 138.573 90.6101L138.573 92.0001L137.428 92.0001ZM134.753 92.0001L134.753 91.6151L135.483 91.6151L135.378 91.7201L135.378 90.0001L135.798 90.0001L135.798 92.0001L134.753 92.0001ZM135.798 92.0001L135.798 91.6151L136.343 91.6151C136.457 91.6151 136.542 91.5984 136.598 91.5651C136.658 91.5318 136.7 91.4651 136.723 91.3651C136.747 91.2651 136.758 91.1184 136.758 90.9251L136.758 89.7501L137.183 89.7501L137.183 90.9251C137.183 91.1884 137.155 91.4001 137.098 91.5601C137.042 91.7168 136.952 91.8301 136.828 91.9001C136.705 91.9668 136.543 92.0001 136.343 92.0001L135.798 92.0001ZM134.753 92.0001C134.733 92.0001 134.717 91.9968 134.703 91.9901C134.69 91.9801 134.68 91.9668 134.673 91.9501C134.667 91.9334 134.662 91.9134 134.658 91.8901C134.655 91.8634 134.653 91.8351 134.653 91.8051C134.653 91.7651 134.657 91.7318 134.663 91.7051C134.667 91.6784 134.677 91.6568 134.693 91.6401C134.707 91.6234 134.727 91.6151 134.753 91.6151L134.753 92.0001ZM139.143 92.0001L139.143 91.6151L141.603 91.6151L141.368 91.8551L141.368 88.4201L141.798 88.4201L141.798 92.0001L139.143 92.0001ZM139.928 91.6151L139.928 89.1301L140.353 89.1301L140.353 91.6151L139.928 91.6151ZM142.67 92.0001L142.67 88.4201L143.095 88.4201L143.095 92.0001L142.67 92.0001Z" fill="#CDAB35" fill-opacity="0.5"/>
<path d="M80.9086 175C80.5753 175 80.2969 174.962 80.0736 174.885C79.8503 174.805 79.6819 174.685 79.5686 174.525C79.4586 174.362 79.4036 174.157 79.4036 173.91C79.4036 173.83 79.4086 173.745 79.4186 173.655C79.4319 173.562 79.4469 173.472 79.4636 173.385C79.4803 173.295 79.4953 173.218 79.5086 173.155C79.5219 173.088 79.5303 173.043 79.5336 173.02L79.9486 173.1C79.9386 173.15 79.9236 173.222 79.9036 173.315C79.8869 173.408 79.8703 173.507 79.8536 173.61C79.8403 173.713 79.8336 173.813 79.8336 173.91C79.8336 174.033 79.8519 174.14 79.8886 174.23C79.9286 174.32 79.9903 174.393 80.0736 174.45C80.1603 174.507 80.2719 174.548 80.4086 174.575C80.5486 174.602 80.7169 174.615 80.9136 174.615L82.5736 174.615L82.3686 174.785L82.3686 171.42L82.7936 171.42L82.7936 175L80.9086 175ZM80.8586 173.25C80.8053 173.183 80.7636 173.118 80.7336 173.055C80.7036 172.988 80.6886 172.92 80.6886 172.85C80.6886 172.75 80.7136 172.662 80.7636 172.585C80.8136 172.505 80.8803 172.443 80.9636 172.4C81.0469 172.353 81.1369 172.33 81.2336 172.33C81.2869 172.33 81.3403 172.338 81.3936 172.355C81.4503 172.368 81.4986 172.388 81.5386 172.415L81.4036 172.655C81.3769 172.638 81.3503 172.628 81.3236 172.625C81.3003 172.618 81.2753 172.615 81.2486 172.615C81.1719 172.615 81.1103 172.637 81.0636 172.68C81.0203 172.723 80.9986 172.78 80.9986 172.85C80.9986 172.89 81.0069 172.93 81.0236 172.97C81.0436 173.01 81.0719 173.053 81.1086 173.1L80.8586 173.25ZM80.5936 173.255L80.5936 172.975L81.6086 172.975L81.6086 173.255L80.5936 173.255ZM85.2485 175L85.2485 172.5L85.6785 172.5L85.6785 174.785L85.4685 174.615L86.2285 174.615L86.2285 175L85.2485 175ZM84.1735 173.38L84.1735 172.99L85.2485 172.99L85.2485 173.38L84.1735 173.38ZM83.2335 176.125C83.1901 176.125 83.1451 176.122 83.0985 176.115C83.0485 176.112 83.0001 176.108 82.9535 176.105L82.9935 175.72C83.0401 175.723 83.0851 175.727 83.1285 175.73C83.1685 175.737 83.2035 175.74 83.2335 175.74C83.3868 175.74 83.5101 175.682 83.6035 175.565C83.6968 175.448 83.7435 175.287 83.7435 175.08L83.7435 172.5L84.1735 172.5L84.1735 175.08C84.1735 175.287 84.1335 175.468 84.0535 175.625C83.9735 175.785 83.8618 175.908 83.7185 175.995C83.5785 176.082 83.4168 176.125 83.2335 176.125ZM86.2285 175L86.2285 174.615C86.2485 174.615 86.2651 174.62 86.2785 174.63C86.2918 174.637 86.3018 174.648 86.3085 174.665C86.3151 174.682 86.3201 174.702 86.3235 174.725C86.3268 174.748 86.3285 174.775 86.3285 174.805C86.3285 174.835 86.3268 174.863 86.3235 174.89C86.3201 174.913 86.3151 174.933 86.3085 174.95C86.3018 174.967 86.2918 174.98 86.2785 174.99C86.2651 174.997 86.2485 175 86.2285 175ZM84.8985 172.05L84.8985 171.585L85.3235 171.585L85.3235 172.05L84.8985 172.05ZM85.6135 172.05L85.6135 171.585L86.0385 171.585L86.0385 172.05L85.6135 172.05ZM88.905 175C88.7883 175 88.6733 174.978 88.56 174.935C88.4466 174.888 88.34 174.818 88.24 174.725L88.515 174.435C88.5916 174.498 88.66 174.545 88.72 174.575C88.78 174.602 88.8416 174.615 88.905 174.615L89.8 174.615L89.62 174.795L89.62 173.61C89.62 173.553 89.6133 173.47 89.6 173.36C89.59 173.25 89.5733 173.127 89.55 172.99C89.53 172.85 89.505 172.71 89.475 172.57L89.895 172.5C89.9183 172.617 89.9416 172.747 89.965 172.89C89.9883 173.033 90.0083 173.17 90.025 173.3C90.0416 173.43 90.05 173.533 90.05 173.61L90.05 175L88.905 175ZM86.23 175L86.23 174.615L86.96 174.615L86.855 174.72L86.855 173L87.275 173L87.275 175L86.23 175ZM87.275 175L87.275 174.615L87.82 174.615C87.9333 174.615 88.0183 174.598 88.075 174.565C88.135 174.532 88.1766 174.465 88.2 174.365C88.2233 174.265 88.235 174.118 88.235 173.925L88.235 172.75L88.66 172.75L88.66 173.925C88.66 174.188 88.6316 174.4 88.575 174.56C88.5183 174.717 88.4283 174.83 88.305 174.9C88.1816 174.967 88.02 175 87.82 175L87.275 175ZM86.23 175C86.21 175 86.1933 174.997 86.18 174.99C86.1666 174.98 86.1566 174.967 86.15 174.95C86.1433 174.933 86.1383 174.913 86.135 174.89C86.1316 174.863 86.13 174.835 86.13 174.805C86.13 174.765 86.1333 174.732 86.14 174.705C86.1433 174.678 86.1533 174.657 86.17 174.64C86.1833 174.623 86.2033 174.615 86.23 174.615L86.23 175ZM88.25 171.375L88.25 170.94L88.64 170.94L88.64 171.375L88.25 171.375ZM87.875 172.05L87.875 171.585L88.3 171.585L88.3 172.05L87.875 172.05ZM88.59 172.05L88.59 171.585L89.015 171.585L89.015 172.05L88.59 172.05ZM90.8944 175L90.8944 171.42L91.3194 171.42L91.3194 175L90.8944 175ZM90.8644 176.365C90.8111 176.298 90.7694 176.232 90.7394 176.165C90.7094 176.102 90.6944 176.035 90.6944 175.965C90.6944 175.865 90.7194 175.775 90.7694 175.695C90.8194 175.618 90.8861 175.557 90.9694 175.51C91.0528 175.467 91.1428 175.445 91.2394 175.445C91.2928 175.445 91.3461 175.452 91.3994 175.465C91.4561 175.482 91.5044 175.503 91.5444 175.53L91.4094 175.77C91.3828 175.753 91.3561 175.742 91.3294 175.735C91.3061 175.732 91.2811 175.73 91.2544 175.73C91.1778 175.73 91.1161 175.752 91.0694 175.795C91.0261 175.838 91.0044 175.895 91.0044 175.965C91.0044 176.005 91.0128 176.045 91.0294 176.085C91.0494 176.125 91.0778 176.168 91.1144 176.215L90.8644 176.365ZM90.5994 176.37L90.5994 176.09L91.6144 176.09L91.6144 176.37L90.5994 176.37Z" fill="#CEAD3B"/>
<path d="M92.5742 70.736C92.2708 70.736 91.9885 70.6917 91.7272 70.603C91.4705 70.519 91.2465 70.4 91.0552 70.246C90.8638 70.0967 90.7122 69.917 90.6002 69.707C90.4928 69.5017 90.4392 69.2777 90.4392 69.035C90.4392 68.9463 90.4462 68.832 90.4602 68.692C90.4742 68.552 90.4928 68.391 90.5162 68.209C90.5442 68.027 90.5745 67.8333 90.6072 67.628L91.5312 67.754C91.4845 68.048 91.4472 68.3093 91.4192 68.538C91.3912 68.7667 91.3772 68.9277 91.3772 69.021C91.3772 69.1983 91.4262 69.3547 91.5242 69.49C91.6222 69.6253 91.7598 69.7303 91.9372 69.805C92.1192 69.8843 92.3315 69.924 92.5742 69.924H94.5552C94.8585 69.924 95.0848 69.847 95.2342 69.693C95.3835 69.539 95.4582 69.315 95.4582 69.021V68.755H96.3892V69.021C96.3892 69.357 96.3145 69.6533 96.1652 69.91C96.0158 70.1667 95.8035 70.3673 95.5282 70.512C95.2575 70.6613 94.9332 70.736 94.5552 70.736H92.5742ZM95.1502 69C94.9355 69 94.7278 68.9767 94.5272 68.93C94.3312 68.8833 94.1445 68.7993 93.9672 68.678L94.4992 68.006C94.5738 68.0573 94.6392 68.097 94.6952 68.125C94.7558 68.1483 94.8212 68.1647 94.8912 68.174C94.9658 68.1833 95.0522 68.188 95.1502 68.188H96.6972V69H95.1502ZM96.6972 69V68.188C96.7205 68.188 96.7415 68.1973 96.7602 68.216C96.7788 68.2347 96.7928 68.2627 96.8022 68.3C96.8115 68.3373 96.8185 68.3817 96.8232 68.433C96.8325 68.4797 96.8372 68.5333 96.8372 68.594C96.8372 68.6547 96.8325 68.7107 96.8232 68.762C96.8185 68.8133 96.8115 68.8577 96.8022 68.895C96.7928 68.9277 96.7788 68.9533 96.7602 68.972C96.7415 68.9907 96.7205 69 96.6972 69ZM92.3362 72.178V71.38H93.2392V72.178H92.3362ZM93.6102 72.178V71.38H94.5132V72.178H93.6102ZM96.6943 69V68.188H98.3533L97.8073 68.643V65.486H98.7383V69H96.6943ZM96.6943 69C96.6663 69 96.6453 68.9907 96.6313 68.972C96.6127 68.9533 96.5987 68.9277 96.5893 68.895C96.5753 68.8577 96.566 68.8133 96.5613 68.762C96.5567 68.7107 96.5543 68.6547 96.5543 68.594C96.5543 68.51 96.559 68.44 96.5683 68.384C96.5777 68.3233 96.594 68.2767 96.6173 68.244C96.636 68.2067 96.6617 68.188 96.6943 68.188V69ZM97.1913 64.842V64.044H98.0943V64.842H97.1913ZM98.4653 64.842V64.044H99.3683V64.842H98.4653ZM100.812 69V68.188H101.61V69H100.812ZM99.881 69V64.051H100.812V69H99.881ZM101.61 69V68.188C101.638 68.188 101.659 68.1973 101.673 68.216C101.692 68.2347 101.706 68.2627 101.715 68.3C101.729 68.3373 101.738 68.3817 101.743 68.433C101.748 68.4797 101.75 68.5333 101.75 68.594C101.75 68.6547 101.748 68.7107 101.743 68.762C101.738 68.8133 101.729 68.8577 101.715 68.895C101.706 68.9277 101.692 68.9533 101.673 68.972C101.659 68.9907 101.638 69 101.61 69ZM105.529 69V68.188H106.264V69H105.529ZM101.609 69C101.581 69 101.56 68.9907 101.546 68.972C101.528 68.9533 101.514 68.9277 101.504 68.895C101.49 68.8577 101.481 68.8133 101.476 68.762C101.472 68.7107 101.469 68.6547 101.469 68.594C101.469 68.51 101.474 68.44 101.483 68.384C101.493 68.3233 101.509 68.2767 101.532 68.244C101.551 68.2067 101.577 68.188 101.609 68.188V69ZM101.609 69V68.188H104.878L104.591 68.433V66.095L104.829 66.298H103.947C103.742 66.298 103.581 66.3237 103.464 66.375C103.348 66.4263 103.266 66.522 103.219 66.662C103.173 66.7973 103.149 66.991 103.149 67.243C103.149 67.5183 103.173 67.7237 103.219 67.859C103.266 67.9897 103.348 68.0783 103.464 68.125C103.581 68.167 103.742 68.188 103.947 68.188V68.916C103.551 68.916 103.224 68.86 102.967 68.748C102.711 68.636 102.519 68.4587 102.393 68.216C102.272 67.9687 102.211 67.6443 102.211 67.243C102.211 66.8603 102.272 66.5383 102.393 66.277C102.519 66.0157 102.711 65.8197 102.967 65.689C103.224 65.5537 103.551 65.486 103.947 65.486H105.529V69H101.609ZM106.264 69V68.188C106.292 68.188 106.316 68.1973 106.334 68.216C106.353 68.2347 106.367 68.2627 106.376 68.3C106.386 68.3373 106.393 68.3817 106.397 68.433C106.402 68.4797 106.404 68.5333 106.404 68.594C106.404 68.6547 106.402 68.7107 106.397 68.762C106.393 68.8133 106.386 68.8577 106.376 68.895C106.367 68.9277 106.353 68.9533 106.334 68.972C106.316 68.9907 106.292 69 106.264 69ZM103.576 64.842V64.044H104.514V64.842H103.576ZM107.056 69V64.051H107.994V69H107.056ZM106.265 69V68.188H107.056V69H106.265ZM106.265 69C106.237 69 106.216 68.9907 106.202 68.972C106.183 68.9533 106.169 68.9277 106.16 68.895C106.146 68.8577 106.136 68.8133 106.132 68.762C106.127 68.7107 106.125 68.6547 106.125 68.594C106.125 68.51 106.129 68.44 106.139 68.384C106.148 68.3233 106.164 68.2767 106.188 68.244C106.206 68.2067 106.232 68.188 106.265 68.188V69ZM110.047 69V68.188H110.845V69H110.047ZM109.116 69V64.051H110.047V69H109.116ZM110.845 69V68.188C110.873 68.188 110.894 68.1973 110.908 68.216C110.927 68.2347 110.941 68.2627 110.95 68.3C110.964 68.3373 110.974 68.3817 110.978 68.433C110.983 68.4797 110.985 68.5333 110.985 68.594C110.985 68.6547 110.983 68.7107 110.978 68.762C110.974 68.8133 110.964 68.8577 110.95 68.895C110.941 68.9277 110.927 68.9533 110.908 68.972C110.894 68.9907 110.873 69 110.845 69ZM114.471 69V68.188H115.213V69H114.471ZM110.845 69C110.817 69 110.796 68.9907 110.782 68.972C110.763 68.9533 110.749 68.9277 110.74 68.895C110.726 68.8577 110.716 68.8133 110.712 68.762C110.707 68.7107 110.705 68.6547 110.705 68.594C110.705 68.51 110.709 68.44 110.719 68.384C110.728 68.3233 110.744 68.2767 110.768 68.244C110.786 68.2067 110.812 68.188 110.845 68.188V69ZM110.845 69V68.188H113.855L113.54 68.447V67.152C113.54 66.872 113.451 66.6597 113.274 66.515C113.101 66.3703 112.826 66.298 112.448 66.298C112.34 66.298 112.193 66.3073 112.007 66.326C111.82 66.34 111.617 66.3633 111.398 66.396L111.307 65.654C111.507 65.6073 111.71 65.5677 111.916 65.535C112.126 65.5023 112.331 65.486 112.532 65.486C112.914 65.486 113.25 65.5537 113.54 65.689C113.829 65.8197 114.055 66.0087 114.219 66.256C114.387 66.5033 114.471 66.802 114.471 67.152V69H110.845ZM115.213 69V68.188C115.236 68.188 115.257 68.1973 115.276 68.216C115.294 68.2347 115.308 68.2627 115.318 68.3C115.327 68.3373 115.334 68.3817 115.339 68.433C115.348 68.4797 115.353 68.5333 115.353 68.594C115.353 68.6547 115.348 68.7107 115.339 68.762C115.334 68.8133 115.327 68.8577 115.318 68.895C115.308 68.9277 115.294 68.9533 115.276 68.972C115.257 68.9907 115.236 69 115.213 69ZM112.056 64.933V64.135H112.994V64.933H112.056ZM115.213 69V68.188H118.846L118.419 68.552V67.264C118.419 67.012 118.391 66.816 118.335 66.676C118.279 66.5313 118.181 66.431 118.041 66.375C117.906 66.3143 117.717 66.284 117.474 66.284C117.283 66.284 117.094 66.298 116.907 66.326C116.725 66.3493 116.583 66.382 116.48 66.424L117.061 65.878C117.033 65.9853 117.005 66.1207 116.977 66.284C116.954 66.4473 116.933 66.6223 116.914 66.809C116.895 66.991 116.886 67.1707 116.886 67.348C116.886 67.5113 116.893 67.6817 116.907 67.859C116.926 68.0363 116.944 68.1927 116.963 68.328C116.986 68.4633 117.005 68.5567 117.019 68.608L116.13 68.853C116.111 68.7877 116.088 68.6803 116.06 68.531C116.032 68.3817 116.006 68.2043 115.983 67.999C115.964 67.7937 115.955 67.5767 115.955 67.348C115.955 67.1147 115.967 66.8907 115.99 66.676C116.013 66.4567 116.039 66.2607 116.067 66.088C116.1 65.9107 116.13 65.7683 116.158 65.661C116.27 65.619 116.445 65.577 116.683 65.535C116.921 65.493 117.185 65.472 117.474 65.472C117.894 65.472 118.242 65.5303 118.517 65.647C118.797 65.7637 119.005 65.9527 119.14 66.214C119.28 66.4753 119.35 66.8277 119.35 67.271V69H115.213ZM115.213 69C115.185 69 115.164 68.9907 115.15 68.972C115.131 68.9533 115.117 68.9277 115.108 68.895C115.094 68.8577 115.085 68.8133 115.08 68.762C115.075 68.7107 115.073 68.6547 115.073 68.594C115.073 68.51 115.078 68.44 115.087 68.384C115.096 68.3233 115.113 68.2767 115.136 68.244C115.155 68.2067 115.18 68.188 115.213 68.188V69Z" fill="#CDAB35"/>
</svg>
