<svg width="120" height="120" viewBox="0 0 120 120" fill="none" xmlns="http://www.w3.org/2000/svg">
<circle cx="60" cy="60" r="40" fill="#CDAB35" fill-opacity="0.22"/>
<circle cx="60" cy="60" r="59.75" stroke="#CDAB35" stroke-width="0.5" stroke-dasharray="5 5"/>
<circle cx="60" cy="60" r="25" fill="#CDAB35"/>
<path d="M62.4822 57.85L62.6322 58L61.9422 62.86H58.8822L58.5522 61.03C56.7322 60.67 55.2922 60.02 54.2322 59.08C53.1722 58.14 52.6422 56.78 52.6422 55V54.94C52.6422 52.98 53.3022 51.46 54.6222 50.38C55.9422 49.28 57.7022 48.73 59.9022 48.73C62.8422 48.73 65.2922 49.81 67.2522 51.97L64.4922 55C63.1122 53.62 61.6122 52.93 59.9922 52.93C59.1122 52.93 58.4322 53.12 57.9522 53.5C57.4722 53.86 57.2322 54.38 57.2322 55.06V55.12C57.2322 55.94 57.6422 56.58 58.4622 57.04C59.3022 57.5 60.6422 57.77 62.4822 57.85ZM58.0722 65.2H62.9322V70H58.0722V65.2Z" fill="white"/>
</svg>
