<svg width="169" height="168" viewBox="0 0 169 168" fill="none" xmlns="http://www.w3.org/2000/svg">
<g clip-path="url(#clip0_1679_2388)">
<path d="M169 167.616C169 167.829 168.829 168 168.617 168H0.383308C0.170726 168 0 167.829 0 167.616C0 167.402 0.170726 167.231 0.383308 167.231H168.617C168.829 167.231 169 167.403 169 167.616Z" fill="#3F3D56"/>
<path d="M116.777 148.904L118.71 156.978L112.912 158.593L111.624 149.873L116.777 148.904Z" fill="#FFB6B6"/>
<path d="M126.119 122.744L119.999 127.911L116.133 134.048L121.609 137.6L130.95 126.942L126.119 122.744Z" fill="#FFB6B6"/>
<path d="M124.186 69.4554L129.34 86.8953C129.34 86.8953 152.209 106.919 149.955 111.117C147.7 115.316 132.561 126.942 132.561 126.942C132.561 126.942 133.684 130.66 130.385 129.124C127.085 127.588 123.542 123.39 123.542 123.39C123.542 123.39 123.542 120.16 125.152 120.806C126.763 121.452 134.171 112.732 134.171 112.732L118.066 97.876V147.552C118.066 147.552 121.931 150.941 118.066 151.214C114.201 151.487 110.658 152.133 110.658 152.133C110.658 152.133 106.148 150.519 107.759 148.904L102.927 122.421L99.3838 90.1249L101.961 73.331L124.186 69.4554Z" fill="#2F2E41"/>
<path d="M113.878 156.009C113.878 156.009 114.2 154.717 115.489 154.717H119.424C119.424 154.717 120.643 160.207 120.32 160.207C119.998 160.207 125.474 167.312 119.676 167.635C113.878 167.958 112.268 167.312 112.268 167.312L111.624 164.763C111.624 164.763 110.657 163.114 110.979 161.822C111.301 160.53 113.878 156.009 113.878 156.009Z" fill="#2F2E41"/>
<path d="M121.931 135.016C121.931 135.016 125.631 134.958 124.747 135.956C123.864 136.954 122.253 138.569 122.253 138.569C122.253 138.569 118.422 146.32 116.633 144.867C114.845 143.413 111.946 127.265 112.912 125.328C113.878 123.39 115.167 123.39 115.167 123.39L121.109 126.973C121.109 126.973 117.422 135.985 121.931 135.016Z" fill="#2F2E41"/>
<path d="M112.912 42.0039L114.201 33.9299L105.504 30.3773L104.215 42.6498L112.912 42.0039Z" fill="#FFB6B6"/>
<path opacity="0.1" d="M112.912 42.0039L114.201 33.9299L105.504 30.3773L104.215 42.6498L112.912 42.0039Z" fill="black"/>
<path d="M103.732 40.8735L114.039 38.2898L124.991 41.8424C124.991 41.8424 129.823 55.4067 128.212 60.2511C126.602 65.0955 126.602 74.558 126.602 74.558C126.602 74.558 126.441 70.4244 117.099 73.331C107.758 76.2376 100.994 75.9147 100.994 75.9147L100.672 64.2881L96.6256 53.9609C94.8961 49.5467 96.7602 44.535 100.95 42.3345L103.732 40.8735Z" fill="#E6E6E6"/>
<path d="M151.048 78.9189C152.502 80.666 152.782 82.8346 151.673 83.7625C150.564 84.6903 148.486 84.0261 147.032 82.2782C146.441 81.588 146.024 80.766 145.815 79.881L139.746 72.4005L142.702 70.0016L148.912 77.2893C149.744 77.6537 150.476 78.2125 151.048 78.9189Z" fill="#FFB6B6"/>
<path d="M124.523 41.9454L122.411 50.3347L132.749 66.9281L143.304 77.5635L146.724 74.718L136.08 61.4389L128.012 44.3293L124.523 41.9454Z" fill="#E6E6E6"/>
<path d="M149.135 33.8479C156.497 33.3024 161.908 25.2896 161.22 15.9508C160.531 6.61209 154.005 -0.516224 146.642 0.0293111C139.28 0.574846 133.869 8.58765 134.557 17.9264C135.246 27.2652 141.772 34.3935 149.135 33.8479Z" fill="black" fill-opacity="0.2"/>
<path d="M148.855 33.848H148.21V98.2586H148.855V33.848Z" fill="#2F2E41"/>
<path d="M149.015 32.4878L149.092 34.7702L150.121 36.883L145.829 36.6635L147.633 34.8441L147.429 32.7703L149.015 32.4878Z" fill="#FBFBFB"/>
<path d="M110.714 36.5253C115.613 36.5253 119.583 32.5441 119.583 27.6331C119.583 22.722 115.613 18.7408 110.714 18.7408C105.816 18.7408 101.846 22.722 101.846 27.6331C101.846 32.5441 105.816 36.5253 110.714 36.5253Z" fill="#FFB6B6"/>
<path d="M110.007 15.678C110.263 15.8282 110.607 15.601 110.689 15.3147C110.771 15.0284 110.676 14.7245 110.581 14.4422L110.102 13.0211C109.763 12.0133 109.403 10.9702 108.668 10.2031C107.558 9.04532 105.795 8.75077 104.208 8.96416C102.17 9.23819 100.159 10.3447 99.2113 12.1746C98.2636 14.0044 98.6671 16.5577 100.379 17.6993C97.9389 20.5039 97.0882 23.6296 97.2225 27.3492C97.3569 31.0689 101.4 34.4922 104.036 37.1125C104.625 36.7546 105.16 35.0776 104.836 34.4684C104.513 33.8592 104.976 33.1534 104.575 32.5922C104.174 32.0311 103.839 32.9246 104.244 32.3666C104.5 32.0145 103.502 31.2045 103.882 30.9938C105.721 29.9745 106.333 27.6761 107.488 25.916C108.881 23.793 111.266 22.3553 113.789 22.1168C115.179 21.9854 116.647 22.2234 117.787 23.0325C118.926 23.8417 119.664 25.2876 119.4 26.6623C120.084 25.9656 120.424 24.9447 120.296 23.9755C120.168 23.0063 119.573 22.11 118.731 21.6168C119.243 19.9192 118.804 17.9666 117.616 16.653C116.428 15.3394 111.607 15.5631 109.872 15.9088" fill="#2F2E41"/>
<path d="M109.737 22.1683C107.44 22.417 105.781 24.4126 104.38 26.2556C103.572 27.3178 102.726 28.4909 102.747 29.8263C102.767 31.1764 103.667 32.3345 104.098 33.614C104.801 35.7054 104.116 38.1938 102.441 39.6268C104.096 39.9415 105.884 38.6979 106.17 37.0341C106.502 35.0972 105.038 33.2278 105.211 31.2702C105.364 29.5455 106.719 28.2181 107.872 26.9286C109.024 25.639 110.107 23.9278 109.576 22.2799" fill="#2F2E41"/>
<path d="M100.85 76H34.6026C27.0901 76 21 82.1062 21 89.6386V154.048C21 161.58 27.0901 167.686 34.6025 167.686H100.85C108.362 167.686 114.453 161.58 114.453 154.048V89.6386C114.453 82.1062 108.362 76 100.85 76Z" fill="white"/>
<path d="M101.279 167.762H35.0316C27.3536 167.762 21.1069 161.499 21.1069 153.8V89.3916C21.1069 81.6932 27.3536 75.4301 35.0316 75.4301H101.279C108.957 75.4301 115.204 81.6932 115.204 89.3916V153.8C115.204 161.499 108.957 167.762 101.279 167.762ZM35.0316 76.076C27.7087 76.076 21.7511 82.0493 21.7511 89.3916V153.8C21.7511 161.143 27.7087 167.116 35.0316 167.116H101.279C108.602 167.116 114.56 161.143 114.56 153.8V89.3916C114.56 82.0493 108.602 76.076 101.279 76.076H35.0316Z" fill="#3F3D56"/>
<path d="M94.2886 82.0892C95.137 82.0892 95.8247 81.3996 95.8247 80.549C95.8247 79.6984 95.137 79.0088 94.2886 79.0088C93.4402 79.0088 92.7524 79.6984 92.7524 80.549C92.7524 81.3996 93.4402 82.0892 94.2886 82.0892Z" fill="#3F3D56"/>
<path d="M98.5132 82.0892C99.3616 82.0892 100.049 81.3996 100.049 80.549C100.049 79.6984 99.3616 79.0088 98.5132 79.0088C97.6648 79.0088 96.9771 79.6984 96.9771 80.549C96.9771 81.3996 97.6648 82.0892 98.5132 82.0892Z" fill="#3F3D56"/>
<path d="M102.738 82.0892C103.586 82.0892 104.274 81.3996 104.274 80.549C104.274 79.6984 103.586 79.0088 102.738 79.0088C101.889 79.0088 101.202 79.6984 101.202 80.549C101.202 81.3996 101.889 82.0892 102.738 82.0892Z" fill="#3F3D56"/>
<path d="M69.9069 144.601V146.915H32.86C32.5427 146.915 32.2542 146.788 32.0465 146.574C31.833 146.365 31.7061 146.076 31.7061 145.758C31.7061 145.121 32.2254 144.601 32.86 144.601L69.9069 144.601Z" fill="#FBFBFB"/>
<path d="M108.392 72.447C110.565 73.1048 111.988 74.762 111.57 76.1484C111.152 77.5348 109.053 78.1252 106.879 77.4669C106.007 77.2159 105.208 76.7592 104.548 76.135L95.377 73.2316L96.5313 69.5981L105.715 72.2627C106.609 72.1089 107.527 72.1721 108.392 72.447Z" fill="#FFB6B6"/>
<path d="M92.4584 48.6245L102.122 41.5194L101.8 55.0837L92.7805 66.7103L102.444 70.5858L102.122 76.1194C102.122 76.1194 89.8816 73.1695 87.9489 72.8466C86.0163 72.5236 84.4058 68.0022 84.4058 68.0022L92.4584 48.6245Z" fill="#E6E6E6"/>
<path d="M41.0751 122.976C40.9711 122.976 40.8591 122.972 40.7391 122.964C40.6191 122.956 40.4951 122.944 40.3671 122.928L40.4271 121.56C40.5551 121.568 40.6751 121.576 40.7871 121.584C40.9071 121.592 40.9951 121.596 41.0511 121.596C41.3631 121.596 41.6111 121.472 41.7951 121.224C41.9871 120.976 42.0831 120.628 42.0831 120.18V113.976H43.6911V120.18C43.6911 120.724 43.5791 121.208 43.3551 121.632C43.1391 122.056 42.8351 122.384 42.4431 122.616C42.0511 122.856 41.5951 122.976 41.0751 122.976ZM47.174 120V118.608H48.542V120H47.174ZM45.578 120V111.516H47.174V120H45.578ZM48.542 120V118.608C48.59 118.608 48.626 118.624 48.65 118.656C48.682 118.688 48.706 118.736 48.722 118.8C48.746 118.864 48.762 118.94 48.77 119.028C48.778 119.108 48.782 119.2 48.782 119.304C48.782 119.408 48.778 119.504 48.77 119.592C48.762 119.68 48.746 119.756 48.722 119.82C48.706 119.876 48.682 119.92 48.65 119.952C48.626 119.984 48.59 120 48.542 120ZM51.409 120V118.608H52.669V120H51.409ZM48.541 120C48.493 120 48.457 119.984 48.433 119.952C48.401 119.92 48.377 119.876 48.361 119.82C48.337 119.756 48.321 119.68 48.313 119.592C48.305 119.504 48.301 119.408 48.301 119.304C48.301 119.16 48.309 119.04 48.325 118.944C48.341 118.84 48.369 118.76 48.409 118.704C48.441 118.64 48.485 118.608 48.541 118.608V120ZM48.541 120V118.608H50.737L49.801 119.388V113.976H51.409V120H48.541ZM52.669 120V118.608C52.717 118.608 52.757 118.624 52.789 118.656C52.821 118.688 52.845 118.736 52.861 118.8C52.877 118.864 52.889 118.94 52.897 119.028C52.905 119.108 52.909 119.2 52.909 119.304C52.909 119.408 52.905 119.504 52.897 119.592C52.889 119.68 52.877 119.756 52.861 119.82C52.845 119.876 52.821 119.92 52.789 119.952C52.757 119.984 52.717 120 52.669 120ZM49.801 122.556V121.188H51.409V122.556H49.801ZM56.17 120V118.608H57.67V120H56.17ZM57.67 120V118.608C57.71 118.608 57.746 118.624 57.778 118.656C57.81 118.688 57.834 118.736 57.85 118.8C57.866 118.864 57.878 118.94 57.886 119.028C57.902 119.108 57.91 119.2 57.91 119.304C57.91 119.408 57.902 119.504 57.886 119.592C57.878 119.68 57.866 119.756 57.85 119.82C57.834 119.876 57.81 119.92 57.778 119.952C57.754 119.984 57.718 120 57.67 120ZM52.666 120C52.618 120 52.582 119.984 52.558 119.952C52.526 119.92 52.502 119.876 52.486 119.82C52.462 119.756 52.446 119.68 52.438 119.592C52.43 119.504 52.426 119.408 52.426 119.304C52.426 119.16 52.434 119.04 52.45 118.944C52.466 118.84 52.494 118.76 52.534 118.704C52.566 118.64 52.61 118.608 52.666 118.608V120ZM52.666 120V118.608H55.51L54.574 119.388V113.976H56.17V120H52.666ZM53.518 112.872V111.504H55.066V112.872H53.518ZM55.702 112.872V111.504H57.25V112.872H55.702ZM57.6699 120V118.608H62.8299L62.2899 119.052V116.832C62.2899 116.352 62.1379 115.988 61.8339 115.74C61.5379 115.492 61.0659 115.368 60.4179 115.368C60.2339 115.368 59.9819 115.384 59.6619 115.416C59.3419 115.44 58.9939 115.48 58.6179 115.536L58.4619 114.264C58.8059 114.184 59.1539 114.116 59.5059 114.06C59.8659 114.004 60.2179 113.976 60.5619 113.976C61.2179 113.976 61.7939 114.092 62.2899 114.324C62.7859 114.548 63.1739 114.872 63.4539 115.296C63.7419 115.72 63.8859 116.232 63.8859 116.832V120H57.6699ZM57.6699 120C57.6219 120 57.5859 119.984 57.5619 119.952C57.5299 119.92 57.5059 119.876 57.4899 119.82C57.4659 119.756 57.4499 119.68 57.4419 119.592C57.4339 119.504 57.4299 119.408 57.4299 119.304C57.4299 119.16 57.4379 119.04 57.4539 118.944C57.4699 118.84 57.4979 118.76 57.5379 118.704C57.5699 118.64 57.6139 118.608 57.6699 118.608V120ZM59.7459 113.028V111.66H61.3539V113.028H59.7459ZM65.6874 120V111.516H67.2834V120H65.6874ZM75.4584 122.028V120.924H76.5744V122.028H75.4584ZM78.8544 120V118.608C78.9024 118.608 78.9384 118.624 78.9624 118.656C78.9944 118.688 79.0184 118.736 79.0344 118.8C79.0584 118.864 79.0744 118.94 79.0824 119.028C79.0904 119.108 79.0944 119.2 79.0944 119.304C79.0944 119.408 79.0904 119.504 79.0824 119.592C79.0744 119.68 79.0584 119.756 79.0344 119.82C79.0184 119.876 78.9944 119.92 78.9624 119.952C78.9384 119.984 78.9024 120 78.8544 120ZM74.6904 123.876C74.0424 123.876 73.4744 123.772 72.9864 123.564C72.5064 123.356 72.1304 123.052 71.8584 122.652C71.5944 122.26 71.4624 121.792 71.4624 121.248C71.4624 120.696 71.5944 120.224 71.8584 119.832C72.1304 119.44 72.5064 119.14 72.9864 118.932C73.4744 118.716 74.0464 118.608 74.7024 118.608H75.9984V116.832C75.9984 116.352 75.8464 115.988 75.5424 115.74C75.2384 115.492 74.7664 115.368 74.1264 115.368C73.9264 115.368 73.6584 115.384 73.3224 115.416C72.9944 115.448 72.6264 115.492 72.2184 115.548L72.0744 114.288C72.4264 114.2 72.7904 114.128 73.1664 114.072C73.5424 114.008 73.9064 113.976 74.2584 113.976C74.9144 113.976 75.4904 114.092 75.9864 114.324C76.4904 114.548 76.8824 114.872 77.1624 115.296C77.4504 115.72 77.5944 116.232 77.5944 116.832V120H74.7024C74.1344 120 73.7184 120.104 73.4544 120.312C73.1984 120.52 73.0704 120.832 73.0704 121.248C73.0704 121.664 73.1984 121.976 73.4544 122.184C73.7184 122.392 74.1304 122.496 74.6904 122.496C74.7944 122.496 74.9104 122.488 75.0384 122.472C75.1744 122.464 75.3344 122.452 75.5184 122.436L75.6144 123.792C75.4784 123.816 75.3304 123.836 75.1704 123.852C75.0104 123.868 74.8504 123.876 74.6904 123.876ZM77.5944 120V118.608H78.8544V120H77.5944ZM78.8574 120V118.608H81.0534L80.1174 119.388V113.976H81.7254V120H78.8574ZM78.8574 120C78.8094 120 78.7734 119.984 78.7494 119.952C78.7174 119.92 78.6934 119.876 78.6774 119.82C78.6534 119.756 78.6374 119.68 78.6294 119.592C78.6214 119.504 78.6174 119.408 78.6174 119.304C78.6174 119.16 78.6254 119.04 78.6414 118.944C78.6574 118.84 78.6854 118.76 78.7254 118.704C78.7574 118.64 78.8014 118.608 78.8574 118.608V120ZM80.2014 112.788C80.0494 112.604 79.9334 112.428 79.8534 112.26C79.7734 112.092 79.7334 111.912 79.7334 111.72C79.7334 111.448 79.8054 111.204 79.9494 110.988C80.0934 110.764 80.2814 110.592 80.5134 110.472C80.7454 110.344 81.0014 110.28 81.2814 110.28C81.4334 110.28 81.5894 110.3 81.7494 110.34C81.9094 110.38 82.0454 110.44 82.1574 110.52L81.7494 111.252C81.6774 111.212 81.6054 111.188 81.5334 111.18C81.4694 111.164 81.4014 111.156 81.3294 111.156C81.1374 111.156 80.9894 111.208 80.8854 111.312C80.7814 111.408 80.7294 111.54 80.7294 111.708C80.7294 111.804 80.7494 111.896 80.7894 111.984C80.8294 112.072 80.8894 112.168 80.9694 112.272L80.2014 112.788ZM79.4694 112.884V112.008H82.3734V112.884H79.4694ZM85.2717 120V118.608H86.6397V120H85.2717ZM83.6757 120V111.516H85.2717V120H83.6757ZM86.6397 120V118.608C86.6877 118.608 86.7237 118.624 86.7477 118.656C86.7797 118.688 86.8037 118.736 86.8197 118.8C86.8437 118.864 86.8597 118.94 86.8677 119.028C86.8757 119.108 86.8797 119.2 86.8797 119.304C86.8797 119.408 86.8757 119.504 86.8677 119.592C86.8597 119.68 86.8437 119.756 86.8197 119.82C86.8037 119.876 86.7797 119.92 86.7477 119.952C86.7237 119.984 86.6877 120 86.6397 120ZM90.1427 120V118.608H91.6427V120H90.1427ZM91.6427 120V118.608C91.6827 118.608 91.7187 118.624 91.7507 118.656C91.7827 118.688 91.8067 118.736 91.8227 118.8C91.8387 118.864 91.8507 118.94 91.8587 119.028C91.8747 119.108 91.8827 119.2 91.8827 119.304C91.8827 119.408 91.8747 119.504 91.8587 119.592C91.8507 119.68 91.8387 119.756 91.8227 119.82C91.8067 119.876 91.7827 119.92 91.7507 119.952C91.7267 119.984 91.6907 120 91.6427 120ZM86.6387 120C86.5907 120 86.5547 119.984 86.5307 119.952C86.4987 119.92 86.4747 119.876 86.4587 119.82C86.4347 119.756 86.4187 119.68 86.4107 119.592C86.4027 119.504 86.3987 119.408 86.3987 119.304C86.3987 119.16 86.4067 119.04 86.4227 118.944C86.4387 118.84 86.4667 118.76 86.5067 118.704C86.5387 118.64 86.5827 118.608 86.6387 118.608V120ZM86.6387 120V118.608H89.4827L88.5467 119.388V113.976H90.1427V120H86.6387ZM87.4907 112.872V111.504H89.0387V112.872H87.4907ZM89.6747 112.872V111.504H91.2227V112.872H89.6747ZM91.6426 120V118.608H93.8386L92.9026 119.388V113.976H94.5106V120H91.6426ZM91.6426 120C91.5946 120 91.5586 119.984 91.5346 119.952C91.5026 119.92 91.4786 119.876 91.4626 119.82C91.4386 119.756 91.4226 119.68 91.4146 119.592C91.4066 119.504 91.4026 119.408 91.4026 119.304C91.4026 119.16 91.4106 119.04 91.4266 118.944C91.4426 118.84 91.4706 118.76 91.5106 118.704C91.5426 118.64 91.5866 118.608 91.6426 118.608V120ZM92.9026 112.872V111.504H94.5106V112.872H92.9026ZM53.0283 140C52.3483 140 51.7883 139.892 51.3483 139.676C50.9083 139.46 50.5803 139.132 50.3643 138.692C50.1563 138.252 50.0523 137.696 50.0523 137.024C50.0523 136.352 50.1563 135.792 50.3643 135.344C50.5803 134.888 50.9083 134.548 51.3483 134.324C51.7883 134.092 52.3483 133.976 53.0283 133.976H55.7403V139.244H54.1323V135.02L54.5283 135.368H53.0283C52.7003 135.368 52.4363 135.408 52.2363 135.488C52.0363 135.56 51.8883 135.716 51.7923 135.956C51.7043 136.188 51.6603 136.544 51.6603 137.024C51.6603 137.48 51.7003 137.824 51.7803 138.056C51.8683 138.28 52.0123 138.428 52.2123 138.5C52.4123 138.572 52.6843 138.608 53.0283 138.608H57.0003V140H53.0283ZM57.0003 140V138.608C57.0483 138.608 57.0843 138.624 57.1083 138.656C57.1403 138.688 57.1643 138.736 57.1803 138.8C57.2043 138.864 57.2203 138.94 57.2283 139.028C57.2363 139.108 57.2403 139.2 57.2403 139.304C57.2403 139.408 57.2363 139.504 57.2283 139.592C57.2203 139.68 57.2043 139.756 57.1803 139.82C57.1643 139.876 57.1403 139.92 57.1083 139.952C57.0843 139.984 57.0483 140 57.0003 140ZM51.2403 132.872V131.504H52.7883V132.872H51.2403ZM53.4243 132.872V131.504H54.9723V132.872H53.4243ZM66.326 140V138.608H67.586V140H66.326ZM57.002 140C56.954 140 56.918 139.984 56.894 139.952C56.862 139.92 56.838 139.876 56.822 139.82C56.798 139.756 56.782 139.68 56.774 139.592C56.766 139.504 56.762 139.408 56.762 139.304C56.762 139.16 56.77 139.04 56.786 138.944C56.802 138.84 56.83 138.76 56.87 138.704C56.902 138.64 56.946 138.608 57.002 138.608V140ZM57.002 140V138.608H66.074L64.718 139.784V137.264C64.718 136.808 64.658 136.444 64.538 136.172C64.418 135.892 64.242 135.688 64.01 135.56C63.786 135.432 63.514 135.368 63.194 135.368C62.85 135.368 62.522 135.436 62.21 135.572C61.906 135.708 61.622 135.884 61.358 136.1C61.094 136.316 60.85 136.548 60.626 136.796C60.402 137.044 60.202 137.284 60.026 137.516C59.85 137.74 59.698 137.932 59.57 138.092L59.21 136.928C59.522 136.552 59.802 136.208 60.05 135.896C60.298 135.584 60.534 135.308 60.758 135.068C60.99 134.828 61.23 134.628 61.478 134.468C61.734 134.308 62.01 134.188 62.306 134.108C62.61 134.02 62.962 133.976 63.362 133.976C63.898 133.976 64.354 134.068 64.73 134.252C65.106 134.428 65.41 134.672 65.642 134.984C65.882 135.296 66.054 135.648 66.158 136.04C66.27 136.432 66.326 136.84 66.326 137.264V140H57.002ZM58.514 138.608V133.976H60.122V138.608H58.514ZM67.586 140V138.608C67.634 138.608 67.67 138.624 67.694 138.656C67.726 138.688 67.75 138.736 67.766 138.8C67.79 138.864 67.806 138.94 67.814 139.028C67.822 139.108 67.826 139.2 67.826 139.304C67.826 139.408 67.822 139.504 67.814 139.592C67.806 139.68 67.79 139.756 67.766 139.82C67.75 139.876 67.726 139.92 67.694 139.952C67.67 139.984 67.634 140 67.586 140ZM67.584 140V138.608H72.744L72.204 139.052V136.832C72.204 136.352 72.052 135.988 71.748 135.74C71.452 135.492 70.98 135.368 70.332 135.368C70.148 135.368 69.896 135.384 69.576 135.416C69.256 135.44 68.908 135.48 68.532 135.536L68.376 134.264C68.72 134.184 69.068 134.116 69.42 134.06C69.78 134.004 70.132 133.976 70.476 133.976C71.132 133.976 71.708 134.092 72.204 134.324C72.7 134.548 73.088 134.872 73.368 135.296C73.656 135.72 73.8 136.232 73.8 136.832V140H67.584ZM67.584 140C67.536 140 67.5 139.984 67.476 139.952C67.444 139.92 67.42 139.876 67.404 139.82C67.38 139.756 67.364 139.68 67.356 139.592C67.348 139.504 67.344 139.408 67.344 139.304C67.344 139.16 67.352 139.04 67.368 138.944C67.384 138.84 67.412 138.76 67.452 138.704C67.484 138.64 67.528 138.608 67.584 138.608V140ZM69.66 133.028V131.66H71.268V133.028H69.66ZM77.3055 140V138.608H78.8535V140H77.3055ZM74.9775 142.976C74.8735 142.976 74.7615 142.972 74.6415 142.964C74.5215 142.956 74.3975 142.944 74.2695 142.928L74.3295 141.56C74.4575 141.568 74.5775 141.576 74.6895 141.584C74.8095 141.592 74.8975 141.596 74.9535 141.596C75.2655 141.596 75.5135 141.472 75.6975 141.224C75.8895 140.976 75.9855 140.628 75.9855 140.18V133.976H77.5935V140.18C77.5935 140.724 77.4815 141.208 77.2575 141.632C77.0415 142.056 76.7375 142.384 76.3455 142.616C75.9535 142.856 75.4975 142.976 74.9775 142.976ZM78.8535 140V138.608C78.9015 138.608 78.9375 138.624 78.9615 138.656C78.9935 138.688 79.0175 138.736 79.0335 138.8C79.0575 138.864 79.0735 138.94 79.0815 139.028C79.0895 139.108 79.0935 139.2 79.0935 139.304C79.0935 139.408 79.0895 139.504 79.0815 139.592C79.0735 139.68 79.0575 139.756 79.0335 139.82C79.0175 139.876 78.9935 139.92 78.9615 139.952C78.9375 139.984 78.9015 140 78.8535 140ZM80.2134 140V131.516H81.8214V140H80.2134ZM78.8574 140V138.608H80.2134V140H78.8574ZM78.8574 140C78.8094 140 78.7734 139.984 78.7494 139.952C78.7174 139.92 78.6934 139.876 78.6774 139.82C78.6534 139.756 78.6374 139.68 78.6294 139.592C78.6214 139.504 78.6174 139.408 78.6174 139.304C78.6174 139.16 78.6254 139.04 78.6414 138.944C78.6574 138.84 78.6854 138.76 78.7254 138.704C78.7574 138.64 78.8014 138.608 78.8574 138.608V140ZM83.746 140V131.516H85.342V140H83.746Z" fill="black"/>
</g>
<defs>
<clipPath id="clip0_1679_2388">
<rect width="169" height="168" fill="white"/>
</clipPath>
</defs>
</svg>
